<svg width="560" height="440" viewBox="0 0 560 440" fill="none" xmlns="http://www.w3.org/2000/svg">
<g clip-path="url(#clip0_1299_202)">
<g opacity="0.05">
<path d="M894.79 229.889L891.205 233.018C846.388 195.293 845.415 178.238 842.496 127.601L842.035 119.448C841.676 113.674 841.42 108.21 841.164 103.053C838.296 46.5547 837.22 25.4007 772.735 13.7661C698.621 0.32451 565.707 2.66023 492.822 13.1931C437.813 21.0818 407.491 53.2974 375.376 87.4081C352.174 112.088 328.152 137.605 293.938 152.985C218.748 186.787 97.2049 145.89 -10.0994 109.796C-58.7576 93.4018 -104.752 77.9329 -140.094 71.8953L-139.121 67.4882C-103.267 73.614 -57.1698 89.1269 -8.20426 105.609C98.0244 141.351 218.441 181.896 291.582 148.975C324.823 134.035 348.537 108.871 371.432 84.5435C402.676 51.3142 435.047 16.9391 491.951 8.74194C565.297 -1.83502 699.082 -4.1707 773.657 9.359C842.035 21.7429 843.264 45.4528 846.183 102.789L847.054 119.139L847.515 127.292C850.435 176.739 851.408 193.354 894.79 229.889Z" fill="#B4B4B4"/>
<path d="M899.298 247.21L895.662 250.295C851.306 211.953 849.564 195.735 844.443 142.057L843.316 129.674C838.194 72.3817 836.401 53.255 773.401 41.5322C695.395 26.7245 563.403 23.1548 491.286 33.864C434.945 42.1493 404.572 75.3345 372.253 110.459C348.589 136.24 324.055 162.859 288.612 178.68C213.832 212.086 96.3347 170.571 -7.33298 133.993C-57.1181 116.364 -104.086 99.8377 -140.503 93.7119L-139.53 89.3048C-102.498 95.4747 -55.2742 112.177 -5.2842 129.806C97.1542 166.076 213.678 207.15 286.358 174.714C320.828 159.289 345.004 133.023 368.309 107.638C399.809 73.3953 432.384 38.0066 490.467 29.4128C563.3 18.6596 696.06 22.2734 774.528 37.1252C841.113 49.7735 843.213 71.5003 848.438 129.674L849.564 141.573C854.891 195.515 856.274 210.014 899.298 247.21Z" fill="#B4B4B4"/>
<path d="M910.157 257.477L906.674 260.738C863.087 226.628 859.194 212.481 851.153 163.783L851.153 162.328C840.909 100.101 838.706 87.0999 775.86 74.4516C690.273 57.1318 563.659 40.8258 488.572 51.6671C430.131 60.0846 398.426 95.7377 364.826 133.683C340.292 161.359 314.939 189.961 278.214 206.664C203.844 240.422 91.1618 196.704 -8.25466 158.186C-57.5275 139.059 -104.035 121.034 -140.759 114.424L-139.734 110.017C-102.447 116.715 -55.6837 134.872 -6.1547 154.087C92.1862 192.252 203.844 235.53 275.807 202.565C311.661 186.347 336.553 158.142 360.78 130.862C393.458 93.975 427.365 55.942 487.752 47.1279C563.557 36.1543 690.99 52.5926 777.038 69.9564C843.316 83.1776 845.775 98.3379 856.223 161.535L856.223 162.99C864.213 211.599 867.696 224.292 910.157 257.477Z" fill="#B4B4B4"/>
<path d="M925.574 261.841L923.628 265.939C879.733 250.647 868.26 219.489 857.043 189.433C845.723 158.583 835.019 129.629 792.456 114.953C766.282 105.919 733.605 102.085 701.951 98.4269C679.311 96.1555 656.84 92.7713 634.649 88.2907C626.966 86.572 619.283 84.6769 611.191 82.7819C569.293 72.6897 525.962 62.2889 484.474 69.3402C424.343 79.5646 390.641 118.303 354.941 159.288C325.08 193.619 294.195 229.096 246.561 245.358C172.293 270.655 81.3792 228.259 -6.56421 187.273C-55.6322 164.401 -102.037 142.762 -142.039 134.917L-140.912 130.51C-99.9369 138.531 -53.5323 160.258 -4.10571 183.395C82.967 223.896 172.652 265.763 244.666 241.26C290.763 225.483 321.495 190.49 350.843 156.644C385.519 116.981 421.424 75.5543 483.45 65.0214C526.167 57.7498 570.113 68.3267 612.574 78.507C620.461 80.4021 628.247 82.2971 635.93 84.0158C657.88 88.4582 680.113 91.7985 702.515 94.0198C734.424 97.7658 767.461 101.6 794.197 110.855C839.014 126.324 850.538 157.702 861.806 188.067C873.075 218.431 883.882 247.342 925.574 261.841Z" fill="#B4B4B4"/>
<path d="M945.345 262.282L944.218 266.689C906.469 259.197 895.406 241.26 882.755 220.503C877.928 212.377 872.576 204.491 866.723 196.881C846.235 171.055 838.706 168.896 811.048 160.875C806.848 159.641 802.136 158.275 796.86 156.688C772.48 149.24 746.256 143.467 720.902 138.267C691.28 132.408 662.085 125.05 633.471 116.231C625.839 113.719 618.105 111.031 610.115 108.299C567.244 93.4909 523.042 78.1544 478.789 85.0734C414.457 95.1656 378.706 138.311 340.804 184.012C309.304 221.869 277.087 260.959 226.944 278.588C153.547 304.413 68.1643 257.919 -14.5036 213.011C-60.9594 187.802 -104.598 164.004 -142.91 154.925L-141.578 150.518C-102.293 159.773 -58.1935 183.704 -11.5328 209.088C70.0082 253.423 154.315 299.301 225.254 274.313C273.861 257.213 305.821 218.652 336.758 181.324C373.533 136.945 411.589 91.023 477.969 80.5783C523.554 73.4388 568.576 88.9957 612.112 104.068C620 106.8 627.786 109.489 635.417 111.957C663.908 120.697 692.985 127.953 722.49 133.683C748.1 139.104 774.324 144.745 798.909 152.193C804.031 153.78 808.845 155.146 813.045 156.38C840.55 164.357 849.77 167.045 871.282 194.104C877.27 201.828 882.726 209.848 887.621 218.123C899.811 238.924 909.901 255.23 945.345 262.282Z" fill="#B4B4B4"/>
<path d="M967.881 259.857L967.472 264.264C934.128 262.061 903.499 246.195 873.894 230.903C850.743 218.916 826.772 206.488 801.47 200.538C769.202 192.87 729.251 175.991 686.995 158.098C613.598 127.249 530.418 91.9923 471.874 100.234C402.985 110.017 362.982 160.478 324.261 209.264C291.173 250.955 257.01 294.1 204.664 313.139C131.523 339.581 52.3378 288.636 -24.1838 239.188C-67.1567 211.424 -107.722 185.202 -144.651 174.713L-143.012 170.526C-105.315 181.28 -64.4421 207.678 -21.1106 235.663C54.2841 284.361 132.24 334.734 202.666 309.084C253.885 290.531 287.383 247.958 320.061 206.796C359.346 157.217 400.014 105.963 471.004 95.8706C531.186 87.3209 615.135 122.842 689.198 154.176C731.249 171.804 771.148 188.727 802.802 196.264C828.77 202.433 853.048 214.949 876.506 227.113C907.084 242.846 935.767 257.742 967.881 259.857Z" fill="#B4B4B4"/>
<path d="M992.108 260.299C934.947 261.445 847.977 257.611 792.097 246.373C746.307 237.206 701.234 209.926 653.498 181.016C592.035 143.732 528.215 105.214 463.986 110.238C392.587 115.835 346.746 174.581 302.492 231.389C270.634 272.198 237.751 314.418 195.854 335.263C113.903 376.161 40.506 320.235 -30.3302 266.116C-68.2324 237.118 -107.159 207.194 -146.239 194.325L-144.447 190.227C-104.7 203.448 -65.1592 233.592 -26.9497 262.811C42.5035 315.696 114.364 370.784 193.293 331.473C234.268 311.112 265 271.184 298.241 228.965C343.16 171.276 389.667 111.648 463.525 105.831C529.445 100.675 593.878 139.677 656.263 177.446C703.539 206.048 748.458 233.107 793.019 242.098C848.54 253.248 934.947 257.038 991.8 255.892L992.108 260.299Z" fill="#B4B4B4"/>
<path d="M1016.69 251.704L1016.69 256.111C983.042 255.847 951.184 265.939 920.401 275.679C881.423 287.975 841.165 300.711 796.758 292.822C743.951 283.391 693.807 245.931 645.405 209.705C585.991 165.282 524.528 119.36 457.175 123.503C382.548 128.13 333.019 193.487 285.129 256.728C249.686 303.443 216.239 347.646 173.215 369.461C87.7304 412.871 23.399 352.758 -38.8323 294.541C-73.2516 262.414 -108.798 229.184 -147.52 213.76L-145.368 209.749C-105.776 225.703 -69.8712 259.24 -35.0933 291.809C28.521 351.26 88.6523 407.406 170.552 365.803C212.552 344.473 245.69 300.755 280.776 254.437C329.383 190.314 379.578 124.032 456.765 119.272C526.269 114.865 588.501 161.492 648.683 206.532C696.625 242.361 746 279.469 797.731 288.636C840.704 296.26 878.504 284.228 918.557 271.668C949.801 261.664 982.069 251.44 1016.69 251.704Z" fill="#B4B4B4"/>
<path d="M1040.97 252.937C1012.65 260.121 984.016 275.898 953.899 292.601C904.575 319.792 853.509 347.909 801.214 338.302C744.412 327.857 692.681 282.861 642.435 239.319C582.764 187.492 521.096 133.858 450.26 137.252C407.287 139.279 364.058 184.716 335.478 214.772L325.234 225.349C309.254 241.655 293.222 261.663 276.166 282.641C240.313 327.24 199.798 377.833 150.935 403.042C62.121 448.963 6.03593 384.929 -48.154 323.054C-78.8855 287.797 -111 251.351 -149.261 233.414L-146.802 229.536C-107.568 247.913 -75.0953 284.756 -44.0564 320.409C11.2091 383.518 63.5039 443.102 148.323 399.296C196.213 374.528 236.471 324.376 271.966 280.305C289.073 259.019 305.207 238.923 321.29 222.484L331.534 211.951C360.678 181.102 404.726 134.96 450.004 132.624C523.145 129.143 585.633 183.482 646.071 236.014C695.549 279.071 746.768 323.582 802.085 333.763C852.331 343.018 902.475 315.385 950.928 288.679C981.66 271.844 1010.44 255.89 1039.43 248.53L1040.97 252.937Z" fill="#B4B4B4"/>
<path d="M1062.43 252.145C1030.68 263.207 1000.46 287.402 968.495 313.403C922.398 350.511 874.867 388.897 821.035 385.635C749.841 381.228 693.602 324.818 639.207 270.258C581.073 211.865 520.942 151.532 444.574 158.759C359.601 166.78 311.097 237.249 264.18 305.383C223.205 365.23 180.437 427.106 112.93 447.907C46.3446 468.356 23.9619 455.399 -14.7087 403.219C-26.0793 387.839 -35.5036 373.207 -44.6207 359.149C-71.101 318.031 -93.9448 282.51 -150.081 253.379L-147.469 249.633C-90.1546 279.16 -66.9522 315.166 -39.9085 356.857C-30.8427 370.96 -21.4696 385.547 -10.1501 400.928C27.3935 451.653 47.9325 463.464 111.393 443.853C177.159 423.58 219.261 362.366 259.929 303.223C307.46 234.164 356.631 162.726 444.318 154.485C523.657 146.993 584.659 208.251 643.663 267.438C697.085 321.336 752.35 377.085 821.394 381.272C873.023 384.401 919.786 346.677 964.808 310.23C997.127 284.14 1027.7 259.505 1060.33 248.135L1062.43 252.145Z" fill="#B4B4B4"/>
<path d="M1080.36 255.274C1021.25 279.997 997.588 304.192 964.808 337.642C954.564 348.263 942.63 360.338 928.545 373.515C903.499 397.005 865.443 427.986 824.621 426.047C750.097 422.478 692.834 359.545 637.517 298.683C579.281 234.516 518.535 167.881 439.197 175.065C351.202 183.086 300.905 257.521 252.246 329.533C209.683 392.598 165.635 457.778 96.0791 479.373C84.1963 491.933 71.1866 498.852 57.4598 499.91C42.6063 501.056 26.7283 495.503 10.1333 483.031L9.6723 482.546L-27.9226 432.217C-38.1665 415.47 -46.6688 399.781 -54.6078 384.577C-77.0931 341.828 -96.4539 304.853 -151.412 273.563L-148.595 269.861C-92.2539 301.9 -72.7394 339.36 -49.9469 382.77C-42.0079 397.886 -33.8128 413.619 -23.5178 429.97L13.7698 479.902C29.1356 491.316 43.6818 496.56 56.9988 495.547C69.4451 494.577 81.4304 488.011 92.545 476.112L92.9547 475.627L93.6718 475.627C161.845 454.605 205.586 389.909 247.842 327.329C297.114 254.348 348.078 178.943 438.633 170.702C520.84 163.254 582.047 230.726 641.512 295.951C696.163 356.019 752.709 418.159 824.928 421.64C863.548 423.491 900.426 393.347 924.755 370.518C938.789 357.297 950.364 345.398 960.915 334.821C994.054 300.931 1018.02 276.427 1078.11 251.307L1080.36 255.274Z" fill="#B4B4B4"/>
<path d="M1093.32 263.515C1031.39 291.676 1006.86 319.749 973.003 358.531C961.837 371.312 949.237 385.767 934.076 401.412C914.562 421.596 873.843 463.64 827.284 461.612C750.456 458.263 692.475 390.615 636.493 324.993C577.693 256.243 516.845 185.113 435.457 192.429C345.312 200.582 293.683 278.014 243.744 352.934C200.003 418.599 154.725 486.512 83.2741 508.812C71.3913 521.725 58.3816 528.82 44.6548 529.922C29.8525 531.068 13.9233 525.206 -2.51808 512.558L-3.08149 512.029L-37.7569 459.585C-47.4374 441.957 -54.7105 425.21 -61.7275 409.168C-80.9347 365.098 -97.581 327.241 -152.181 294.364L-149.261 290.75C-93.2786 324.42 -76.4274 362.982 -57.0666 407.582C-50.1007 423.579 -42.8788 440.106 -33.3521 457.558L1.01602 509.517C16.3818 521.152 30.7744 526.528 44.0402 525.515C56.4864 524.545 68.4718 517.847 79.5863 505.595L79.9961 505.11L80.7132 504.89C150.781 483.339 195.7 415.911 239.134 350.642C289.739 274.797 342.034 196.395 434.792 187.978C519.098 180.353 580.818 252.541 640.488 322.305C695.753 386.957 753.17 453.768 827.387 456.985C871.384 458.88 910.977 418.026 929.825 398.371C944.833 382.814 957.433 368.403 968.547 355.666C1001.53 317.898 1027.6 288.062 1090.6 259.372L1093.32 263.515Z" fill="#B4B4B4"/>
<path d="M1100.18 278.235C1036.11 307.277 1010.24 339.184 977.254 379.597C965.628 393.92 952.413 410.182 936.279 427.59C913.691 452.182 875.943 493.3 828.411 491.14C750.046 487.526 691.912 417.145 635.673 349.1C576.771 277.75 515.82 203.976 433.204 211.6C341.829 220.017 289.483 299.212 238.878 375.851C194.42 443.147 148.476 512.691 75.7962 535.387C63.8621 548.3 50.8525 555.439 37.0745 556.497C22.2209 557.687 6.34297 551.869 -10.3033 539.221L-10.8667 538.604L-43.8006 484.882C-53.0713 466.24 -59.5762 448.964 -65.9273 432.217C-82.7785 387.706 -97.3247 349.233 -153 315.827L-150.081 312.213C-93.0223 346.456 -78.3736 385.591 -61.1127 430.851C-54.8128 447.51 -48.3079 464.698 -39.2421 483.031L-6.61549 536.224C8.75028 547.815 23.2453 553.192 36.5623 552.134C49.0598 551.12 61.0451 544.421 72.1596 532.17L72.6206 531.641L73.3377 531.421C144.584 509.385 190.22 440.459 234.371 373.648C285.59 296.083 338.653 215.875 432.589 207.237C518.228 199.304 580.049 274.18 639.822 346.544C695.344 413.752 752.504 483.163 828.667 486.733C873.484 488.76 910.26 448.788 932.181 425.034C948.111 407.714 960.659 392.246 972.849 377.262C1006.04 336.364 1032.21 304.06 1097.41 274.489L1100.18 278.235Z" fill="#B4B4B4"/>
<path d="M1101 300.622C1037.59 329.665 1011.01 361.704 977.357 402.249C965.013 417.101 952.311 432.438 936.382 449.537C912.104 475.583 875.38 514.894 828.821 512.955C750.354 509.649 692.066 439.18 635.674 371.047C576.669 299.697 515.667 225.922 432.999 233.37C341.368 241.656 289.585 321.159 239.083 398.107C195.137 465.447 149.04 535.254 76.5646 557.995C64.6305 570.819 51.5696 577.871 37.7404 578.973C22.8356 580.162 7.00893 574.565 -9.73976 562.005L-10.3032 561.388L-43.2884 507.402C-52.559 488.54 -59.0639 471.043 -65.3638 454.12C-81.9589 409.389 -96.0954 370.783 -152.437 337.598L-149.517 333.94C-91.9978 368.006 -77.3491 407.273 -60.4468 452.93C-54.1981 469.765 -47.7444 487.129 -38.6274 505.815L-6.00074 559.273C9.36503 570.731 23.9113 575.976 37.2795 574.918C49.8282 573.904 61.8647 567.25 73.1329 555.086L73.5939 554.557L74.2598 554.557C145.557 532.522 190.886 463.243 234.678 396.256C285.59 318.339 338.244 237.822 432.538 229.316C518.126 221.604 580.05 296.436 639.925 368.8C695.549 436.095 753.119 505.683 829.129 508.856C873.075 510.707 908.775 472.41 932.438 447.157C948.316 430.19 961.018 414.898 973.413 400.09C1007.42 359.06 1034.31 326.668 1098.8 297.141L1101 300.622Z" fill="#B4B4B4"/>
<path d="M1101 329.136C1039.54 357.033 1011.31 387.133 975.461 425.254C963.117 438.475 950.415 451.697 935.049 466.769C911.335 489.818 871.537 528.468 827.489 526.749C750.045 523.796 691.348 455.487 634.648 389.425C575.132 320.101 513.566 248.399 431.769 255.758C340.753 263.955 290.609 343.062 242.258 419.569C199.695 486.689 155.697 556.188 83.8881 578.884C71.9541 591.709 58.9444 598.804 45.1152 599.906C30.2616 601.096 14.3837 595.499 -2.31381 582.939L-2.87722 582.366L-37.2453 528.291C-46.9257 509.693 -53.9428 492.286 -60.7549 475.407C-78.9377 430.278 -94.662 391.32 -150.747 358.179L-147.828 354.565C-90.4108 388.499 -74.4304 428.119 -55.633 473.952C-48.8721 490.699 -41.9062 508.019 -32.4307 526.308L1.68133 579.854C17.0471 591.268 31.5933 596.557 44.9103 595.455C58.2273 594.353 69.4443 587.787 80.7638 575.623L81.2248 575.138L81.9418 574.918C152.317 552.883 195.956 484.044 238.212 417.41C287.331 339.933 338.192 259.769 431.872 251.351C516.537 243.727 578.973 316.444 639.361 386.78C695.394 452.005 753.323 519.477 828.308 522.298C870.154 523.884 908.927 486.292 932.078 463.816C947.444 448.964 959.993 435.479 972.285 422.434C1008.55 383.96 1037.13 353.507 1099.41 325.17L1101 329.136Z" fill="#B4B4B4"/>
<path d="M1100.9 363.071C1066.48 377.174 1032.16 407.582 995.796 439.754C941.555 487.791 885.419 537.458 824.519 534.726C748.92 531.333 689.915 466.857 632.806 404.497C572.418 338.391 509.88 270.346 429.568 278.235C339.985 287.049 292.812 365.23 247.176 440.856C207.071 507.358 165.584 576.108 95.1062 599.069C83.377 611.85 70.4186 618.901 56.6918 620.047C41.8382 621.237 25.9603 615.64 9.10916 602.992L8.54574 602.463L-28.076 548.256C-38.3198 529.878 -46.2076 512.514 -53.6856 495.768C-74.1733 450.154 -91.7927 410.755 -148.697 377.746L-145.829 374.133C-87.5927 407.891 -69.666 447.863 -48.871 494.181C-41.393 510.884 -33.5052 528.115 -23.2614 546.184L13.1043 599.907C28.47 611.453 43.17 616.742 56.5382 615.64C68.9844 614.626 80.8673 607.972 91.8282 595.852L92.2892 595.367L92.955 595.367C161.999 573.332 203.128 505.022 242.925 439.049C289.022 362.366 337.015 283.083 429.312 274.048C512.543 265.939 575.901 335.086 637.159 401.853C693.5 463.552 751.839 527.102 825.083 530.407C883.677 533.051 938.943 484.089 992.416 436.757C1029.09 404.277 1063.76 373.604 1099 359.193L1100.9 363.071Z" fill="#B4B4B4"/>
<path d="M1100.69 401.192C1067.04 412.342 1031.85 436.449 994.618 462.362C937.816 501.629 879.118 542.218 820.78 537.987C748.509 532.743 689.198 473.909 631.832 417.013C566.886 352.582 505.577 291.72 426.955 300.579C339.37 310.45 296.09 387.398 254.193 461.833C217.212 527.543 178.952 595.456 110.215 618.681C98.6911 631.373 85.9375 638.424 72.3132 639.57C57.4084 640.848 41.2744 635.163 24.3721 622.339L23.9111 621.854L-15.7326 567.515C-26.8472 549.269 -35.5544 532.038 -43.9544 515.335C-67.2591 469.149 -87.3371 429.309 -145.676 396.344L-142.859 392.642C-83.2395 426.224 -62.8543 466.681 -39.2934 513.484C-30.8935 530.099 -22.2375 547.286 -11.2765 565.223L28.1623 619.21C43.8866 630.932 58.6377 636.309 72.0059 635.163C84.2985 634.15 95.9765 627.495 106.784 615.508L107.194 614.979L107.859 614.758C175.161 592.415 213.064 525.031 249.737 459.938C292.453 384.357 336.143 306.396 426.392 296.216C507.625 287.049 572.725 351.657 635.725 414.105C692.373 470.339 751.019 528.688 821.189 533.58C877.531 537.679 935.408 497.663 991.442 458.925C1028.99 432.967 1064.48 408.464 1099 397.226L1100.69 401.192Z" fill="#B4B4B4"/>
<path d="M1100.44 442.354C1066.48 450.154 1030.52 467.43 992.467 485.719C933.77 513.924 873.075 543.011 816.324 537.766C748.356 531.42 688.737 478.888 631.064 428.119C563.916 368.755 500.096 312.698 424.241 322.658C339.268 334.028 300.393 409.433 262.849 482.414C229.505 547.418 195.137 614.273 128.552 637.807C117.335 650.455 104.838 657.462 91.367 658.652C76.411 659.974 60.1233 654.245 42.9136 641.024L42.5038 640.583L-0.520269 586.068C-12.6592 568.043 -22.3909 550.811 -31.764 534.241C-58.2956 487.438 -81.1393 447.025 -141.476 414.325L-138.71 410.623C-77.2467 443.984 -53.9932 484.926 -27.1543 532.302C-17.7812 548.828 -8.10074 565.972 3.57724 583.732L46.3453 637.895C62.3257 649.882 77.0768 655.523 90.6499 654.157C102.789 653.099 114.262 646.489 124.711 634.546L125.12 634.061L125.786 633.841C191.04 611.188 225.203 544.862 258.188 480.695C296.346 406.656 335.734 330.106 423.472 318.383C501.991 307.894 569.498 367.389 634.803 424.902C691.81 475.142 750.763 527.057 816.938 533.271C872.102 538.428 932.028 509.605 990.008 481.753C1028.37 463.331 1064.63 445.879 1099.16 437.946L1100.44 442.354Z" fill="#B4B4B4"/>
<path d="M1100.13 485.367C1066.07 489.334 1029.96 498.985 991.697 509.165C930.849 525.383 867.952 542.174 811.457 535.387C749.277 527.895 689.76 482.503 632.19 438.784C564.171 387.001 493.898 333.5 421.167 345.09C339.216 358.311 305.104 431.997 272.17 503.304C242.719 567.206 212.243 633.224 147.349 656.934C77.0758 682.627 52.5931 655.171 15.3055 604.402C2.2958 586.774 -8.51147 569.586 -18.9602 553.06C-48.9747 505.596 -74.8916 464.654 -137.481 432.13L-134.818 428.34C-71.2038 461.481 -44.8771 502.951 -14.5553 550.944C-4.31149 567.427 6.70067 584.438 19.6079 602.066C59.4052 656.273 81.9417 676.061 145.3 652.88C208.658 629.698 238.314 564.738 267.355 501.717C300.801 429.265 335.374 354.345 420.193 340.771C495.332 328.784 566.578 383.035 635.314 435.479C692.372 478.845 751.326 523.62 811.969 531.024C867.337 537.679 929.773 521.064 990.007 504.979C1028.42 494.71 1064.74 485.015 1099.26 481.004L1100.13 485.367Z" fill="#B4B4B4"/>
<path d="M1099.77 524.766L1099.77 529.173C1067.25 529.173 1033.75 531.157 998.203 533.272C933.564 537.106 866.672 541.073 806.387 532.038C751.377 523.841 692.731 486.205 636.031 449.802C562.788 402.823 487.086 354.257 417.94 367.346C338.96 382.286 309.867 454.341 281.697 523.973C256.395 586.686 230.17 651.514 167.632 675.708C99.9199 701.93 72.0055 672.623 32.0033 622.603C18.0204 604.975 6.08631 588.052 -5.43801 571.613C-39.1403 523.532 -68.1815 481.974 -133.179 449.582L-130.618 445.792C-64.4937 478.757 -35.0939 520.712 -1.08435 569.19C10.44 585.584 22.3228 602.551 36.2545 619.959C75.8469 669.539 101.405 696.378 165.532 671.566C226.073 648.164 251.887 584.218 276.882 522.431C305.514 451.609 335.067 378.364 416.864 362.895C488.264 349.365 564.939 398.592 639.105 446.144C695.446 482.238 753.477 519.566 807.257 527.587C866.928 536.401 933.513 532.567 997.895 528.733C1033.44 526.75 1067.09 524.766 1099.77 524.766Z" fill="#B4B4B4"/>
<path d="M1100.13 568.264L1099.46 572.671C1023.97 564.253 947.343 552.09 873.229 540.367C849.258 536.577 825.339 532.787 801.522 529.129C752.044 521.549 697.393 491.978 639.515 460.687C561.611 418.556 481.094 374.97 414.868 389.601C338.961 406.348 314.632 476.729 291.122 544.73C269.866 606.429 247.893 669.891 187.813 694.57C119.282 722.776 88.0892 686.638 48.5992 640.892C33.5919 623.528 20.6335 606.605 8.08478 590.211C-29.254 541.513 -61.5222 499.47 -128.824 467.166L-126.366 463.332C-57.988 496.076 -25.4126 538.604 12.2847 587.743C24.8335 604.093 37.8943 620.972 52.6455 638.204C96.1818 688.665 123.84 715.945 185.508 690.56C243.54 666.718 265.205 604.049 286.154 543.452C310.073 474.217 334.812 402.426 413.536 385.282C481.863 370.21 563.404 414.281 642.179 456.897C699.647 487.967 753.888 517.318 802.392 524.766C826.209 528.424 850.18 532.214 874.099 536.004C948.06 547.727 1024.89 559.846 1100.13 568.264Z" fill="#B4B4B4"/>
<path d="M1100.39 610.352L1099.16 614.759C1050.45 604.49 1003.89 588.625 958.815 573.288C906.982 555.66 853.406 537.415 796.809 527.896C725.102 515.82 666.456 491.758 604.174 466.197C594.903 462.407 585.53 458.572 575.952 454.694C567.552 451.301 558.537 447.334 548.959 443.148C506.601 424.462 453.845 401.237 411.845 411.814C338.807 430.191 318.934 498.985 299.726 565.532C282.312 625.909 264.334 688.313 206.559 713.565C140.691 742.388 106.835 705.721 64.0156 659.358C48.1377 642.171 34.2061 625.292 20.6842 608.986C-20.2912 559.715 -55.3764 517.187 -124.881 484.927L-122.474 481.049C-51.8935 513.793 -14.6059 558.789 24.8842 606.43C38.3548 622.692 52.2352 639.527 68.062 656.626C109.396 701.446 142.074 736.835 204.254 709.511C259.929 685.184 277.651 623.749 294.758 564.342C314.324 496.605 334.504 426.533 410.411 407.451C454.357 396.389 508.086 420.055 551.315 439.093C560.791 443.28 569.805 447.246 578.154 450.596C587.732 454.474 597.105 458.308 606.376 462.098C671.015 488.541 726.895 511.325 797.833 523.268C854.84 532.92 908.672 551.253 960.71 568.97C1005.58 584.35 1051.98 600.304 1100.39 610.352Z" fill="#B4B4B4"/>
<path d="M1100.59 649.971L1098.95 654.113C1050.19 639.967 1005.94 617.359 963.117 595.499C910.157 568.396 855.557 540.411 792.813 529.393C711.426 514.938 647.607 494.357 572.571 468.973C563.812 466.02 554.388 462.494 544.4 458.748C501.991 442.839 449.235 423.007 409.079 434.201C338.396 453.9 322.518 521.373 307.153 586.641C293.17 645.916 278.726 707.263 223.102 733C159.59 762.395 122.559 724.494 79.6881 680.6L77.5882 678.396C60.9419 661.341 46.0883 644.55 31.7469 628.332C-12.1992 578.576 -50.2038 535.784 -121.501 503.392L-119.145 499.469C-46.7721 532.126 -6.46259 577.563 35.8445 625.688C50.1347 641.862 64.937 658.609 81.4808 675.532L83.632 677.735C126.759 721.806 160.819 756.842 220.643 729.122C274.168 704.354 288.406 644.065 302.133 585.76C317.755 519.257 333.94 450.507 407.491 430.014C449.491 418.291 503.271 438.476 546.449 454.694C556.385 458.44 565.759 461.921 574.415 464.874C649.143 490.17 712.707 510.663 793.735 525.074C857.145 536.313 912.308 564.518 965.627 591.798C1008.34 613.524 1052.34 635.956 1100.59 649.971Z" fill="#B4B4B4"/>
</g>
</g>
<defs>
<clipPath id="clip0_1299_202">
<rect width="560" height="440" fill="white"/>
</clipPath>
</defs>
</svg>
