<svg width="32" height="32" viewBox="0 0 32 32" fill="none" xmlns="http://www.w3.org/2000/svg">
<path opacity="0.2" d="M16 32C24.8366 32 32 24.8366 32 16C32 7.16344 24.8366 0 16 0C7.16344 0 0 7.16344 0 16C0 24.8366 7.16344 32 16 32Z" fill="#188DBE"/>
<path fill-rule="evenodd" clip-rule="evenodd" d="M12.0772 21.8535V19.346H7.83984V16.5807H12.0772V10.0703H18.7165C21.369 10.2253 23.306 13.3255 20.3757 15.2786C23.9893 17.2739 21.5798 21.8535 18.7165 21.8535H12.0772Z" fill="#188DBE"/>
<path fill-rule="evenodd" clip-rule="evenodd" d="M17.8044 12.3818C19.5232 13.2276 18.7183 14.5321 17.668 14.7578H15.0391V12.3818H17.8044ZM18.2248 16.675H15.1854V19.3461H18.0735C19.2255 19.0919 20.1097 17.6323 18.2248 16.675Z" fill="#1B3B4C"/>
</svg>
