<svg width="32" height="32" viewBox="0 0 32 32" fill="none" xmlns="http://www.w3.org/2000/svg">
<path opacity="0.2" d="M16 32C24.8366 32 32 24.8366 32 16C32 7.16344 24.8366 0 16 0C7.16344 0 0 7.16344 0 16C0 24.8366 7.16344 32 16 32Z" fill="#F3BA2F"/>
<path fill-rule="evenodd" clip-rule="evenodd" d="M12.6552 14.6249L16.0018 11.2798L19.3498 14.6276L21.296 12.6802L16.0018 7.38477L10.7076 12.6788L12.6552 14.6249ZM7.38477 16.0004L9.33161 14.0537L11.2785 16.0004L9.33161 17.9472L7.38477 16.0004ZM16.0018 20.7219L12.6552 17.3754L10.7049 19.3201L10.7076 19.3229L16.0018 24.6155L21.296 19.3201L21.2974 19.3188L19.3498 17.374L16.0018 20.7219ZM20.7218 16.0009L22.6687 14.0541L24.6155 16.0009L22.6687 17.9477L20.7218 16.0009ZM16.0018 14.0234L17.9766 15.9995H17.9779L17.9766 16.0008L16.0018 17.9769L14.027 16.0036L14.0243 15.9995L14.027 15.9967L14.3727 15.6511L14.5415 15.4837L16.0018 14.0234Z" fill="#F3BA2F"/>
</svg>
