<svg width="32" height="32" viewBox="0 0 32 32" fill="none" xmlns="http://www.w3.org/2000/svg">
<path opacity="0.2" d="M31.52 19.8708C29.383 28.4423 20.701 33.6583 12.1285 31.5213C3.55999 29.3843 -1.65651 20.7023 0.480991 12.1313C2.61699 3.5588 11.2985 -1.6582 19.8685 0.478798C28.4405 2.6158 33.6565 11.2988 31.5195 19.8708H31.52Z" fill="#F7931A"/>
<path fill-rule="evenodd" clip-rule="evenodd" d="M20.8182 14.141C21.0339 12.6967 19.9343 11.9203 18.4306 11.4024L18.9184 9.44592L17.7271 9.14912L17.2523 11.054C16.9395 10.976 16.618 10.9024 16.2984 10.8295L16.7767 8.91203L15.5865 8.61523L15.0984 10.571C14.8392 10.512 14.5848 10.4537 14.3379 10.3923L14.3393 10.3862L12.6969 9.97608L12.3801 11.248C12.3801 11.248 13.2637 11.4505 13.245 11.4631C13.7274 11.5835 13.8149 11.9027 13.8 12.1557L13.2444 14.3846C13.2776 14.393 13.3207 14.4053 13.3682 14.4242L13.2427 14.393L12.4635 17.5153C12.4045 17.6618 12.2549 17.8816 11.9178 17.7982C11.9296 17.8155 11.0522 17.5821 11.0522 17.5821L10.4609 18.9457L12.011 19.332C12.186 19.3759 12.3589 19.421 12.5299 19.4656L12.5299 19.4656L12.5302 19.4657C12.6408 19.4945 12.7506 19.5232 12.8597 19.5511L12.3669 21.5303L13.5564 21.8271L14.0448 19.8693C14.3695 19.9575 14.6849 20.0389 14.9936 20.1156L14.5072 22.0642L15.6981 22.361L16.1909 20.3859C18.2217 20.7702 19.7491 20.6152 20.3911 18.7788C20.9091 17.2999 20.3657 16.4469 19.2972 15.8902C20.0754 15.7101 20.6615 15.1983 20.8179 14.141H20.8182ZM18.0968 17.9566C17.7588 19.3139 15.6337 18.7523 14.6623 18.4956L14.6622 18.4955C14.5752 18.4726 14.4975 18.452 14.4312 18.4355L15.0852 15.8139C15.1663 15.8342 15.2654 15.8564 15.3777 15.8816L15.3777 15.8816C16.3827 16.1071 18.4423 16.5693 18.0972 17.9566H18.0968ZM15.5797 14.6651C16.3903 14.8813 18.1571 15.3527 18.4649 14.1197C18.7795 12.8582 17.0615 12.478 16.2224 12.2923C16.1281 12.2715 16.0449 12.253 15.9769 12.2361L15.384 14.6139C15.4401 14.6278 15.5059 14.6454 15.5797 14.6651Z" fill="#F7931A"/>
</svg>
