<svg width="32" height="32" viewBox="0 0 32 32" fill="none" xmlns="http://www.w3.org/2000/svg">
<path opacity="0.2" d="M16 32C24.8366 32 32 24.8366 32 16C32 7.16344 24.8366 0 16 0C7.16344 0 0 7.16344 0 16C0 24.8366 7.16344 32 16 32Z" fill="#1C9EF8"/>
<path fill-rule="evenodd" clip-rule="evenodd" d="M14.1992 8.05708C13.8463 8.1397 13.4893 8.20412 13.1308 8.24893L13.121 8.33435C12.7191 8.43097 12.3256 8.5598 11.9517 8.73765C11.7962 8.83147 11.6338 8.91409 11.47 8.99391C11.2935 9.08213 11.1227 9.18015 10.9518 9.27958C10.8832 9.33015 10.8155 9.38168 10.7479 9.43317C10.632 9.52141 10.5162 9.60956 10.3959 9.69268C9.47727 10.3326 8.7757 11.2555 8.26878 12.2455C8.17775 12.464 8.08393 12.6824 7.98591 12.8981C7.9383 13.0913 7.88929 13.2845 7.84028 13.4778L7.84027 13.4778C7.82207 13.5492 7.78566 13.6907 7.76745 13.7607C7.60781 14.4818 7.60641 15.2506 7.76185 15.9718C7.88088 16.5165 8.04192 17.0515 8.26177 17.564C8.81491 18.6451 9.62011 19.5931 10.6115 20.2961C10.6524 20.3306 10.6973 20.3642 10.7429 20.3984C10.9099 20.5234 11.0871 20.656 11.1157 20.8716C11.135 21.21 11.1327 21.5487 11.1303 21.8873C11.1273 22.3319 11.1242 22.7764 11.1703 23.22C11.4896 23.2424 11.8004 23.1948 12.0735 23.0197C12.1986 22.9068 12.3353 22.808 12.4712 22.7098L12.488 22.6977C12.6426 22.6012 12.7943 22.5002 12.946 22.3991C13.0719 22.3153 13.1978 22.2314 13.3254 22.1501C13.8043 21.6404 14.5437 21.765 15.1515 21.9135C15.9614 21.9985 16.76 21.8337 17.5512 21.6705C17.7244 21.6348 17.8972 21.5991 18.0698 21.5662C20.1507 20.957 22.0187 19.5581 23.034 17.6228C23.0375 17.585 23.0424 17.5283 23.0473 17.4716C23.0522 17.4149 23.0571 17.3582 23.0606 17.3203L23.1978 17.3329C23.2174 17.2366 23.2374 17.1404 23.2575 17.0442C23.2962 16.8581 23.335 16.6722 23.3701 16.4857L23.4891 16.4913C23.4946 16.2596 23.5049 16.026 23.5152 15.7915C23.5627 14.714 23.6109 13.6184 23.1992 12.604C22.9864 12.1237 22.7287 11.6672 22.4416 11.2275C21.7639 10.292 20.841 9.59606 19.8818 8.9715C19.8062 8.9575 19.655 8.92809 19.5793 8.91269L19.5792 8.91261C19.5064 8.85937 19.3608 8.75302 19.2881 8.69844C18.8918 8.557 18.4941 8.41277 18.1034 8.25733C16.8277 7.97026 15.4917 7.77981 14.1992 8.05708ZM12.674 9.72275C12.7022 9.71237 12.7304 9.702 12.7583 9.69128C13.5327 9.43362 14.3309 9.17595 15.1571 9.20256C15.3022 9.20364 15.4481 9.20217 15.5942 9.2007C16.2063 9.19453 16.8229 9.18833 17.413 9.3692C19.2797 9.7627 20.9895 10.939 21.9095 12.6278C22.0888 13.0353 22.2316 13.4554 22.359 13.8797C22.4206 14.5897 22.4318 15.3024 22.3534 16.011C22.2904 16.2351 22.2316 16.4591 22.1756 16.6846C21.7919 17.48 21.3284 18.2614 20.6674 18.8579C20.0975 19.3396 19.4785 19.7681 18.7895 20.0636C18.6579 20.1238 18.5263 20.1854 18.3946 20.2471C18.2031 20.2995 18.0109 20.3493 17.8185 20.3992C17.7282 20.4226 17.6378 20.446 17.5474 20.4697C16.4896 20.8127 15.3708 20.71 14.2735 20.6092C14.0403 20.5878 13.808 20.5665 13.5775 20.5495C13.1854 20.8744 12.7653 21.1741 12.278 21.3379C12.2701 21.0726 12.2659 20.8082 12.2616 20.544C12.2605 20.4777 12.2595 20.4114 12.2583 20.3451C12.2037 20.2022 12.1505 20.0594 12.0973 19.9166C10.9 19.2654 9.86237 18.3006 9.26302 17.0627C9.23715 16.9904 9.21015 16.9182 9.1831 16.8458C9.04763 16.4835 8.91083 16.1175 8.90733 15.7254C8.90469 15.6166 8.90113 15.5073 8.89756 15.3977C8.87465 14.6946 8.85133 13.9788 9.06697 13.3028C9.12014 13.1758 9.17246 13.048 9.22459 12.9207C9.23975 12.8837 9.25488 12.8467 9.27002 12.8098C9.57529 12.2805 9.88757 11.7428 10.3217 11.3059C10.6708 10.9256 11.0921 10.6298 11.5128 10.3344C11.6421 10.2435 11.7714 10.1528 11.8985 10.0596C11.9755 10.047 12.1295 10.0204 12.2065 10.0064C12.3223 9.85206 12.4992 9.787 12.674 9.72275Z" fill="#1C9EF8"/>
<path fill-rule="evenodd" clip-rule="evenodd" d="M11.5304 14.2659C11.8805 14.2407 12.2306 14.2351 12.5821 14.2477C12.7151 14.3975 12.851 14.5474 12.9868 14.6944C12.984 14.9829 12.9756 15.2713 12.9602 15.5598C12.8482 15.6774 12.7361 15.7951 12.6269 15.9155C12.2572 15.9631 11.8861 15.9631 11.5164 15.9225C11.396 15.7671 11.2756 15.6116 11.1523 15.459C11.1565 15.2251 11.1649 14.9899 11.1747 14.756C11.2952 14.5936 11.4142 14.4311 11.5304 14.2659Z" fill="#1C9EF8"/>
<path fill-rule="evenodd" clip-rule="evenodd" d="M15.2346 14.2379C15.5791 14.2351 15.9222 14.2421 16.2653 14.2645C16.3829 14.4157 16.5019 14.567 16.6238 14.7168C16.6322 14.9745 16.6406 15.2321 16.649 15.4912C16.3521 15.8399 15.967 16.1157 15.4895 16.1017C15.25 15.9127 15.0176 15.7167 14.7949 15.5094C14.8005 15.2363 14.8047 14.9647 14.8103 14.693C14.9518 14.5418 15.0932 14.3891 15.2346 14.2379Z" fill="#1C9EF8"/>
<path fill-rule="evenodd" clip-rule="evenodd" d="M18.664 14.2676C19.0071 14.2438 19.3516 14.2354 19.6961 14.2354C19.8417 14.3838 19.9873 14.5336 20.1344 14.6821C20.1316 14.9747 20.1232 15.2688 20.1092 15.5629C19.9943 15.6805 19.8809 15.7981 19.7703 15.9186C19.4006 15.9634 19.0281 15.9606 18.6584 15.92C18.5422 15.7617 18.4232 15.6049 18.3041 15.4494C18.3027 15.2464 18.3027 15.0433 18.3027 14.8403C18.4246 14.6499 18.545 14.4594 18.664 14.2676Z" fill="#1C9EF8"/>
<path fill-rule="evenodd" clip-rule="evenodd" d="M23.6694 16.6748C24.2282 17.0137 24.3444 17.6915 24.5838 18.2474C24.5978 18.8509 24.7183 19.4923 24.4886 20.0692C24.483 20.1056 24.4746 20.1785 24.4704 20.2149C24.1091 21.1895 23.4342 22.0787 22.5197 22.5898C22.4903 23.1332 22.4959 23.6779 22.4903 24.2226C21.7369 24.3347 21.2888 23.6233 20.6545 23.3782C19.6742 23.3278 18.6394 23.5071 17.7068 23.1122C17.218 22.9077 16.6635 22.7355 16.3652 22.2608C17.0206 22.1235 17.7488 21.7706 18.3747 22.1908C19.1659 22.377 19.9795 22.405 20.7735 22.2216C20.8323 22.293 20.95 22.4358 21.0088 22.5086C21.139 22.5184 21.3981 22.5366 21.5283 22.5464C21.5255 22.4246 21.5199 22.1795 21.5171 22.0577C21.968 21.6348 22.5393 21.3309 22.8894 20.8058C23.1471 20.4571 23.3095 20.0496 23.409 19.6295C23.479 19.3186 23.493 18.998 23.4608 18.6801C23.2759 18.2754 23.2325 17.7755 23.4552 17.3778C23.528 17.1439 23.6036 16.9115 23.6694 16.6748Z" fill="#1C9EF8"/>
</svg>
