<svg width="32" height="32" viewBox="0 0 32 32" fill="none" xmlns="http://www.w3.org/2000/svg">
<path opacity="0.2" d="M16 32C24.8366 32 32 24.8366 32 16C32 7.16344 24.8366 0 16 0C7.16344 0 0 7.16344 0 16C0 24.8366 7.16344 32 16 32Z" fill="#009A82"/>
<path fill-rule="evenodd" clip-rule="evenodd" d="M18.0617 12.1075C19.2409 12.6972 19.2409 14.3801 18.0617 14.9697L10.9317 18.5347C9.86784 19.0666 8.61614 18.293 8.61614 17.1036L8.61614 9.97362C8.61614 8.78421 9.86784 8.01062 10.9317 8.54254L18.0617 12.1075Z" fill="#009A82"/>
<path fill-rule="evenodd" clip-rule="evenodd" d="M17.6317 19.8928C16.4524 19.3031 16.4524 17.6202 17.6317 17.0306L22.3001 14.6964C23.364 14.1645 24.6157 14.9381 24.6157 16.1275V20.7959C24.6157 21.9853 23.364 22.7589 22.3001 22.227L17.6317 19.8928Z" fill="#00BB62"/>
</svg>
