<svg width="70" height="75" viewBox="0 0 70 75" fill="none" xmlns="http://www.w3.org/2000/svg">
<g clip-path="url(#clip0_0_5381)">
<path d="M65.0892 60.6312C64.5611 64.529 61.922 67.9019 58.2266 69.4008C56.4162 70.1495 54.4559 70.3749 52.4948 70.1495C50.6098 69.9249 48.7241 69.3252 46.7638 68.2021C44.0486 66.7017 41.3334 64.3792 38.1661 60.9314C43.1438 54.8609 46.1596 49.3145 47.2912 44.3692C47.8193 42.0452 47.8946 39.9466 47.6686 37.9977C47.3673 36.1245 46.6885 34.4002 45.6322 32.9013C43.2944 29.5291 39.3731 27.5802 34.9989 27.5802C30.6247 27.5802 26.7033 29.604 24.3656 32.9013C23.3093 34.4002 22.6313 36.1245 22.3291 37.9977C22.0278 39.9466 22.1031 42.1201 22.7066 44.3692C23.8374 49.3145 26.9293 54.9358 31.8316 61.0056C28.7397 64.4541 25.9492 66.7774 23.234 68.2763C21.2736 69.4008 19.3879 70.0005 17.5029 70.2244C15.4665 70.4498 13.5055 70.1495 11.7712 69.4757C8.07579 67.9768 5.43667 64.6031 4.90854 60.7061C4.68253 58.8328 4.83321 56.9595 5.58735 54.8609C5.81336 54.1107 6.19081 53.3627 6.56751 52.4628C7.09563 51.2641 7.69909 49.9891 8.30181 48.7147L8.3779 48.5658C13.5808 37.398 19.1619 26.0064 24.969 14.915L25.195 14.4643C25.7985 13.3412 26.4012 12.1426 27.0054 11.018C27.6081 9.81857 28.2869 8.69401 29.1164 7.71919C30.7 5.92004 32.8118 4.94597 35.1496 4.94597C37.4873 4.94597 39.5991 5.92004 41.1827 7.71919C42.0122 8.69401 42.691 9.81857 43.2944 11.018C43.8979 12.1426 44.5006 13.3412 45.1041 14.4643L45.3308 14.915C51.0619 26.0813 56.643 37.4729 61.8466 48.6406V48.7147C62.4501 49.9142 62.9775 51.2641 63.5809 52.4628C63.9584 53.3627 64.3351 54.1107 64.5611 54.8609C65.1646 56.809 65.3906 58.6838 65.0892 60.6312ZM34.9989 57.1085C30.9268 52.0128 28.2869 47.2158 27.3821 43.1698C27.0054 41.4455 26.9293 39.9466 27.1561 38.5974C27.3068 37.398 27.7596 36.3483 28.3623 35.4484C29.7952 33.4269 32.2083 32.1503 34.9989 32.1503C37.7894 32.1503 40.2779 33.3505 41.6355 35.4484C42.2382 36.3483 42.691 37.398 42.8417 38.5974C43.0677 39.9466 42.9923 41.5204 42.6156 43.1698C41.7108 47.1417 39.0709 51.9379 34.9989 57.1085ZM69.0106 53.2115C68.6339 52.3123 68.2565 51.3382 67.8798 50.5139C67.2763 49.1655 66.6728 47.8904 66.1447 46.691L66.0694 46.6169C60.8665 35.3743 55.2854 23.9826 49.4029 12.7423L49.1769 12.2916C48.5734 11.167 47.97 9.96756 47.3673 8.76888C46.6124 7.41896 45.8582 5.99641 44.652 4.64649C42.2382 1.64866 38.7696 0 35.0742 0C31.3035 0 27.9102 1.64866 25.4211 4.49749C24.2902 5.84592 23.4607 7.26996 22.7066 8.61989C22.1031 9.81857 21.4997 11.018 20.8962 12.1426L20.6702 12.591C14.8638 23.8329 9.20738 35.2253 4.00373 46.4671L3.92839 46.6169C3.40026 47.8155 2.7968 49.0891 2.19333 50.439C1.81664 51.2641 1.43919 52.1633 1.0625 53.1374C0.0815848 55.9098 -0.219771 58.5333 0.156924 61.2309C0.987158 66.8522 4.75787 71.5743 9.96152 73.6722C11.9218 74.4973 13.9582 74.8716 16.07 74.8716C16.6735 74.8716 17.4276 74.7968 18.0311 74.7212C20.5195 74.4209 23.0833 73.5981 25.5717 72.1733C28.6644 70.4498 31.6056 67.9768 34.9235 64.3792C38.2415 67.9768 41.258 70.4498 44.2746 72.1733C46.7638 73.5981 49.3276 74.4209 51.816 74.7212C52.4195 74.7968 53.1736 74.8716 53.7771 74.8716C55.8888 74.8716 57.9998 74.4973 59.8856 73.6722C65.1646 71.5743 68.8599 66.7774 69.6894 61.2309C70.2929 58.6074 69.9908 55.9855 69.0106 53.2115Z" fill="#FF385C"/>
</g>
<defs>
<clipPath id="clip0_0_5381">
<rect width="70" height="75" fill="white"/>
</clipPath>
</defs>
</svg>
