<svg width="75" height="75" viewBox="0 0 75 75" fill="none" xmlns="http://www.w3.org/2000/svg">
<path d="M70.5 38.2813C70.5 35.8438 70.2813 33.5 69.875 31.25H37.5V44.5469H56C55.2031 48.8438 52.7813 52.4844 49.1406 54.9219V63.5469H60.25C66.75 57.5625 70.5 48.75 70.5 38.2813Z" fill="#4285F4"/>
<path d="M37.5 71.875C46.7812 71.875 54.5625 68.7969 60.25 63.5469L49.1406 54.9219C46.0625 56.9844 42.125 58.2031 37.5 58.2031C28.5469 58.2031 20.9687 52.1562 18.2656 44.0312H6.78125V52.9375C12.4375 64.1719 24.0625 71.875 37.5 71.875Z" fill="#34A853"/>
<path d="M18.2656 44.0312C17.5781 41.9688 17.1875 39.7656 17.1875 37.5C17.1875 35.2344 17.5781 33.0312 18.2656 30.9688V22.0625H6.78125C4.375 26.8527 3.12288 32.1394 3.125 37.5C3.125 43.0469 4.45313 48.2969 6.78125 52.9375L18.2656 44.0312Z" fill="#FBBC05"/>
<path d="M37.5 16.7969C42.5469 16.7969 47.0781 18.5312 50.6406 21.9375L60.5 12.0781C54.5469 6.53125 46.7656 3.125 37.5 3.125C24.0625 3.125 12.4375 10.8281 6.78125 22.0625L18.2656 30.9688C20.9688 22.8438 28.5469 16.7969 37.5 16.7969Z" fill="#EA4335"/>
</svg>
