<svg width="1614" height="1105" viewBox="0 0 1614 1105" fill="none" xmlns="http://www.w3.org/2000/svg">
<g clip-path="url(#clip0_631_5)">
<rect width="1614" height="1105" fill="white"/>
<rect width="1614" height="1105" fill="#1C191A"/>
<path d="M193.798 553.85L770.5 335V497.798L190.5 715L193.798 553.85Z" fill="#F6E7D8"/>
<path d="M354.037 620L770.5 775.907V938L190.5 714.039L354.037 620Z" fill="#F6E7D8"/>
<path d="M1367.5 395.072L771.5 176L771.5 346.39L1367.5 570L1367.5 395.072Z" fill="#F14902"/>
<path d="M1201.2 461L770.5 617.382V806L1369.5 573.383L1201.2 461Z" fill="#F14902"/>
<path d="M864.375 804H919.375V814.062H897.562V885H919.375V895H864.375V885H885.688V814.062H864.375V804ZM970.062 886.875C972.146 886.875 974.167 886.542 976.125 885.875C978.125 885.208 979.896 884.271 981.438 883.062C982.979 881.896 984.208 880.521 985.125 878.938C986.083 877.312 986.583 875.562 986.625 873.688H997.562C997.521 876.688 996.729 879.562 995.188 882.312C993.688 885.021 991.667 887.396 989.125 889.438C986.583 891.521 983.667 893.188 980.375 894.438C977.083 895.646 973.646 896.25 970.062 896.25C964.938 896.25 960.458 895.333 956.625 893.5C952.792 891.667 949.604 889.188 947.062 886.062C944.479 882.979 942.542 879.417 941.25 875.375C939.958 871.292 939.312 867 939.312 862.5V859.875C939.312 855.417 939.958 851.146 941.25 847.062C942.542 842.979 944.479 839.375 947.062 836.25C949.604 833.167 952.792 830.708 956.625 828.875C960.458 827.042 964.938 826.125 970.062 826.125C974.062 826.125 977.729 826.771 981.062 828.062C984.438 829.312 987.354 831.021 989.812 833.188C992.229 835.396 994.125 838 995.5 841C996.875 844 997.562 847.208 997.562 850.625H986.625C986.583 848.583 986.125 846.667 985.25 844.875C984.417 843.042 983.271 841.438 981.812 840.062C980.354 838.688 978.604 837.604 976.562 836.812C974.562 836.021 972.396 835.625 970.062 835.625C966.479 835.625 963.458 836.354 961 837.812C958.583 839.229 956.625 841.083 955.125 843.375C953.625 845.708 952.542 848.312 951.875 851.188C951.25 854.062 950.938 856.958 950.938 859.875V862.5C950.938 865.458 951.25 868.396 951.875 871.312C952.542 874.188 953.625 876.771 955.125 879.062C956.583 881.396 958.521 883.292 960.938 884.75C963.396 886.167 966.438 886.875 970.062 886.875ZM1014.88 860.562C1014.88 855.688 1015.58 851.167 1017 847C1018.42 842.792 1020.46 839.146 1023.12 836.062C1025.75 832.979 1028.96 830.562 1032.75 828.812C1036.54 827.021 1040.81 826.125 1045.56 826.125C1050.35 826.125 1054.65 827.021 1058.44 828.812C1062.27 830.562 1065.52 832.979 1068.19 836.062C1070.81 839.146 1072.83 842.792 1074.25 847C1075.67 851.167 1076.38 855.688 1076.38 860.562V861.938C1076.38 866.812 1075.67 871.333 1074.25 875.5C1072.83 879.667 1070.81 883.292 1068.19 886.375C1065.52 889.458 1062.29 891.875 1058.5 893.625C1054.71 895.375 1050.44 896.25 1045.69 896.25C1040.9 896.25 1036.58 895.375 1032.75 893.625C1028.96 891.875 1025.75 889.458 1023.12 886.375C1020.46 883.292 1018.42 879.667 1017 875.5C1015.58 871.333 1014.88 866.812 1014.88 861.938V860.562ZM1026.44 861.938C1026.44 865.271 1026.83 868.458 1027.62 871.5C1028.42 874.5 1029.62 877.146 1031.25 879.438C1032.83 881.729 1034.83 883.542 1037.25 884.875C1039.67 886.208 1042.48 886.875 1045.69 886.875C1048.85 886.875 1051.62 886.208 1054 884.875C1056.42 883.542 1058.44 881.729 1060.06 879.438C1061.65 877.146 1062.83 874.5 1063.62 871.5C1064.42 868.458 1064.81 865.271 1064.81 861.938V860.562C1064.81 857.271 1064.4 854.125 1063.56 851.125C1062.77 848.083 1061.58 845.417 1060 843.125C1058.38 840.833 1056.35 839.021 1053.94 837.688C1051.56 836.312 1048.77 835.625 1045.56 835.625C1042.35 835.625 1039.56 836.312 1037.19 837.688C1034.81 839.021 1032.83 840.833 1031.25 843.125C1029.62 845.417 1028.42 848.083 1027.62 851.125C1026.83 854.125 1026.44 857.271 1026.44 860.562V861.938ZM1139.31 826.125C1141.44 826.125 1143.65 826.271 1145.94 826.562C1148.27 826.854 1150.02 827.25 1151.19 827.75L1149.62 839.062C1147.38 838.562 1145.23 838.208 1143.19 838C1141.19 837.75 1139.08 837.625 1136.88 837.625C1134.04 837.625 1131.48 837.979 1129.19 838.688C1126.9 839.354 1124.9 840.354 1123.19 841.688C1121.65 842.854 1120.29 844.292 1119.12 846C1118 847.667 1117.06 849.542 1116.31 851.625V895H1104.69V827.375H1115.69L1116.19 836.438L1116.25 838.125C1119 834.417 1122.29 831.5 1126.12 829.375C1130 827.208 1134.4 826.125 1139.31 826.125ZM1171.88 895V827.375H1182.25L1183.06 837.375C1184.06 835.958 1185.15 834.667 1186.31 833.5C1187.52 832.292 1188.79 831.25 1190.12 830.375C1192.12 829.042 1194.29 828.021 1196.62 827.312C1199 826.562 1201.5 826.167 1204.12 826.125C1207.67 826.125 1210.88 826.625 1213.75 827.625C1216.67 828.625 1219.15 830.188 1221.19 832.312C1223.23 834.438 1224.79 837.146 1225.88 840.438C1227 843.688 1227.56 847.562 1227.56 852.062V895H1216V852.312C1216 849.312 1215.67 846.771 1215 844.688C1214.33 842.604 1213.35 840.917 1212.06 839.625C1210.73 838.333 1209.1 837.396 1207.19 836.812C1205.31 836.229 1203.15 835.938 1200.69 835.938C1198.56 835.938 1196.58 836.25 1194.75 836.875C1192.92 837.458 1191.23 838.271 1189.69 839.312C1188.44 840.229 1187.27 841.292 1186.19 842.5C1185.15 843.708 1184.23 845.042 1183.44 846.5V895H1171.88ZM1292.19 871.438H1261.81L1254.5 895H1242.94L1272.31 804H1282L1310.88 895H1299.38L1292.19 871.438ZM1264.94 861.375H1289.12L1277.12 821.875L1264.94 861.375Z" fill="#F6E7D8"/>
</g>
<defs>
<clipPath id="clip0_631_5">
<rect width="1614" height="1105" fill="white"/>
</clipPath>
</defs>
</svg>
