<svg width="2593" height="1679" viewBox="0 0 2593 1679" fill="none" xmlns="http://www.w3.org/2000/svg">
<g filter="url(#filter0_d_5_20)">
<path d="M11.2329 828.166L1276 349V705.442L4 1181L11.2329 828.166Z" fill="#F6E7D8"/>
<path d="M362.654 974L1276 1315.72V1671L4 1180.12L362.654 974Z" fill="#F6E7D8"/>
<path d="M2585 479.845L1277 0V373.215L2585 863V479.845Z" fill="#F14902"/>
<path d="M2220.09 624L1276 967.587V1382L2589 870.917L2220.09 624Z" fill="#F14902"/>
<path d="M1482 1376H1602.59V1398.14H1554.77V1554.24H1602.59V1576.25H1482V1554.24H1528.73V1398.14H1482V1376ZM1713.73 1558.37C1718.3 1558.37 1722.73 1557.64 1727.02 1556.17C1731.41 1554.7 1735.29 1552.64 1738.67 1549.98C1742.05 1547.41 1744.74 1544.39 1746.75 1540.9C1748.86 1537.33 1749.95 1533.48 1750.04 1529.35H1774.02C1773.93 1535.95 1772.2 1542.28 1768.82 1548.33C1765.53 1554.29 1761.1 1559.52 1755.52 1564.01C1749.95 1568.59 1743.56 1572.26 1736.34 1575.01C1729.12 1577.67 1721.59 1579 1713.73 1579C1702.49 1579 1692.67 1576.98 1684.27 1572.95C1675.86 1568.91 1668.87 1563.46 1663.3 1556.58C1657.63 1549.8 1653.39 1541.96 1650.55 1533.06C1647.72 1524.08 1646.31 1514.63 1646.31 1504.73V1498.96C1646.31 1489.15 1647.72 1479.75 1650.55 1470.76C1653.39 1461.77 1657.63 1453.84 1663.3 1446.97C1668.87 1440.18 1675.86 1434.77 1684.27 1430.74C1692.67 1426.7 1702.49 1424.69 1713.73 1424.69C1722.5 1424.69 1730.54 1426.11 1737.85 1428.95C1745.25 1431.7 1751.64 1435.46 1757.03 1440.23C1762.33 1445.09 1766.49 1450.82 1769.5 1457.42C1772.52 1464.02 1774.02 1471.08 1774.02 1478.6H1750.04C1749.95 1474.11 1748.95 1469.89 1747.03 1465.95C1745.2 1461.91 1742.69 1458.38 1739.49 1455.36C1736.29 1452.33 1732.46 1449.95 1727.98 1448.2C1723.59 1446.46 1718.85 1445.59 1713.73 1445.59C1705.87 1445.59 1699.25 1447.2 1693.86 1450.4C1688.56 1453.52 1684.27 1457.6 1680.98 1462.65C1677.69 1467.78 1675.31 1473.51 1673.85 1479.84C1672.48 1486.16 1671.8 1492.54 1671.8 1498.96V1504.73C1671.8 1511.24 1672.48 1517.71 1673.85 1524.12C1675.31 1530.45 1677.69 1536.14 1680.98 1541.18C1684.17 1546.31 1688.42 1550.49 1693.72 1553.69C1699.11 1556.81 1705.78 1558.37 1713.73 1558.37ZM1811.99 1500.47C1811.99 1489.74 1813.53 1479.79 1816.64 1470.62C1819.76 1461.36 1824.23 1453.34 1830.06 1446.55C1835.83 1439.77 1842.87 1434.45 1851.18 1430.6C1859.49 1426.66 1868.85 1424.69 1879.26 1424.69C1889.77 1424.69 1899.19 1426.66 1907.5 1430.6C1915.9 1434.45 1923.03 1439.77 1928.88 1446.55C1934.63 1453.34 1939.06 1461.36 1942.17 1470.62C1945.28 1479.79 1946.84 1489.74 1946.84 1500.47V1503.49C1946.84 1514.22 1945.28 1524.17 1942.17 1533.34C1939.06 1542.51 1934.63 1550.49 1928.88 1557.27C1923.03 1564.05 1915.95 1569.37 1907.64 1573.22C1899.33 1577.07 1889.96 1579 1879.55 1579C1869.05 1579 1859.57 1577.07 1851.18 1573.22C1842.87 1569.37 1835.83 1564.05 1830.06 1557.27C1824.23 1550.49 1819.76 1542.51 1816.64 1533.34C1813.53 1524.17 1811.99 1514.22 1811.99 1503.49V1500.47ZM1837.34 1503.49C1837.34 1510.83 1838.2 1517.84 1839.93 1524.54C1841.68 1531.14 1844.31 1536.96 1847.89 1542C1851.35 1547.05 1855.74 1551.04 1861.04 1553.97C1866.35 1556.9 1872.51 1558.37 1879.55 1558.37C1886.48 1558.37 1892.55 1556.9 1897.77 1553.97C1903.07 1551.04 1907.5 1547.05 1911.06 1542C1914.54 1536.96 1917.13 1531.14 1918.86 1524.54C1920.62 1517.84 1921.47 1510.83 1921.47 1503.49V1500.47C1921.47 1493.23 1920.57 1486.3 1918.73 1479.7C1917 1473.01 1914.39 1467.14 1910.92 1462.1C1907.37 1457.05 1902.92 1453.07 1897.64 1450.13C1892.42 1447.1 1886.3 1445.59 1879.26 1445.59C1872.23 1445.59 1866.11 1447.1 1860.91 1450.13C1855.69 1453.07 1851.35 1457.05 1847.89 1462.1C1844.31 1467.14 1841.68 1473.01 1839.93 1479.7C1838.2 1486.3 1837.34 1493.23 1837.34 1500.47V1503.49ZM2084.82 1424.69C2089.49 1424.69 2094.33 1425.01 2099.35 1425.65C2104.46 1426.29 2108.3 1427.16 2110.87 1428.26L2107.42 1453.16C2102.51 1452.06 2097.8 1451.28 2093.33 1450.82C2088.94 1450.27 2084.31 1449.99 2079.49 1449.99C2073.26 1449.99 2067.65 1450.77 2062.63 1452.33C2057.61 1453.8 2053.22 1456 2049.47 1458.93C2046.1 1461.5 2043.12 1464.66 2040.55 1468.42C2038.09 1472.09 2036.03 1476.22 2034.39 1480.8V1576.25H2008.91V1427.44H2033.03L2034.13 1447.38L2034.26 1451.09C2040.29 1442.93 2047.5 1436.51 2055.9 1431.84C2064.41 1427.07 2074.05 1424.69 2084.82 1424.69ZM2156.23 1576.25V1427.44H2178.97L2180.74 1449.44C2182.94 1446.32 2185.33 1443.48 2187.87 1440.92C2190.52 1438.26 2193.31 1435.96 2196.22 1434.04C2200.61 1431.11 2205.37 1428.86 2210.48 1427.3C2215.69 1425.65 2221.18 1424.78 2226.92 1424.69C2234.7 1424.69 2241.74 1425.79 2248.03 1427.99C2254.44 1430.19 2259.87 1433.63 2264.35 1438.3C2268.82 1442.98 2272.24 1448.94 2274.63 1456.18C2277.09 1463.34 2278.31 1471.86 2278.31 1481.76V1576.25H2252.97V1482.31C2252.97 1475.71 2252.24 1470.12 2250.77 1465.54C2249.31 1460.95 2247.16 1457.24 2244.33 1454.39C2241.41 1451.55 2237.84 1449.49 2233.65 1448.2C2229.53 1446.92 2224.79 1446.28 2219.4 1446.28C2214.73 1446.28 2210.39 1446.97 2206.38 1448.34C2202.36 1449.63 2198.66 1451.41 2195.28 1453.71C2192.54 1455.72 2189.97 1458.06 2187.61 1460.72C2185.33 1463.38 2183.31 1466.31 2181.58 1469.52V1576.25H2156.23ZM2420.02 1524.4H2353.41L2337.38 1576.25H2312.04L2376.43 1376H2397.68L2461 1576.25H2435.79L2420.02 1524.4ZM2360.27 1502.26H2413.29L2386.98 1415.33L2360.27 1502.26Z" fill="#F6E7D8"/>
</g>
<defs>
<filter id="filter0_d_5_20" x="0" y="0" width="2593" height="1679" filterUnits="userSpaceOnUse" color-interpolation-filters="sRGB">
<feFlood flood-opacity="0" result="BackgroundImageFix"/>
<feColorMatrix in="SourceAlpha" type="matrix" values="0 0 0 0 0 0 0 0 0 0 0 0 0 0 0 0 0 0 127 0" result="hardAlpha"/>
<feOffset dy="4"/>
<feGaussianBlur stdDeviation="2"/>
<feComposite in2="hardAlpha" operator="out"/>
<feColorMatrix type="matrix" values="0 0 0 0 0 0 0 0 0 0 0 0 0 0 0 0 0 0 0.25 0"/>
<feBlend mode="normal" in2="BackgroundImageFix" result="effect1_dropShadow_5_20"/>
<feBlend mode="normal" in="SourceGraphic" in2="effect1_dropShadow_5_20" result="shape"/>
</filter>
</defs>
</svg>
