<svg width="63" height="75" viewBox="0 0 63 75" fill="none" xmlns="http://www.w3.org/2000/svg">
<path d="M53.735 17.25C53.735 26.54 45.0586 37.5 31.931 37.5H19.2858L18.6651 41.37L15.715 60H0L9.45397 0H34.9148C43.4883 0 50.2334 4.72167 52.7179 11.2833C53.4345 13.1911 53.7796 15.2155 53.735 17.25Z" fill="#002991"/>
<path d="M62.7928 34.5C61.9541 39.5357 59.329 44.1121 55.3875 47.4101C51.4461 50.708 46.4454 52.5123 41.2806 52.5H32.4996L28.8445 75H13.2139L15.7152 60L18.667 41.37L19.286 37.5H31.9312C45.042 37.5 53.7352 26.54 53.7352 17.25C60.1869 20.54 63.9482 27.1883 62.7928 34.5Z" fill="#60CDFF"/>
<path d="M53.7354 17.25C51.0299 15.8517 47.7493 15 44.1785 15H22.8586L19.2861 37.5H31.9313C45.0421 37.5 53.7354 26.54 53.7354 17.25Z" fill="#008CFF"/>
</svg>
