<svg width="76" height="76" viewBox="0 0 76 76" fill="none" xmlns="http://www.w3.org/2000/svg">
<g clip-path="url(#clip0_0_5399)">
<path d="M38 0.5C17.29 0.5 0.5 17.29 0.5 38C0.5 48.3564 4.69824 57.7314 11.4834 64.5166L4.34082 71.6592C2.92285 73.0771 3.92773 75.5 5.93164 75.5H38C58.71 75.5 75.5 58.71 75.5 38C75.5 17.29 58.71 0.5 38 0.5Z" fill="#FF4500"/>
<path d="M45.6289 18.1836C46.2793 20.9404 48.7549 22.9941 51.7109 22.9941C55.1621 22.9941 57.96 20.1963 57.96 16.7451C57.96 13.2939 55.1621 10.4961 51.7109 10.4961C48.6934 10.4961 46.1768 12.6348 45.5908 15.4795C40.5371 16.0215 36.5908 20.3076 36.5908 25.502C36.5908 25.5137 36.5908 25.5225 36.5908 25.5342C31.0947 25.7656 26.0762 27.3301 22.0918 29.7998C20.6123 28.6543 18.7549 27.9717 16.7393 27.9717C11.9023 27.9717 7.98242 31.8916 7.98242 36.7285C7.98242 40.2383 10.0449 43.2617 13.0244 44.6592C13.3145 54.8252 24.3916 63.002 38.0176 63.002C51.6436 63.002 62.7353 54.8164 63.0107 44.6416C65.9668 43.2354 68.0117 40.2207 68.0117 36.7314C68.0117 31.8945 64.0918 27.9746 59.2549 27.9746C57.2481 27.9746 55.3994 28.6514 53.9229 29.7881C49.9033 27.3008 44.8291 25.7363 39.2773 25.5283C39.2773 25.5195 39.2773 25.5137 39.2773 25.5049C39.2773 21.7842 42.043 18.6963 45.6289 18.1895V18.1836ZM21.7402 42.2861C21.8867 39.1104 23.9961 36.6729 26.4482 36.6729C28.9004 36.6729 30.7754 39.2481 30.6289 42.4238C30.4824 45.5996 28.6514 46.7539 26.1963 46.7539C23.7412 46.7539 21.5938 45.4619 21.7402 42.2861ZM49.5898 36.6729C52.0449 36.6729 54.1543 39.1104 54.2979 42.2861C54.4443 45.4619 52.2939 46.7539 49.8418 46.7539C47.3896 46.7539 45.5557 45.6025 45.4092 42.4238C45.2627 39.2481 47.1348 36.6729 49.5898 36.6729ZM46.6719 49.6338C47.1318 49.6807 47.4248 50.1582 47.2461 50.5859C45.7373 54.1924 42.1748 56.7266 38.0176 56.7266C33.8604 56.7266 30.3008 54.1924 28.7891 50.5859C28.6103 50.1582 28.9033 49.6807 29.3633 49.6338C32.0586 49.3613 34.9736 49.2119 38.0176 49.2119C41.0615 49.2119 43.9736 49.3613 46.6719 49.6338Z" fill="white"/>
</g>
<defs>
<clipPath id="clip0_0_5399">
<rect x="0.5" y="0.5" width="75" height="75" rx="16" fill="white"/>
</clipPath>
</defs>
</svg>
