<svg width="75" height="75" viewBox="0 0 75 75" fill="none" xmlns="http://www.w3.org/2000/svg">
<g clip-path="url(#clip0_0_5403)">
<path d="M63.0496 0C69.6485 0 75 5.35039 75 11.9515V63.0496C75 69.6485 69.6485 75 63.0496 75H11.9515C5.35149 75 0 69.6485 0 63.0496V11.9515C0 5.35039 5.35149 0 11.9515 0H63.0496Z" fill="#FFFC00"/>
<path d="M62.7865 50.3568C62.5655 49.6253 61.5077 49.1096 61.5077 49.1096C61.4077 49.0569 61.3182 49.0096 61.2445 48.9727C59.4816 48.1202 57.9185 47.094 56.6029 45.9309C55.5451 44.9942 54.6399 43.9627 53.9136 42.8681C53.0243 41.5313 52.6085 40.4156 52.4296 39.8104C52.3296 39.4157 52.3454 39.2579 52.4296 39.0526C52.498 38.8789 52.7032 38.7158 52.798 38.6369C53.3926 38.2159 54.3504 37.5949 54.9399 37.2159C55.4503 36.8844 55.8871 36.6002 56.145 36.4213C56.9713 35.8424 57.5396 35.253 57.8712 34.6162C58.3027 33.7952 58.3553 32.89 58.0185 32.0006C57.5659 30.8007 56.445 30.085 55.0188 30.085C54.703 30.085 54.3768 30.1219 54.0505 30.1903C53.2348 30.3692 52.4611 30.6587 51.8138 30.9113C51.7665 30.9323 51.7138 30.8955 51.7191 30.8428C51.7875 29.2377 51.8665 27.08 51.6875 25.0329C51.5297 23.1804 51.1455 21.6174 50.5245 20.2544C49.8982 18.8861 49.0825 17.8756 48.4457 17.1441C47.8405 16.4494 46.7722 15.4232 45.1618 14.5023C42.8989 13.2076 40.3202 12.5498 37.4994 12.5498C34.6838 12.5498 32.1104 13.2076 29.8422 14.5023C28.1371 15.4758 27.0477 16.5757 26.553 17.1441C25.9162 17.8756 25.1005 18.8861 24.4743 20.2544C23.848 21.6174 23.4691 23.1751 23.3112 25.0329C23.1323 27.0906 23.206 29.0746 23.2796 30.8428C23.2796 30.8955 23.2323 30.9323 23.1796 30.9113C22.5323 30.6587 21.7587 30.3692 20.943 30.1903C20.622 30.1219 20.2957 30.085 19.9747 30.085C18.5538 30.085 17.4328 30.8007 16.975 32.0006C16.6381 32.89 16.6908 33.7952 17.1223 34.6162C17.4591 35.253 18.0222 35.8424 18.8485 36.4213C19.1011 36.6002 19.5431 36.8844 20.0536 37.2159C20.6273 37.5896 21.5587 38.1948 22.1587 38.6105C22.2324 38.6632 22.485 38.8526 22.5639 39.0526C22.6481 39.2631 22.6639 39.421 22.5534 39.842C22.3692 40.4525 21.9534 41.5576 21.0798 42.8681C20.3536 43.9679 19.4484 44.9942 18.3906 45.9309C17.0749 47.094 15.5119 48.1202 13.7489 48.9727C13.6647 49.0149 13.5647 49.0622 13.4595 49.1254C13.4595 49.1254 12.407 49.6622 12.207 50.3568C11.9123 51.3831 12.6964 52.3461 13.4911 52.8619C14.7962 53.7039 16.3855 54.1565 17.3065 54.4038C17.5644 54.4722 17.7959 54.5354 18.0064 54.5985C18.138 54.6406 18.4696 54.7669 18.6116 54.9511C18.7906 55.1827 18.8116 55.4669 18.8748 55.7879C18.9748 56.33 19.2011 56.9983 19.8694 57.4614C20.6062 57.9667 21.5377 58.0035 22.7218 58.0509C23.9585 58.0982 25.4952 58.1561 27.2582 58.7403C28.0739 59.0087 28.816 59.4665 29.6685 59.9928C31.4578 61.0927 33.6839 62.461 37.4836 62.461C41.2885 62.461 43.5304 61.0874 45.3302 59.9823C46.1828 59.4613 46.9143 59.0087 47.7142 58.7455C49.4772 58.1614 51.0139 58.1035 52.2506 58.0561C53.4347 58.0088 54.3662 57.9772 55.103 57.4667C55.8187 56.972 56.024 56.2352 56.1187 55.6827C56.1713 55.409 56.2029 55.1617 56.3608 54.9617C56.4976 54.788 56.8028 54.667 56.9449 54.6196C57.1607 54.5512 57.4028 54.488 57.6712 54.4144C58.5922 54.167 59.7499 53.8776 61.1551 53.0829C62.8497 52.1198 62.9654 50.941 62.7865 50.3568Z" fill="white"/>
<path d="M64.2497 49.7882C63.8761 48.7672 63.1603 48.2252 62.3499 47.7726C62.1973 47.6831 62.0552 47.6094 61.9394 47.5568C61.6973 47.4305 61.45 47.3094 61.2026 47.1831C58.6713 45.8412 56.6925 44.1466 55.3242 42.1415C54.8611 41.4626 54.5401 40.8521 54.3138 40.3522C54.198 40.0154 54.2033 39.8259 54.2875 39.6523C54.3506 39.5207 54.519 39.3839 54.6138 39.3155C55.0506 39.026 55.4979 38.7366 55.8031 38.5418C56.3452 38.1892 56.7767 37.9103 57.0504 37.7209C58.0924 36.9946 58.8186 36.221 59.2712 35.3579C59.9133 34.1422 59.9922 32.7529 59.4975 31.4478C58.8134 29.6374 57.0977 28.5112 55.0243 28.5112C54.5927 28.5112 54.1559 28.5586 53.7244 28.6533C53.6086 28.6796 53.4981 28.7059 53.3876 28.7322C53.4086 27.5008 53.377 26.1851 53.2665 24.901C52.8771 20.3751 51.293 18.0016 49.6405 16.1123C48.9511 15.3229 47.7512 14.1704 45.9514 13.1389C43.4411 11.697 40.5993 10.9707 37.4996 10.9707C34.4104 10.9707 31.5685 11.697 29.0582 13.1337C27.2479 14.1651 26.048 15.3229 25.3638 16.1071C23.7114 17.9964 22.1273 20.3698 21.7379 24.8957C21.6273 26.1798 21.601 27.4955 21.6168 28.727C21.5063 28.7006 21.3905 28.6743 21.28 28.648C20.8485 28.5533 20.4064 28.5059 19.9801 28.5059C17.9066 28.5059 16.191 29.6321 15.5069 31.4425C15.0122 32.7476 15.0911 34.137 15.7331 35.3527C16.1857 36.2157 16.9173 36.9893 17.954 37.7156C18.2329 37.9103 18.6592 38.1892 19.2013 38.5366C19.496 38.726 19.9222 39.005 20.3432 39.2839C20.4064 39.326 20.6327 39.4944 20.7116 39.6523C20.8011 39.8312 20.8011 40.0259 20.6695 40.3838C20.4485 40.8732 20.1275 41.4731 19.6749 42.1362C18.3329 44.0992 16.412 45.7622 13.9649 47.0884C12.665 47.7778 11.3178 48.2357 10.7494 49.7829C10.3179 50.9512 10.602 52.2827 11.6914 53.4036C12.0493 53.7878 12.5019 54.1299 13.0702 54.4456C14.407 55.1824 15.5437 55.5455 16.4383 55.7929C16.5962 55.8402 16.9594 55.956 17.1172 56.0981C17.5172 56.4454 17.4593 56.9717 17.9908 57.7401C18.3119 58.219 18.6802 58.5453 18.9855 58.7558C20.0959 59.5241 21.3484 59.5715 22.6746 59.6241C23.8692 59.6715 25.227 59.7241 26.7742 60.2346C27.4163 60.4451 28.0846 60.8556 28.853 61.3292C30.7054 62.4712 33.2473 64.029 37.4943 64.029C41.7465 64.029 44.2989 62.4607 46.1672 61.3187C46.9355 60.8503 47.5986 60.4398 48.2196 60.2346C49.7668 59.7241 51.1246 59.6715 52.3192 59.6241C53.6454 59.5715 54.8927 59.5241 56.0084 58.7558C56.3557 58.5137 56.7978 58.119 57.1451 57.519C57.524 56.8717 57.5188 56.4139 57.8766 56.1034C58.024 55.9771 58.345 55.8666 58.5187 55.8139C59.4186 55.5666 60.5711 55.2035 61.9341 54.4509C62.5393 54.1193 63.0077 53.7562 63.3814 53.3405C63.3866 53.3352 63.3919 53.3299 63.3972 53.3247C64.4129 52.2195 64.6707 50.9302 64.2497 49.7882ZM60.4764 51.8143C58.1713 53.0879 56.6399 52.951 55.4505 53.7141C54.4401 54.3667 55.0348 55.7718 54.3033 56.277C53.3981 56.9033 50.7299 56.2349 47.2829 57.3717C44.441 58.3137 42.6254 61.0134 37.5048 61.0134C32.3737 61.0134 30.6107 58.3242 27.7268 57.3717C24.2797 56.2349 21.6063 56.9033 20.7064 56.277C19.9749 55.7718 20.5695 54.3667 19.5591 53.7141C18.3697 52.9458 16.8383 53.0826 14.5333 51.8143C13.065 51.0038 13.8965 50.5039 14.3859 50.2671C22.7325 46.2306 24.0587 39.9891 24.1218 39.5207C24.1955 38.9629 24.2745 38.5208 23.6587 37.9472C23.0641 37.3946 20.4169 35.7579 19.6854 35.2474C18.4697 34.4001 17.9382 33.5528 18.3329 32.5108C18.6066 31.7898 19.2802 31.5214 19.9907 31.5214C20.2117 31.5214 20.438 31.5477 20.6537 31.5951C21.9852 31.8846 23.2798 32.5529 24.0271 32.7318C24.1324 32.7582 24.2218 32.7687 24.3008 32.7687C24.7007 32.7687 24.8376 32.5687 24.8113 32.1109C24.7271 30.6531 24.5165 27.8113 24.7481 25.1536C25.0639 21.5013 26.2427 19.691 27.6426 18.0858C28.3162 17.3175 31.4738 13.981 37.5101 13.981C43.5622 13.981 46.704 17.3175 47.3776 18.0858C48.7775 19.6857 49.9563 21.496 50.2721 25.1536C50.5036 27.8113 50.3036 30.6531 50.2089 32.1109C50.1773 32.5898 50.3247 32.7687 50.7194 32.7687C50.7983 32.7687 50.8931 32.7582 50.993 32.7318C51.7403 32.5529 53.035 31.8846 54.3664 31.5951C54.5822 31.5477 54.8085 31.5214 55.0295 31.5214C55.74 31.5214 56.4136 31.7951 56.6873 32.5108C57.082 33.5528 56.5452 34.4001 55.3347 35.2474C54.6032 35.7579 51.9561 37.3946 51.3614 37.9472C50.7457 38.5155 50.8246 38.9576 50.8983 39.5207C50.9562 39.9891 52.2877 46.2306 60.6343 50.2671C61.1079 50.5039 61.9447 51.0038 60.4764 51.8143Z" fill="black"/>
</g>
<defs>
<clipPath id="clip0_0_5403">
<rect width="75" height="75" fill="white"/>
</clipPath>
</defs>
</svg>
