<svg width="75" height="75" viewBox="0 0 75 75" fill="none" xmlns="http://www.w3.org/2000/svg">
<g clip-path="url(#clip0_0_5385)">
<path d="M59.3481 33.3087C47.4425 26.2383 27.8044 25.5882 16.439 29.0376C14.6138 29.5916 12.6837 28.5609 12.1309 26.7363C11.5776 24.9099 12.6069 22.9812 14.4334 22.4263C27.4801 18.4662 49.1683 19.231 62.8743 27.367C64.5159 28.3417 65.0544 30.4618 64.0814 32.1006C63.1076 33.7422 60.9857 34.2833 59.3481 33.3087ZM58.9582 43.781C58.1229 45.1363 56.3508 45.5615 54.9972 44.7292C45.0714 38.6279 29.9362 36.8605 18.1933 40.425C16.6705 40.8852 15.0621 40.0265 14.5995 38.5066C14.1407 36.9838 14.9997 35.3783 16.5198 34.9153C29.9343 30.8446 46.6107 32.8163 58.0109 39.822C59.3644 40.6557 59.7905 42.4287 58.9582 43.781ZM54.4388 53.8382C53.7751 54.9267 52.358 55.2677 51.2734 54.6042C42.6001 49.3033 31.6833 48.1063 18.8268 51.0427C17.5879 51.3268 16.3532 50.5505 16.0706 49.3116C15.7869 48.0732 16.5603 46.8383 17.8019 46.5556C31.8711 43.3392 43.9398 44.7235 53.6749 50.6723C54.7604 51.3352 55.1022 52.7532 54.4388 53.8382ZM37.5002 0.565422C17.1019 0.565422 0.56543 17.1016 0.56543 37.4995C0.56543 57.8998 17.1019 74.4346 37.5002 74.4346C57.8988 74.4346 74.4346 57.8998 74.4346 37.4995C74.4346 17.1016 57.8988 0.565422 37.5002 0.565422Z" fill="#1ED760"/>
</g>
<defs>
<clipPath id="clip0_0_5385">
<rect width="75" height="75" fill="white"/>
</clipPath>
</defs>
</svg>
