<svg width="52" height="52" viewBox="0 0 52 52" fill="none" xmlns="http://www.w3.org/2000/svg">
<path d="M26.0001 48.7847C24.6314 48.7953 23.4061 47.9376 22.9476 46.6479L18.2529 33.738L5.34497 29.0453C2.99518 28.1731 2.47075 25.0842 4.401 23.4854C4.6828 23.2519 5.00193 23.0677 5.34497 22.9403L18.2549 18.2477L22.9476 5.33771C23.8198 2.98792 26.9087 2.46349 28.5076 4.39373C28.741 4.67554 28.9252 4.99467 29.0526 5.33771L33.7452 18.2477L46.6552 22.9403C49.005 23.8125 49.5294 26.9014 47.5992 28.5003C47.3174 28.7337 46.9983 28.918 46.6552 29.0453L33.7452 33.74L29.0526 46.6479C28.594 47.9376 27.3688 48.7953 26.0001 48.7847Z" fill="#101010" fill-opacity="0.8"/>
</svg>
