<svg width="52" height="52" viewBox="0 0 52 52" fill="none" xmlns="http://www.w3.org/2000/svg">
<path d="M33.1764 39.308C33.3313 39.5455 33.4192 39.8204 33.4307 40.1038C33.4423 40.3871 33.3771 40.6683 33.242 40.9176C33.107 41.167 32.9071 41.3752 32.6635 41.5203C32.4199 41.6654 32.1416 41.7421 31.858 41.7421H2.82549C2.54193 41.7421 2.26364 41.6654 2.02002 41.5203C1.77641 41.3752 1.57652 41.167 1.44147 40.9176C1.30642 40.6683 1.24122 40.3871 1.25277 40.1038C1.26432 39.8204 1.35219 39.5455 1.50708 39.308C3.723 35.8971 6.9824 33.2941 10.7989 31.8875C8.68906 30.4829 7.08724 28.4366 6.23033 26.0512C5.37341 23.6658 5.3069 21.0679 6.04062 18.6418C6.77434 16.2157 8.26934 14.0901 10.3045 12.5794C12.3398 11.0686 14.8071 10.2529 17.3418 10.2529C19.8764 10.2529 22.3438 11.0686 24.379 12.5794C26.4142 14.0901 27.9092 16.2157 28.6429 18.6418C29.3766 21.0679 29.3101 23.6658 28.4532 26.0512C27.5963 28.4366 25.9945 30.4829 23.8846 31.8875C27.7011 33.2941 30.9605 35.8971 33.1764 39.308ZM50.4751 39.2784C48.2586 35.8819 45.0065 33.2902 41.201 31.8875C43.6918 30.2097 45.4496 27.6458 46.1166 24.7176C46.7837 21.7894 46.3098 18.7171 44.7914 16.1261C43.2731 13.535 40.8244 11.6199 37.9439 10.7706C35.0633 9.92127 31.9673 10.2016 29.2861 11.5545C29.1836 11.6074 29.094 11.6822 29.0236 11.7737C28.9532 11.8651 28.9038 11.9709 28.8788 12.0835C28.8538 12.1962 28.8539 12.3129 28.8791 12.4255C28.9043 12.5381 28.9539 12.6438 29.0244 12.7351C31.0181 15.222 32.1631 18.282 32.2916 21.4668C32.4202 24.6516 31.5255 27.7938 29.7387 30.4333C29.6232 30.6058 29.5806 30.8169 29.62 31.0207C29.6594 31.2245 29.7778 31.4045 29.9493 31.5215C32.2789 33.1474 34.2732 35.2072 35.8231 37.5881C36.4481 38.5454 36.7034 39.6974 36.5413 40.8291C36.5231 40.9416 36.5295 41.0568 36.5602 41.1667C36.5908 41.2765 36.645 41.3784 36.7189 41.4652C36.7929 41.552 36.8848 41.6218 36.9883 41.6696C37.0919 41.7174 37.2045 41.7421 37.3186 41.7421H49.1843C49.5309 41.7422 49.8679 41.6279 50.1429 41.4169C50.418 41.2059 50.6157 40.91 50.7054 40.5752C50.7601 40.355 50.7679 40.1257 50.7282 39.9023C50.6885 39.6789 50.6023 39.4664 50.4751 39.2784Z" fill="#101010" fill-opacity="0.8"/>
</svg>
