<svg width="52" height="52" viewBox="0 0 52 52" fill="none" xmlns="http://www.w3.org/2000/svg">
<path fill-rule="evenodd" clip-rule="evenodd" d="M39.2858 6.81105C38.813 6.68854 38.4583 6.27704 38.4583 5.7886V4.25C38.4583 3.69771 38.0105 3.25 37.4583 3.25H36.2083C35.656 3.25 35.2083 3.69772 35.2083 4.25V5.7886C35.2083 6.27704 34.8536 6.68854 34.3807 6.81105C30.1831 7.89862 27.0833 11.7123 27.0833 16.25V20.5833C27.0833 21.1816 27.5684 21.6667 28.1666 21.6667H45.4999C46.0981 21.6667 46.5833 21.1816 46.5833 20.5833V16.25C46.5833 11.7123 43.4834 7.89862 39.2858 6.81105ZM35.2083 15.1667C35.2083 16.0641 34.4807 16.7917 33.5833 16.7917C32.6858 16.7917 31.9583 16.0641 31.9583 15.1667C31.9583 14.2692 32.6858 13.5417 33.5833 13.5417C34.4807 13.5417 35.2083 14.2692 35.2083 15.1667ZM40.0833 16.7917C40.9807 16.7917 41.7083 16.0641 41.7083 15.1667C41.7083 14.2692 40.9807 13.5417 40.0833 13.5417C39.1858 13.5417 38.4583 14.2692 38.4583 15.1667C38.4583 16.0641 39.1858 16.7917 40.0833 16.7917ZM8.66659 4.33333H25.8676C26.87 4.33333 27.348 5.7925 26.6549 6.51675C24.2358 9.04478 22.7499 12.4726 22.7499 16.25V20.5833C22.7499 23.5749 25.1751 26 28.1666 26H45.4999C45.7367 26 45.9699 25.9848 46.1986 25.9554C46.9136 25.8633 47.6666 26.3566 47.6666 27.0776V34.6667C47.6666 35.8583 47.2424 36.8784 46.3937 37.7271C45.545 38.5758 44.5249 39 43.3333 39H13.4141C13.1489 39 12.8946 39.1054 12.707 39.2929L6.04036 45.9596C5.41039 46.5895 4.33325 46.1434 4.33325 45.2525V8.66667C4.33325 7.475 4.75755 6.45487 5.60617 5.60625C6.45479 4.75763 7.47492 4.33333 8.66659 4.33333Z" fill="#101010" fill-opacity="0.8"/>
</svg>
