<svg width="52" height="52" viewBox="0 0 52 52" fill="none" xmlns="http://www.w3.org/2000/svg">
<path d="M47.4032 11.7307H6.63522C5.06606 11.7307 4.08533 10.0321 4.86992 8.67315C5.23406 8.04245 5.90693 7.65391 6.63522 7.65395H41.288C42.8572 7.65389 43.8379 5.95517 43.0533 4.59627C42.6891 3.96562 42.0162 3.57715 41.288 3.57715H6.63522C3.25778 3.57701 0.52002 6.31491 0.52002 9.69235V42.3068C0.52002 45.6841 3.25788 48.422 6.63522 48.422H47.4032C49.6548 48.422 51.48 46.5967 51.48 44.3452V15.8075C51.48 13.5561 49.6547 11.7309 47.4032 11.7307ZM38.2304 32.1148C35.8767 32.1149 34.4056 29.5669 35.5824 27.5285C36.7592 25.49 39.7013 25.4899 40.8783 27.5282C41.1467 27.9931 41.288 28.5204 41.288 29.0571C41.288 30.7458 39.919 32.1147 38.2304 32.1148Z" fill="#101010" fill-opacity="0.8"/>
</svg>
