<svg width="52" height="52" viewBox="0 0 52 52" fill="none" xmlns="http://www.w3.org/2000/svg">
<g clip-path="url(#clip0_1262_28)">
<path d="M25.9999 0.519531C6.38542 0.519531 -5.87364 21.7529 3.93362 38.7395C13.7409 55.7262 38.259 55.7262 48.0663 38.7395C50.3026 34.8661 51.4799 30.4722 51.4799 25.9995C51.4651 11.9335 40.066 0.5344 25.9999 0.519531ZM28.9399 37.7595H27.9599V39.7195C27.9599 41.2283 26.3266 42.1713 25.0199 41.4169C24.4135 41.0668 24.04 40.4198 24.04 39.7195V37.7595H20.1199C18.6111 37.7595 17.6681 36.1262 18.4225 34.8195C18.7726 34.2131 19.4197 33.8396 20.1199 33.8395H28.9399C31.2032 33.8376 32.6156 31.3865 31.4824 29.4274C30.9573 28.5197 29.9886 27.9604 28.9399 27.9595H23.06C17.7791 27.9595 14.4786 22.2429 17.119 17.6695C18.3444 15.5471 20.6092 14.2396 23.06 14.2395H24.04V12.2795C24.04 10.7707 25.6733 9.82771 26.9799 10.5821C27.5864 10.9322 27.9599 11.5793 27.9599 12.2795V14.2395H31.8799C33.3888 14.2395 34.3318 15.8729 33.5774 17.1795C33.2273 17.7859 32.5802 18.1595 31.8799 18.1595H23.06C20.7967 18.1614 19.3843 20.6126 20.5175 22.5717C21.0426 23.4793 22.0113 24.0387 23.06 24.0395H28.9399C34.2208 24.0398 37.5213 29.7566 34.8807 34.3298C33.6553 36.4521 31.3907 37.7595 28.9399 37.7595Z" fill="#101010" fill-opacity="0.8"/>
</g>
<defs>
<clipPath id="clip0_1262_28">
<rect width="52" height="52" fill="white"/>
</clipPath>
</defs>
</svg>
