<svg width="52" height="52" viewBox="0 0 52 52" fill="none" xmlns="http://www.w3.org/2000/svg">
<path d="M51.4041 17.6239L47.8908 5.32247C47.4055 3.64645 45.8749 2.48979 44.13 2.48047H7.87002C6.12517 2.48979 4.59461 3.64645 4.10928 5.32247L0.595968 17.6239C0.545735 17.7983 0.520182 17.979 0.52002 18.1605V22.0805C0.52002 25.1651 1.97232 28.0697 4.44003 29.9205V47.5605C4.44003 48.643 5.31751 49.5205 6.40002 49.5205H45.6C46.6825 49.5204 47.56 48.6429 47.56 47.5605V29.9205C50.0277 28.0697 51.48 25.1651 51.48 22.0805V18.1605C51.4799 17.979 51.4543 17.7983 51.4041 17.6239ZM16.2 22.0805C16.1985 26.4973 11.5097 29.3356 7.59561 27.2892C7.45928 27.1831 7.30931 27.0957 7.14971 27.0295C5.46229 25.9492 4.44108 24.0841 4.44003 22.0805V20.1205H16.2V22.0805ZM31.88 22.0805C31.88 26.6069 26.98 29.4359 23.06 27.1727C21.2407 26.1224 20.12 24.1812 20.12 22.0805V20.1205H31.88V22.0805ZM47.56 22.0805C47.5584 24.0845 46.5362 25.9498 44.8479 27.0295C44.6904 27.0958 44.5421 27.1823 44.4069 27.2867C40.4931 29.3354 35.8024 26.498 35.8 22.0805V20.1205H47.56V22.0805Z" fill="#101010" fill-opacity="0.8"/>
</svg>
