<svg width="32" height="32" viewBox="0 0 32 32" fill="none" xmlns="http://www.w3.org/2000/svg">
<path d="M12.7692 9H10.0769C9.48215 9 9 9.48215 9 10.0769V21.9231C9 22.5178 9.48215 23 10.0769 23H12.7692C13.364 23 13.8462 22.5178 13.8462 21.9231V10.0769C13.8462 9.48215 13.364 9 12.7692 9Z" fill="#FAFAFA"/>
<path d="M21.9235 9H19.2312C18.6365 9 18.1543 9.48215 18.1543 10.0769V21.9231C18.1543 22.5178 18.6365 23 19.2312 23H21.9235C22.5183 23 23.0005 22.5178 23.0005 21.9231V10.0769C23.0005 9.48215 22.5183 9 21.9235 9Z" fill="#FAFAFA"/>
</svg>
