<svg width="320" height="374" viewBox="0 0 320 374" fill="none" xmlns="http://www.w3.org/2000/svg">
<g clip-path="url(#clip0_1277_78)">
<g opacity="0.07">
<path d="M318.345 454.379L316.799 452.608C335.44 430.472 343.867 429.991 368.889 428.549L372.917 428.322C375.77 428.145 378.47 428.018 381.018 427.892C408.936 426.475 419.388 425.944 425.137 394.093C431.779 357.487 430.625 291.837 425.42 255.838C421.522 228.667 405.604 213.691 388.749 197.829C376.554 186.369 363.945 174.504 356.345 157.604C339.643 120.467 359.851 60.4337 377.686 7.4337C385.787 -16.5997 393.431 -39.3176 396.414 -56.7734L398.592 -56.2928C395.565 -38.5839 387.9 -15.8155 379.755 8.36974C362.094 60.8384 342.06 120.315 358.327 156.441C365.709 172.859 378.144 184.572 390.164 195.881C406.584 211.313 423.569 227.301 427.62 255.408C432.846 291.635 434 357.714 427.315 394.549C421.196 428.322 409.48 428.929 381.149 430.371L373.07 430.801L369.041 431.029C344.608 432.471 336.398 432.951 318.345 454.379Z" fill="#B4B4B4"/>
<path d="M309.787 456.606L308.263 454.809C327.208 432.901 335.222 432.041 361.746 429.511L367.865 428.954C396.175 426.425 405.625 425.539 411.418 394.422C418.735 355.893 420.499 290.699 415.207 255.079C411.113 227.251 394.715 212.249 377.36 196.286C364.62 184.598 351.467 172.48 343.65 154.974C327.143 118.038 347.657 60.0038 365.731 8.80003C374.442 -15.7899 382.608 -38.9885 385.635 -56.9756L387.812 -56.4949C384.764 -38.2042 376.51 -14.8792 367.8 9.81197C349.878 60.4086 329.582 117.962 345.61 153.861C353.231 170.886 366.21 182.827 378.753 194.338C395.674 209.896 413.16 225.986 417.407 254.674C422.72 290.649 420.934 356.222 413.596 394.979C407.346 427.867 396.61 428.904 367.865 431.484L361.985 432.041C335.331 434.672 328.167 435.355 309.787 456.606Z" fill="#B4B4B4"/>
<path d="M304.713 461.968L303.102 460.248C319.957 438.719 326.947 436.797 351.01 432.825L351.729 432.825C382.477 427.765 388.901 426.677 395.151 395.636C403.709 353.363 411.766 290.825 406.409 253.738C402.25 224.873 384.633 209.213 365.883 192.617C352.208 180.499 338.075 167.977 329.822 149.838C313.141 113.105 334.743 57.4483 353.776 8.34422C363.227 -15.9928 372.133 -38.9636 375.4 -57.1025L377.577 -56.5966C374.267 -38.1794 365.295 -15.082 355.801 9.38144C336.942 57.9542 315.558 113.105 331.847 148.649C339.861 166.358 353.797 178.652 367.277 190.619C385.504 206.759 404.297 223.506 408.652 253.333C414.075 290.775 405.952 353.717 397.372 396.218C390.839 428.954 383.348 430.168 352.121 435.329L351.402 435.329C327.383 439.276 321.111 440.996 304.713 461.968Z" fill="#B4B4B4"/>
<path d="M302.557 469.584L300.532 468.622C308.089 446.942 323.485 441.275 338.336 435.735C353.58 430.144 367.887 424.856 375.138 403.833C379.603 390.906 381.497 374.766 383.305 359.131C384.427 347.949 386.099 336.85 388.313 325.889C389.162 322.095 390.099 318.3 391.035 314.303C396.022 293.609 401.161 272.206 397.677 251.715C392.625 222.014 373.483 205.368 353.231 187.735C336.267 172.986 318.737 157.731 310.702 134.204C298.202 97.5214 319.151 52.6169 339.403 9.17969C350.705 -15.0561 361.397 -37.9764 365.274 -57.7344L367.451 -57.1778C363.488 -36.9392 352.752 -14.0189 341.32 10.394C321.307 53.4011 300.619 97.6985 312.727 133.268C320.523 156.036 337.814 171.215 354.538 185.711C374.137 202.838 394.607 220.572 399.811 251.209C403.404 272.307 398.178 294.013 393.148 314.986C392.211 318.882 391.275 322.727 390.425 326.522C388.23 337.364 386.58 348.345 385.482 359.41C383.631 375.17 381.737 391.488 377.164 404.694C369.52 426.83 354.015 432.522 339.011 438.087C324.007 443.653 309.722 448.991 302.557 469.584Z" fill="#B4B4B4"/>
<path d="M302.34 479.348L300.162 478.792C303.864 460.147 312.727 454.683 322.984 448.434C326.999 446.05 330.896 443.406 334.656 440.515C347.417 430.396 348.484 426.677 352.447 413.016C353.057 410.942 353.732 408.614 354.516 406.009C358.196 393.967 361.049 381.014 363.619 368.491C366.514 353.86 370.15 339.44 374.507 325.307C375.748 321.537 377.077 317.717 378.427 313.771C385.744 292.596 393.322 270.764 389.903 248.906C384.916 217.131 363.597 199.473 341.015 180.752C322.309 165.194 302.993 149.281 294.282 124.514C281.521 88.2616 304.496 46.0893 326.686 5.25785C339.142 -17.6877 350.901 -39.2419 355.387 -58.165L357.565 -57.5073C352.992 -38.1035 341.167 -16.3216 328.624 6.72516C306.717 47.0001 284.048 88.6411 296.395 123.679C304.844 147.687 323.899 163.474 342.343 178.754C364.272 196.918 386.963 215.715 392.124 248.501C395.652 271.017 387.965 293.254 380.517 314.758C379.167 318.653 377.839 322.499 376.619 326.268C372.3 340.34 368.715 354.702 365.884 369.275C363.205 381.925 360.418 394.877 356.737 407.021C355.953 409.55 355.278 411.928 354.669 414.003C350.727 427.588 349.399 432.142 336.028 442.767C332.212 445.725 328.249 448.42 324.16 450.837C313.881 456.858 305.824 461.842 302.34 479.348Z" fill="#B4B4B4"/>
<path d="M303.538 490.48L301.36 490.278C302.449 473.809 310.288 458.68 317.845 444.058C323.768 432.623 329.909 420.784 332.849 408.286C336.638 392.348 344.978 372.616 353.819 351.744C369.063 315.492 386.484 274.407 382.412 245.491C377.578 211.465 352.644 191.707 328.537 172.582C307.937 156.239 286.617 139.365 277.21 113.51C264.144 77.3841 289.318 38.2729 313.751 0.477241C327.47 -20.7481 340.427 -40.7843 345.61 -59.0244L347.679 -58.2149C342.365 -39.5953 329.321 -19.4072 315.493 1.99514C291.43 39.2343 266.539 77.7383 279.213 112.523C288.381 137.822 309.417 154.367 329.757 170.507C354.255 189.911 379.581 209.998 384.568 245.061C388.793 274.787 371.241 316.251 355.758 352.832C347.047 373.602 338.685 393.31 334.961 408.944C331.912 421.77 325.728 433.762 319.718 445.348C311.943 460.451 304.583 474.618 303.538 490.48Z" fill="#B4B4B4"/>
<path d="M303.32 502.446C302.754 474.213 304.648 431.256 310.201 403.656C314.731 381.039 328.21 358.776 342.496 335.198C360.919 304.84 379.951 273.319 377.469 241.595C374.703 206.329 345.675 183.687 317.605 161.829C297.44 146.093 276.578 129.852 266.278 109.158C246.069 68.6806 273.704 32.4281 300.445 -2.55947C314.774 -21.2802 329.56 -40.507 335.919 -59.8096L337.944 -58.9241C331.411 -39.2926 316.516 -19.7623 302.078 -0.889787C275.947 33.4147 248.726 68.9083 268.151 107.893C278.211 128.132 297.941 143.311 318.803 159.729C347.308 181.916 376.772 204.887 379.646 241.367C382.194 273.926 362.922 305.751 344.26 336.564C330.127 359.915 316.756 382.101 312.313 404.111C306.804 431.534 304.931 474.213 305.497 502.294L303.32 502.446Z" fill="#B4B4B4"/>
<path d="M307.566 514.589L305.388 514.589C305.519 497.968 300.532 482.233 295.72 467.029C289.644 447.777 283.351 427.892 287.249 405.958C291.909 379.876 310.419 355.109 328.319 331.202C350.27 301.856 372.961 271.498 370.914 238.231C368.627 201.371 336.333 176.907 305.084 153.254C282.001 135.747 260.159 119.227 249.379 97.9767C227.93 55.7538 257.633 23.9791 286.399 -6.75836C302.274 -23.7588 318.694 -41.3159 326.316 -60.4414L328.297 -59.3789C320.414 -39.8233 303.842 -22.0891 287.75 -4.91158C258.373 26.5089 230.63 56.2091 251.187 96.6612C261.727 117.406 283.329 133.774 306.216 151.103C337.901 175.111 370.653 199.904 373.004 238.028C375.182 272.358 352.143 303.096 329.887 332.821C312.183 356.5 293.847 380.888 289.317 406.439C285.55 427.664 291.495 446.335 297.701 466.118C302.645 481.55 307.697 497.488 307.566 514.589Z" fill="#B4B4B4"/>
<path d="M306.956 526.581C303.407 512.591 295.611 498.449 287.358 483.573C273.922 459.211 260.028 433.989 264.775 408.159C269.936 380.103 292.17 354.552 313.685 329.734C339.294 300.262 365.796 269.803 364.12 234.815C363.118 213.59 340.666 192.238 325.815 178.122L320.588 173.062C312.531 165.169 302.645 157.25 292.279 148.826C270.241 131.117 245.242 111.106 232.786 86.9717C210.095 43.1044 241.736 15.4027 272.31 -11.3629C289.731 -26.5419 307.74 -42.4039 316.603 -61.3018L318.52 -60.0874C309.439 -40.7089 291.234 -24.6698 273.617 -9.339C242.433 17.9579 212.991 43.7875 234.637 85.6815C246.875 109.335 271.657 129.22 293.433 146.752C303.951 155.201 313.881 163.17 322.004 171.114L327.209 176.174C342.452 190.568 365.252 212.325 366.406 234.689C368.127 270.815 341.276 301.678 315.319 331.531C294.043 355.969 272.049 381.267 267.018 408.589C262.445 433.407 276.099 458.174 289.296 482.106C297.614 497.285 305.497 511.503 309.134 525.822L306.956 526.581Z" fill="#B4B4B4"/>
<path d="M307.348 537.18C301.882 521.495 289.927 506.569 277.079 490.783C258.743 468.014 239.776 444.538 241.387 417.949C243.565 382.784 271.439 355.007 298.398 328.14C327.252 299.427 357.064 269.726 353.493 232.006C349.529 190.037 314.709 166.079 281.042 142.906C251.47 122.667 220.896 101.543 210.617 68.1998C200.513 35.312 206.915 24.2567 232.699 5.15643C240.299 -0.459793 247.528 -5.11467 254.475 -9.61778C274.793 -22.697 292.344 -33.9801 306.739 -61.707L308.59 -60.4168C293.999 -32.108 276.208 -20.6478 255.607 -7.29033C248.639 -2.81253 241.431 1.81705 233.831 7.40798C208.766 25.9517 202.93 36.0963 212.621 67.4409C222.638 99.924 252.885 120.719 282.109 140.806C316.233 164.283 351.533 188.569 355.605 231.88C359.307 271.067 329.038 301.197 299.792 330.341C273.159 356.727 245.612 384.024 243.543 418.126C241.997 443.627 260.638 466.724 278.647 488.961C291.539 504.925 303.712 520.028 309.33 536.143L307.348 537.18Z" fill="#B4B4B4"/>
<path d="M305.802 546.035C293.586 516.841 281.63 505.153 265.102 488.962C259.854 483.902 253.887 478.008 247.376 471.051C235.769 458.68 220.46 439.883 221.418 419.72C223.182 382.911 254.279 354.628 284.352 327.306C316.059 298.542 348.985 268.538 345.435 229.351C341.472 185.888 304.692 161.045 269.109 137.012C237.947 115.989 205.739 94.2323 195.069 59.8772C188.863 54.008 185.444 47.5822 184.921 40.8023C184.355 33.4658 187.099 25.6233 193.261 17.4266L193.501 17.1989L218.37 -1.37002C226.645 -6.42969 234.397 -10.6292 241.91 -14.5504C263.033 -25.6564 281.304 -35.2192 296.765 -62.3643L298.594 -60.9728C282.763 -33.1447 264.253 -23.506 242.803 -12.2483C235.333 -8.32705 227.559 -4.27933 219.48 0.805634L194.807 19.2228C189.167 26.8123 186.576 33.997 187.077 40.5746C187.556 46.7221 190.801 52.6419 196.68 58.1316L196.92 58.334L196.92 58.6882C207.307 92.3603 239.275 113.965 270.198 134.836C306.259 159.173 343.519 184.345 347.591 229.072C351.271 269.676 317.932 299.908 285.702 329.279C256.021 356.272 225.316 384.202 223.596 419.872C222.681 438.947 237.576 457.162 248.857 469.179C255.39 476.11 261.269 481.828 266.496 487.039C283.242 503.407 295.349 515.247 307.762 544.922L305.802 546.035Z" fill="#B4B4B4"/>
<path d="M301.73 552.435C287.815 521.849 273.943 509.732 254.78 493.009C248.465 487.494 241.322 481.271 233.591 473.783C223.618 464.144 202.843 444.032 203.845 421.036C205.5 383.088 238.927 354.45 271.352 326.799C305.323 297.757 340.47 267.703 336.855 227.503C332.827 182.978 294.566 157.478 257.546 132.812C225.099 111.207 191.541 88.8434 180.522 53.5523C174.142 47.683 170.636 41.2573 170.091 34.4773C169.525 27.1661 172.421 19.2983 178.671 11.1776L178.932 10.8993L204.846 -6.22769C213.557 -11.0091 221.832 -14.6014 229.759 -18.0673C251.535 -27.5542 270.241 -35.7761 286.487 -62.7441L288.272 -61.3021C271.635 -33.6511 252.581 -25.3279 230.543 -15.7651C222.638 -12.3246 214.472 -8.75752 205.848 -4.05203L180.174 12.9231C174.425 20.5126 171.768 27.6215 172.269 34.1737C172.748 40.3212 176.058 46.241 182.112 51.7308L182.351 51.9331L182.46 52.2873C193.109 86.8954 226.427 109.082 258.678 130.535C296.155 155.53 334.896 181.359 339.055 227.175C342.822 268.816 307.152 299.3 272.68 328.773C240.734 356.07 207.721 384.429 206.131 421.086C205.195 442.818 225.382 462.373 235.094 471.683C242.781 479.095 249.902 485.319 256.195 490.808C274.858 507.101 289.6 519.977 303.777 551.094L301.73 552.435Z" fill="#B4B4B4"/>
<path d="M294.457 555.826C280.106 524.177 264.34 511.402 244.371 495.11C237.293 489.367 229.258 482.84 220.656 474.871C208.505 463.714 188.187 445.069 189.254 421.593C191.04 382.886 225.817 354.173 259.44 326.395C294.696 297.302 331.15 267.197 327.383 226.391C323.223 181.259 284.091 155.404 246.222 130.409C212.969 108.45 178.606 85.7575 167.391 49.8591C161.01 43.9646 157.483 37.5389 156.96 30.7336C156.372 23.3971 159.246 15.5546 165.496 7.33268L165.801 7.0544L192.347 -9.21242C201.558 -13.7914 210.095 -17.0043 218.37 -20.1413C240.364 -28.4644 259.375 -35.6492 275.881 -63.1484L277.667 -61.7064C260.747 -33.5241 241.409 -26.2888 219.045 -17.7632C210.813 -14.6516 202.32 -11.4387 193.261 -6.96087L166.977 9.15416C161.25 16.7437 158.593 23.9031 159.116 30.4806C159.617 36.6534 162.927 42.5732 168.981 48.063L169.242 48.2907L169.351 48.6448C180.239 83.8348 214.297 106.376 247.311 128.183C285.637 153.481 325.27 179.69 329.538 226.087C333.458 268.386 296.46 298.921 260.703 328.444C227.494 355.868 193.196 384.101 191.432 421.719C190.43 443.855 210.182 462.019 221.919 472.847C230.477 480.715 238.121 486.913 245.525 492.934C265.733 509.327 281.696 522.255 296.308 554.459L294.457 555.826Z" fill="#B4B4B4"/>
<path d="M283.394 556.23C269.044 524.911 253.212 511.781 233.178 495.16C225.839 489.063 218.261 482.789 209.811 474.922C196.942 462.93 177.517 444.791 178.475 421.795C180.108 383.038 214.929 354.249 248.595 326.395C283.851 297.252 320.305 267.121 316.625 226.29C312.531 181.031 273.246 155.454 235.225 130.51C201.95 108.804 167.456 86.0358 156.22 50.2387C149.883 44.3442 146.398 37.8931 145.854 31.0626C145.266 23.7007 148.032 15.8836 154.238 7.61101L154.543 7.33273L181.219 -8.95939C190.539 -13.5384 199.185 -16.7513 207.547 -19.863C229.65 -28.0596 248.726 -35.042 265.124 -62.8701L266.931 -61.4281C250.098 -33.0181 230.695 -25.7828 208.135 -17.4343C199.816 -14.3479 191.236 -11.1603 182.003 -6.65724L155.588 9.4578C149.926 17.0473 147.335 24.232 147.857 30.8349C148.358 37.033 151.647 42.9781 157.657 48.5437L157.918 48.7714L157.918 49.1003C168.806 84.3155 203.039 106.705 236.139 128.335C274.64 153.481 314.426 179.488 318.629 226.062C322.439 268.336 285.463 298.921 249.706 328.495C216.453 355.969 182.068 384.404 180.5 421.947C179.586 443.653 198.509 461.286 210.987 472.974C219.371 480.816 226.928 487.09 234.245 493.212C254.519 510.01 270.524 523.292 285.115 555.143L283.394 556.23Z" fill="#B4B4B4"/>
<path d="M269.305 556.231C255.52 525.873 240.647 511.933 221.81 494.224C215.277 488.128 208.744 481.853 201.297 474.264C189.908 462.551 170.81 442.894 171.659 421.138C173.118 382.886 206.872 353.895 239.515 325.889C273.769 296.493 309.199 266.084 305.563 225.683C301.512 180.728 262.423 155.96 224.619 132.079C191.454 111.056 157.112 89.3247 145.897 53.8565C139.561 47.9619 136.055 41.5362 135.51 34.7056C134.922 27.3691 137.688 19.5266 143.894 11.2794L144.177 11.0011L170.897 -5.97408C180.087 -10.7555 188.688 -14.2213 197.029 -17.586C219.328 -26.5669 238.578 -34.3335 254.954 -62.0351L256.74 -60.5931C239.972 -32.2337 220.395 -24.3407 197.747 -15.0562C189.472 -11.7168 180.914 -8.27622 171.877 -3.59603L145.418 13.2527C139.778 20.8422 137.165 28.0269 137.71 34.6044C138.254 41.182 141.499 46.7223 147.509 52.3133L147.749 52.541L147.857 52.8951C158.746 87.655 192.76 109.209 225.687 130.08C263.97 154.341 303.581 179.463 307.74 225.733C311.508 267.551 275.576 298.39 240.821 328.217C208.592 355.893 175.252 384.506 173.859 421.542C173.075 442.211 191.65 461.362 202.756 472.797C210.095 480.386 216.758 486.584 223.204 492.656C242.215 510.567 257.262 524.684 271.265 555.446L269.305 556.231Z" fill="#B4B4B4"/>
<path d="M252.537 556.18C245.568 539.179 230.543 522.23 214.646 504.268C190.909 477.477 166.367 449.75 167.718 419.67C169.394 382.33 201.253 353.186 232.067 324.978C264.732 295.152 298.355 264.262 294.457 224.595C290.101 180.348 251.47 157.048 214.101 134.507C181.241 114.699 147.269 94.2071 135.924 59.3966C129.609 53.6033 126.124 47.2028 125.558 40.4229C124.97 33.0863 127.736 25.2439 133.986 16.9207L134.247 16.6424L161.032 -1.44588C170.113 -6.50554 178.693 -10.4015 186.968 -14.095C209.507 -24.2144 228.975 -32.917 245.285 -61.0234L247.071 -59.6067C230.39 -30.8425 210.639 -21.9881 187.752 -11.717C179.499 -8.02344 170.984 -4.1275 162.056 0.932169L135.51 18.894C129.805 26.4835 127.192 33.7441 127.736 40.347C128.237 46.4945 131.525 52.3637 137.514 57.7775L137.753 58.0052L137.753 58.3341C148.641 92.4362 182.395 112.751 214.994 132.408C252.885 155.176 292.061 178.881 296.525 224.468C300.532 265.578 266.365 296.872 233.374 327.129C202.887 354.957 171.485 383.772 169.852 419.948C168.545 448.89 192.739 476.187 216.127 502.598C232.176 520.712 247.332 537.839 254.453 555.244L252.537 556.18Z" fill="#B4B4B4"/>
<path d="M233.7 556.078C228.191 539.457 216.279 522.077 203.475 503.685C184.072 475.63 164.016 446.638 166.106 417.823C168.698 382.127 197.769 352.831 225.883 324.497C257.72 292.419 287.793 262.137 283.416 223.304C278.538 180.044 240.516 158.667 203.736 137.973C171.267 119.707 137.71 100.81 126.234 66.8592C119.962 61.1671 116.478 54.8678 115.911 48.1384C115.28 40.7766 118.089 32.8077 124.426 24.4592L124.666 24.2315L151.516 4.65061C160.531 -0.839124 169.046 -5.13984 177.299 -9.28877C200.121 -20.7995 219.807 -30.7165 236.096 -59.5312L237.925 -58.1398C221.331 -28.6926 201.341 -18.6238 178.214 -6.98661C170.004 -2.83769 161.511 1.43771 152.648 6.85155L125.972 26.3313C120.18 34.0979 117.523 41.3838 118.089 47.9866C118.59 54.0582 121.878 59.8263 127.801 65.1642L128.063 65.3666L128.172 65.6955C139.212 98.9375 172.509 117.658 204.672 135.772C242.019 156.871 280.542 178.45 285.572 223.026C290.101 263.149 258.177 295.303 227.32 326.42C199.533 354.4 170.701 383.367 168.284 418.025C166.259 445.853 186.032 474.441 205.173 502.117C218 520.661 230.107 538.192 235.66 555.243L233.7 556.078Z" fill="#B4B4B4"/>
<path d="M213.361 555.952C209.507 539.18 200.97 521.42 191.933 502.624C177.996 473.632 163.624 443.653 166.215 415.623C169.351 382.052 195.308 352.604 220.395 324.119C249.728 290.952 277.427 259.431 272.506 221.964C266.888 179.994 229.628 160.793 193.566 142.249C161.446 125.78 128.411 108.805 116.782 75.9167C110.533 70.3764 107.07 64.2036 106.482 57.5501C105.829 50.163 108.66 42.1181 115.193 33.6179L115.41 33.4155L142.348 12.1649C151.255 6.16924 159.769 1.36255 167.957 -3.26705C191.084 -16.3716 211.053 -27.6546 227.211 -57.456L229.04 -56.0899C212.555 -25.7319 192.325 -14.2465 168.915 -0.990194C160.749 3.6394 152.278 8.42078 143.502 14.1888L116.739 35.3129C110.816 43.206 108.028 50.4919 108.703 57.1959C109.226 63.1916 112.492 68.8585 118.394 74.0193L118.633 74.2217L118.742 74.5506C129.935 106.781 162.709 123.655 194.416 139.947C231 158.794 268.826 178.248 274.618 221.584C279.801 260.367 250.403 293.71 221.984 325.965C197.159 354.122 171.507 383.241 168.436 415.926C165.888 443.172 180.13 472.772 193.893 501.409C202.995 520.358 211.619 538.269 215.539 555.32L213.361 555.952Z" fill="#B4B4B4"/>
<path d="M192.107 555.8C190.147 538.977 185.378 521.141 180.348 502.243C172.334 472.189 164.037 441.123 167.391 413.219C171.093 382.506 193.523 353.11 215.125 324.674C240.712 291.078 267.149 256.369 261.422 220.445C254.889 179.968 218.479 163.119 183.244 146.853C151.668 132.306 119.047 117.254 107.331 85.2005C94.6358 50.4913 108.203 38.3987 133.289 19.9815C142 13.5557 150.492 8.21776 158.659 3.0569C182.112 -11.7679 202.342 -24.5688 218.413 -55.4834L220.286 -54.1679C203.91 -22.7474 183.419 -9.74404 159.704 5.23256C151.56 10.2922 143.154 15.7314 134.443 22.1066C107.658 41.7633 97.8805 52.8946 109.335 84.1886C120.789 115.483 152.888 130.13 184.028 144.475C219.829 160.994 256.849 178.071 263.556 219.965C269.479 257.077 242.672 292.267 216.758 326.218C195.33 354.4 173.205 383.518 169.547 413.472C166.259 440.819 174.468 471.658 182.417 501.409C187.491 520.382 192.282 538.319 194.263 555.37L192.107 555.8Z" fill="#B4B4B4"/>
<path d="M172.639 555.623L170.461 555.623C170.461 539.558 169.481 523.013 168.436 505.456C166.542 473.53 164.582 440.49 169.046 410.714C173.096 383.544 191.693 354.577 209.681 326.572C232.895 290.395 256.892 253.004 250.425 218.852C243.042 179.842 207.438 165.472 173.031 151.558C142.043 139.061 110.01 126.108 98.0546 95.2186C85.0976 61.7742 99.579 47.9867 124.295 28.2287C133.006 21.3222 141.368 15.4277 149.491 9.7356C173.249 -6.91069 193.784 -21.2548 209.79 -53.3584L211.663 -52.0935C195.374 -19.4333 174.643 -4.91211 150.688 11.886C142.588 17.5781 134.204 23.4473 125.602 30.3284C101.103 49.884 87.8415 62.5079 100.102 94.1814C111.665 124.084 143.263 136.834 173.793 149.18C208.788 163.322 244.981 177.919 252.624 218.32C259.309 253.586 234.985 291.458 211.488 328.09C193.653 355.918 175.209 384.581 171.245 411.144C166.89 440.617 168.785 473.504 170.679 505.304C171.659 522.861 172.639 539.482 172.639 555.623Z" fill="#B4B4B4"/>
<path d="M151.146 555.8L148.968 555.471C153.127 518.181 159.138 480.335 164.93 443.728C166.803 431.889 168.676 420.074 170.483 408.311C174.229 383.873 188.841 356.879 204.302 328.292C225.12 289.813 246.657 250.044 239.427 217.334C231.152 179.842 196.375 167.825 162.774 156.213C132.287 145.714 100.929 134.861 88.7343 105.186C74.7973 71.3371 92.654 55.9304 115.258 36.4254C123.838 29.013 132.2 22.6125 140.301 16.4144C164.364 -2.02806 185.139 -17.966 201.101 -51.208L202.995 -49.9937C186.816 -16.2204 165.801 -0.130685 141.52 18.4889C133.441 24.687 125.101 31.138 116.586 38.4239C91.6523 59.9275 78.1727 73.5886 90.7159 104.048C102.497 132.711 133.463 143.412 163.406 153.759C197.617 165.573 233.091 177.792 241.562 216.676C249.009 250.424 227.233 290.699 206.175 329.608C190.822 357.992 176.319 384.783 172.639 408.741C170.832 420.504 168.959 432.344 167.086 444.158C161.293 480.689 155.305 518.637 151.146 555.8Z" fill="#B4B4B4"/>
<path d="M130.349 555.927L128.172 555.32C133.245 531.261 141.085 508.265 148.663 486.002C157.374 460.4 166.389 433.938 171.093 405.984C177.06 370.566 188.95 341.599 201.58 310.837C203.453 306.258 205.347 301.628 207.264 296.897C208.941 292.748 210.9 288.296 212.969 283.565C222.202 262.643 233.679 236.586 228.452 215.841C219.371 179.766 185.378 169.95 152.496 160.463C122.662 151.862 91.8267 142.982 79.3487 114.446C65.1069 81.912 83.225 65.1898 106.134 44.0404C114.627 36.198 122.967 29.3168 131.024 22.6381C155.37 2.39942 176.385 -14.9299 192.325 -49.2598L194.241 -48.0707C178.062 -13.2096 155.828 5.20753 132.287 24.7125C124.252 31.366 115.933 38.2218 107.484 46.039C85.3373 66.4548 67.8508 82.5951 81.3522 113.307C93.3728 140.807 123.729 149.56 153.084 158.009C186.554 167.673 221.179 177.641 230.608 215.133C236.074 236.839 224.38 263.377 214.973 284.729C212.904 289.409 210.944 293.861 209.289 297.985C207.373 302.716 205.478 307.345 203.605 311.924C190.539 343.851 179.281 371.451 173.38 406.489C168.611 434.647 159.551 461.235 150.797 486.938C143.197 509.099 135.314 532.02 130.349 555.927Z" fill="#B4B4B4"/>
<path d="M110.772 556.028L108.725 555.219C115.715 531.135 126.887 509.277 137.688 488.127C151.08 461.969 164.908 435.001 170.352 404.011C177.495 363.812 187.665 332.29 200.208 295.228C201.667 290.902 203.409 286.247 205.26 281.314C213.121 260.367 222.921 234.309 217.39 214.476C207.655 179.564 174.316 171.721 142.065 164.132C112.775 157.225 82.4625 150.091 69.7451 122.617C55.2201 91.2474 73.9479 72.9567 95.6373 51.782L96.7261 50.7447C105.154 42.5228 113.45 35.1863 121.464 28.1027C146.05 6.39678 167.195 -12.3746 183.2 -47.5898L185.139 -46.4261C169.002 -10.6796 146.551 9.2302 122.771 30.1266C114.779 37.1848 106.504 44.496 98.1416 52.6674L97.0527 53.73C75.2763 75.0311 57.964 91.8545 71.6614 121.403C83.8998 147.84 113.69 154.873 142.5 161.653C175.361 169.369 209.332 177.363 219.458 213.691C225.251 234.436 215.277 260.999 207.264 282.326C205.413 287.233 203.692 291.863 202.233 296.138C189.733 333.049 179.607 364.444 172.486 404.466C166.933 435.785 152.996 463.032 139.517 489.367C128.781 510.466 117.697 532.197 110.772 556.028Z" fill="#B4B4B4"/>
<path d="M93.0025 556.103L90.999 555.167C99.4918 530.426 113.516 508.973 127.061 488.228C144.068 462.196 161.664 435.304 167.587 402.416C174.025 365.744 182.3 329.54 192.369 293.988C193.675 289.409 195.265 284.45 196.963 279.213C203.671 258.367 212.033 232.411 206.371 213.438C196.201 179.31 163.384 172.96 131.634 167.066C102.758 161.601 72.8375 155.935 59.9458 129.27C45.1813 98.9121 64.4971 79.2047 84.9452 58.4348L87.1228 56.2339C95.4632 47.7083 103.738 40.0176 111.73 32.6052C135.467 10.5451 157.896 -10.4019 173.815 -46.1484L175.753 -44.9847C159.617 -8.63102 137.013 12.3666 113.08 34.5785C105.11 41.9909 96.8569 49.7575 88.5601 58.1313L86.3824 60.3322C65.7819 81.3045 47.9905 99.4181 61.8839 128.056C74.2965 153.658 103.629 159.223 132.004 164.587C164.386 170.734 197.856 177.084 208.44 212.653C214.363 232.513 205.848 258.924 199.032 280.149C197.334 285.361 195.744 290.269 194.459 294.848C184.41 330.306 176.157 366.418 169.743 402.998C163.624 436.366 145.963 463.512 128.781 489.746C115.323 510.364 101.386 531.691 93.0025 556.103Z" fill="#B4B4B4"/>
<path d="M77.6064 556.129L75.603 555.142C84.9669 529.313 101.147 507.961 116.782 487.317C136.947 460.678 155.98 435.506 162.099 401.303L164.495 387.844C170.156 355.791 175.513 325.535 183.375 293.102C184.572 288.169 186.075 282.831 187.73 277.215C193.806 255.61 200.796 231.121 195.308 212.502C185.4 178.577 152.735 173.568 121.05 168.71C92.4362 164.334 62.8202 159.805 49.7979 133.799C34.881 104.023 53.9136 84.0874 74.0569 62.9633L76.9967 59.8769C85.2935 51.149 93.5468 43.2053 101.517 35.5147C125.471 12.5691 147.923 -9.13687 163.863 -45.3135L165.801 -44.1497C149.643 -7.56838 126.952 14.3653 102.911 37.4879C94.9405 45.0774 86.709 53.0717 78.4557 61.7743L75.5159 64.8607C56.0477 85.2511 37.6466 104.528 51.6707 132.534C64.1703 157.453 93.2419 161.905 121.355 166.206C153.628 171.265 187.011 176.325 197.334 211.743C202.974 231.147 195.94 256.065 189.755 278.05C188.166 283.666 186.663 288.953 185.4 293.836C177.582 326.167 172.334 356.399 166.563 388.401L164.168 401.885C157.962 436.67 137.818 463.259 118.437 488.962C102.889 509.479 86.8396 530.679 77.6064 556.129Z" fill="#B4B4B4"/>
<path d="M65.0849 556.104L63.0814 555.168C72.5107 527.643 89.9536 506.216 106.852 485.471C127.692 459.844 147.4 435.659 153.301 401.025C154.376 394.785 155.421 388.587 156.437 382.431C161.576 352.073 166.433 323.157 172.966 292.9C174.12 287.562 175.666 281.718 177.321 275.495C182.961 254.118 189.363 229.958 184.093 212.249C173.945 178.172 141.542 173.846 110.228 169.647C81.8092 165.827 52.4328 161.905 39.258 135.924C24.254 106.274 43.8528 85.4033 62.8855 65.1899L66.3697 61.4964C74.623 52.642 82.8763 44.5465 90.8465 36.7293C114.801 13.2525 137.317 -8.80767 153.323 -44.959L155.261 -43.7953C139.06 -7.28978 116.325 15.0233 92.2402 38.652C84.2917 46.4691 76.0602 54.5393 67.8505 63.3431L64.3663 67.062C45.1594 87.4777 27.0414 106.755 41.109 134.507C53.7394 159.401 82.4843 163.272 110.445 166.99C142.457 171.291 175.535 175.718 186.118 211.313C191.628 229.831 185.139 254.497 179.39 276.254C177.756 282.427 176.232 288.245 175.034 293.507C168.501 323.713 163.667 352.478 158.528 382.912C157.497 389.068 156.452 395.266 155.392 401.506C149.36 436.923 128.52 462.449 108.377 487.217C91.7611 507.784 74.3399 529.035 65.0849 556.104Z" fill="#B4B4B4"/>
<path d="M54.9807 553.397L52.9555 552.461C62.4065 524.632 80.0672 503.23 97.14 482.561C118.024 457.263 137.753 433.381 143.742 398.647C145.767 386.833 147.727 374.892 149.6 363.356C153.367 340.334 157.243 316.528 161.99 292.9C163.079 287.41 164.603 281.414 166.193 275.065C171.42 254.269 177.321 230.742 172.182 213.387C162.252 179.816 130.523 174.655 99.8403 169.646C72.0535 165.118 43.2214 160.438 30.2862 134.811C15.3475 105.389 34.0535 85.3777 53.8701 64.1777L56.9188 60.7371C64.9108 52.1357 72.881 44.2426 80.5899 36.6025C104.13 13.2522 126.32 -8.78267 142.413 -44.5039L144.33 -43.3149C128.171 -7.08769 105.763 15.2001 82.0707 38.6264C74.3836 46.2159 66.4352 54.1343 58.465 62.7104L55.3509 66.0498C36.1876 86.5161 18.1132 105.844 32.1808 133.52C44.6587 158.085 72.881 162.689 100.145 167.142C131.482 172.202 163.863 177.539 174.185 212.552C179.542 230.666 173.532 254.623 168.218 275.798C166.629 282.148 165.126 288.118 164.037 293.507C159.312 317.085 155.327 340.84 151.668 363.836C149.796 375.398 147.857 387.338 145.81 399.254C139.691 434.672 118.829 459.97 98.6426 484.408C81.7876 504.799 64.2793 525.999 54.9807 553.397Z" fill="#B4B4B4"/>
<path d="M46.2482 545.934L44.2448 544.998C53.7611 517.17 71.7049 496.172 89.039 475.832C110.249 450.964 130.284 427.462 136.163 392.727C138.058 381.419 141.39 366.771 144.874 351.263C155.414 304.866 168.523 247.11 159.508 215.74C150.057 182.852 119.679 176.249 90.2803 169.874C63.6912 164.106 36.1875 158.136 23.7096 132.812C9.16289 103.264 27.6076 83.3287 47.1193 62.2046L49.4276 59.6748C57.0711 51.377 64.6711 43.7622 71.9663 36.4257C94.6791 13.6572 116.129 -7.8464 131.656 -42.834L133.594 -41.6703C117.871 -6.25261 96.2688 15.4028 73.4035 38.3483C66.0866 45.6595 58.5302 53.249 50.9302 61.5216L48.6001 64.0514C29.0012 85.3273 11.9067 103.719 25.6041 131.547C37.5812 155.834 64.584 161.703 90.694 167.37C120.68 173.871 151.668 180.601 161.576 214.905C170.788 247.009 157.591 305.17 146.986 351.896C143.458 367.353 140.148 381.95 138.276 393.183C132.287 428.6 111.077 453.544 90.5633 477.603C73.4035 497.791 55.6121 518.637 46.2482 545.934Z" fill="#B4B4B4"/>
<path d="M38.6484 534.6L36.645 533.613C46.6404 506.392 64.5625 485.547 81.8748 465.308C104.588 438.922 126.037 413.978 130.741 376.081C132.178 364.595 135.096 349.593 138.145 333.731C145.745 294.392 155.218 245.44 148.62 217.359C141.259 186.065 111.012 176.3 81.7659 166.762C59.8152 159.654 37.1241 152.317 24.5373 135.823C3.41413 108.146 17.2422 88.0593 39.0622 62.6598C47.9906 52.2875 56.9189 43.1295 65.5642 34.2498C86.5132 12.7968 106.308 -7.49243 120.964 -40.4814L122.902 -39.3177C108.05 -5.89864 88.0593 14.5171 67.0014 36.1472C58.3997 45.0016 49.5802 54.1343 40.5866 64.456C18.9625 89.7543 6.26685 108.07 26.1705 134.153C38.3218 150.091 60.708 157.326 82.3538 164.334C112.188 173.972 143.045 183.94 150.71 216.625C157.461 245.314 147.923 294.595 140.257 334.212C137.209 350.023 134.312 364.975 132.897 376.384C128.084 415.091 105.393 441.502 83.4209 467.028C66.2392 487.166 48.4696 507.834 38.6484 534.6Z" fill="#B4B4B4"/>
<path d="M31.8977 520.307L29.8943 519.295C39.8897 493.086 58.2037 472.974 75.9733 453.519C99.6661 427.538 122.031 402.922 125.841 365.456C126.691 356.88 128.019 346.457 129.543 335.427C134.552 297.479 140.824 250.045 134.574 221.761C127.78 190.923 100.276 179.108 73.5997 167.673C53.4565 158.996 32.6381 149.965 20.8788 132.863C1.28001 104.251 14.8032 84.1131 34.4674 60.7627C42.8078 50.8458 51.1046 42.219 59.1401 33.8453C78.543 13.6066 96.857 -5.49359 110.206 -37.1924L112.166 -36.0793C98.6862 -3.97569 80.2197 15.2004 60.6645 35.6921C52.6507 44.0405 44.3974 52.6672 36.1006 62.5083C17.1986 84.9479 4.19808 104.276 22.6645 131.269C34.0318 147.915 54.567 156.719 74.4272 165.27C101.561 176.933 129.609 188.975 136.686 221.103C143.023 249.893 136.686 297.504 131.678 335.781C130.24 346.785 128.868 357.208 127.997 365.734C124.099 404.187 100.472 430.093 77.4759 455.391C59.9023 474.643 41.6753 494.578 31.8977 520.307Z" fill="#B4B4B4"/>
<path d="M25.713 503.964L23.7749 502.876C34.4236 477.35 52.8465 458.25 70.6814 439.782C93.1329 416.533 114.234 394.549 120.767 361.105C126.451 331.632 126.146 257.381 118.328 227.378C110.511 197.374 86.9266 184.016 64.0831 171.089C43.7003 159.528 22.7078 147.587 12.364 123.983C2.02017 100.38 14.8248 79.1041 26.9543 62.9132C36.111 50.9253 45.9235 39.6357 56.3307 29.1147C72.9244 11.7347 87.2533 -3.29249 99.6223 -33.6758L101.582 -32.6133C89.039 -1.7493 74.5576 13.4297 57.7897 31.012C47.4479 41.4481 37.7006 52.6535 28.6093 64.5576C16.9371 80.1667 4.65514 100.911 14.3239 122.744C24.2757 145.512 45.0069 157.352 65.0631 168.736C88.3204 181.917 112.383 195.552 120.441 226.568C128.324 256.926 128.629 331.834 122.923 361.585C116.39 395.839 94.8751 418.051 72.1404 441.604C54.4579 459.996 36.1874 478.919 25.713 503.964Z" fill="#B4B4B4"/>
<path d="M19.8986 486.483L17.9605 485.294C32.333 454.076 45.4207 438.947 69.3095 416.836L76.2344 410.487C99.2303 389.489 114.409 375.625 117.501 341.22C120.005 313.392 111.904 260.594 105.371 231.956C98.4682 201.826 78.5209 186.698 57.4631 170.658C41.784 158.743 25.5823 146.448 15.4998 127.474C-1.33341 95.8513 15.1732 74.5248 32.6597 51.9587L33.9663 50.2637C40.4992 41.8141 46.3789 35.0847 52.0625 28.4313C66.631 11.5573 78.1943 -1.77493 89.0825 -29.7549L91.0642 -28.7177C80.0017 -0.181149 68.3731 13.3029 53.6304 30.3539C47.9685 36.9062 42.1107 43.6861 35.643 52.0599L34.3147 53.7802C16.654 76.5487 1.41044 96.2561 17.3944 126.285C27.2156 144.753 43.2213 156.921 58.7697 168.66C79.3049 184.244 100.537 200.384 107.636 231.45C114.169 260.265 122.379 313.493 119.853 341.599C116.651 377.017 101.168 391.209 77.7369 412.586L70.8338 418.936C47.0103 440.693 34.0751 455.669 19.8986 486.483Z" fill="#B4B4B4"/>
<path d="M14.128 468.723L12.2334 467.484C27.1285 436.721 39.9549 422.706 64.9107 401C67.7199 398.47 70.5508 396.168 73.3164 393.84C94.5703 375.853 112.928 360.345 113.625 328.571C114.017 311.216 106.373 288.093 99.6442 267.526C96.0293 256.546 92.6322 246.199 90.5852 237.345C83.8781 208.378 67.3061 191.024 49.7325 172.682C36.2311 158.566 22.2724 143.969 13.4747 123.679C-2.531 86.8198 22.5337 54.6909 46.7492 23.6246C60.0546 6.57351 72.6196 -9.54153 78.3251 -26.0107L80.3503 -25.0747C74.4924 -8.17542 61.8185 8.0914 48.3606 25.3196C24.6243 55.6775 0.0821721 87.2498 15.4128 122.541C24.0145 142.4 37.8426 156.846 51.1915 170.785C68.2207 188.494 85.8161 206.987 92.5668 236.687C94.5921 245.415 97.9674 255.711 101.561 266.615C108.377 287.309 116.085 310.786 115.693 328.646C114.975 361.534 96.2035 377.523 74.4924 395.889C71.7268 398.217 68.9176 400.57 66.1084 403.023C41.5228 424.502 28.8489 438.365 14.128 468.723Z" fill="#B4B4B4"/>
<path d="M8.18286 451.647L6.33188 450.306C23.8837 417.418 39.1708 403.757 64.6928 382.507C66.8705 380.66 69.3312 378.712 71.9226 376.663C88.5163 363.507 111.229 345.52 111.447 321.613C111.578 306.662 101.626 289.738 92.0005 273.37C85.2063 261.808 78.7822 250.905 75.9295 240.912C69.3966 217.991 56.3307 198.107 43.7874 178.906C30.2425 158.237 16.2402 136.86 10.6219 111.916C2.69523 76.498 20.3995 52.4645 39.1708 26.9132C50.2768 11.7342 61.7748 -3.92541 67.6762 -22.292L69.7232 -21.4066C63.6911 -2.6352 52.0625 13.2269 40.8258 28.5576C22.4465 53.603 5.09065 77.2569 12.7342 111.283C18.2436 135.721 31.4837 155.96 45.5296 177.362C58.2252 196.741 71.3347 216.802 77.9983 240.102C80.7639 249.766 87.079 260.543 93.7862 271.928C103.607 288.624 113.755 305.903 113.625 321.639C113.385 346.937 90.1278 365.304 73.1639 378.737C70.5725 380.786 68.1335 382.734 65.9559 384.556C40.6734 405.604 25.5169 419.113 8.18286 451.647Z" fill="#B4B4B4"/>
<path d="M1.84602 435.937L-0.135645 434.9C6.05109 418.76 14.9978 404.25 26.161 392.251C37.3242 380.252 50.4707 371.015 64.8018 365.102C91.1731 354.274 105.088 333.378 106.177 302.944C103.477 290.573 94.592 283.388 85.1846 275.748C75.7772 268.108 66.4351 260.569 61.6442 247.338L61.6442 246.933C60.2596 220.695 51.7427 195.645 37.3199 175.39C21.9691 152.998 10.7734 127.158 4.43741 99.4947C1.80246 69.7692 17.0025 48.0379 31.7016 27.015C41.6752 12.8226 51.9319 -1.82509 56.9188 -18.9268L59.0964 -18.0919C53.87 -0.560187 43.5262 14.2393 33.509 28.5582C18.4179 50.1377 4.15432 70.5028 6.68039 98.9887C12.9467 126.254 23.9931 151.722 39.1274 173.796C53.7407 194.423 62.3686 219.889 63.7783 246.554C68.3514 259.001 77.5629 266.464 86.4694 273.674C96.2689 281.617 105.524 289.106 108.377 302.514L108.377 302.691L108.377 302.868C107.266 334.541 92.8499 356.273 65.5204 367.48C51.4711 373.29 38.5835 382.353 27.6384 394.12C16.6933 405.888 7.91859 420.114 1.84602 435.937V435.937Z" fill="#B4B4B4"/>
<path d="M-5.25317 422.883L-7.21304 421.795C6.28838 388.73 28.5222 365.835 58.8568 353.717C85.5548 343.8 99.6659 323.359 100.82 293.001C97.031 280.605 87.4058 277.468 77.2144 274.129C66.5439 270.638 54.458 266.666 47.9468 251.36L47.8161 250.854C47.121 224.299 40.3567 198.436 28.2173 175.921C15.2756 151.285 6.158 124.201 1.2798 95.9021C-0.505875 67.5174 11.5365 48.6448 24.2976 28.6592C32.8993 15.1752 41.7187 1.21049 46.2918 -16.043L48.4694 -15.3093C43.8746 2.39951 34.8591 16.4907 26.1268 30.2277C13.6271 49.8086 1.80243 68.3269 3.52277 95.5985C8.34493 123.521 17.3285 150.249 30.0683 174.58C42.385 197.378 49.2618 223.572 49.9938 250.475C56.113 264.667 67.1319 268.184 77.8023 271.751C88.4728 275.318 98.8384 278.657 102.954 292.47L102.954 292.698L102.954 292.951C101.822 324.548 87.2098 345.799 59.5101 356.196C29.807 367.986 8.00871 390.45 -5.25317 422.883Z" fill="#B4B4B4"/>
<path d="M-13.3539 413.194L-15.2702 412.03C0.343572 377.422 24.7986 353.692 57.3762 341.549C86.0993 331.101 97.3578 311.191 91.8048 280.833C80.4247 273.84 67.2068 272.035 54.7412 275.773L54.567 275.773L54.3928 275.773C47.0105 275.166 41.7189 272.586 38.6484 268.057C35.5779 263.529 34.8593 257.812 35.9263 250.349C34.214 230.632 30.1993 211.278 23.9928 192.82C13.001 164.17 4.09231 134.501 -2.63982 104.124C-6.47248 71.2365 4.52465 51.5291 16.1751 30.6073C23.492 17.4775 31.0702 3.86703 35.5344 -13.8418L37.712 -13.1334C33.1389 4.92957 25.4954 18.6918 18.1132 31.9988C6.68052 52.5157 -4.09884 71.8942 -0.396843 103.644C6.30307 133.848 15.168 163.348 26.1052 191.834C32.4153 210.582 36.4961 230.243 38.2346 250.273L38.2346 250.475C37.2329 257.381 37.9951 262.745 40.4123 266.438C42.8295 270.132 47.7727 272.611 54.4363 273.193C67.557 269.374 81.4343 271.433 93.3074 278.961L93.7429 279.239L93.7429 279.796C99.7532 311.52 87.689 333.099 57.9423 343.952C26.018 355.893 1.99856 379.193 -13.3539 413.194Z" fill="#B4B4B4"/>
<path d="M-22.6742 407.755L-24.5905 406.591C-8.88963 371.882 15.7395 348.405 48.6438 336.97C77.563 326.85 88.9738 307.017 83.4862 276.482C70.7048 270.54 56.4711 270.378 43.5917 276.026L43.265 276.026C35.3819 276.33 29.7636 274.306 26.5189 269.98C23.2742 265.654 22.5338 259.861 23.6662 252.069C21.7459 232.186 18.1501 212.57 12.9304 193.503C3.62189 163.676 -4.03724 133.188 -10.0002 102.227C-13.2231 70.199 -3.31487 50.947 7.15962 30.5819C13.6926 17.7556 20.5522 4.52457 24.755 -12.8301L26.9327 -12.147C22.5774 5.56181 15.7396 18.9193 9.09772 31.8721C-1.20255 51.8577 -10.9149 70.7556 -7.77905 101.822C-1.82906 132.641 5.79344 162.992 15.0427 192.693C20.3294 211.991 23.9762 231.844 25.931 251.967L25.931 252.322C24.8639 259.481 25.6479 264.971 28.2393 268.31C30.8307 271.65 36.0135 273.749 43.1126 273.37C56.637 267.493 71.5751 267.782 84.9234 274.179L85.4678 274.432L85.5985 275.09C91.5652 307.067 79.3922 328.621 49.3624 339.171C16.9373 350.682 -7.25642 373.678 -22.6742 407.755Z" fill="#B4B4B4"/>
<path d="M-33.0615 407.172L-34.9778 406.008C-19.3641 371.451 5.13445 348.151 37.8209 336.767C66.4352 326.648 77.9332 306.713 72.9029 276.203C59.8531 270.371 45.4048 270.371 32.3551 276.203L32.0284 276.203C24.1236 276.582 18.4617 274.609 15.1517 270.308C11.8416 266.008 11.0141 260.189 12.0594 252.372C9.75761 232.538 6.22795 212.923 1.49781 193.68C-6.64659 163.726 -13.7457 132.964 -19.4076 102.226C-22.4781 70.3757 -12.8747 50.4406 -2.77039 29.3165C3.28347 16.6673 9.53332 3.7652 13.6926 -12.6787L15.8703 -11.9451C11.515 4.75182 5.33046 17.8564 -0.766957 30.5561C-10.7406 51.3007 -20.148 70.8816 -17.1864 101.821C-11.481 132.331 -4.46895 163.043 3.67545 192.895C8.44517 212.331 12.0039 232.14 14.3241 252.169L14.3241 252.524C13.3442 259.708 14.1935 265.173 16.8502 268.563C19.507 271.953 24.7115 273.951 31.8542 273.622C45.5628 267.57 60.73 267.732 74.3401 274.078L74.8845 274.331L75.0152 274.988C80.5029 306.966 68.2427 328.545 38.5396 339.145C6.33216 350.377 -17.7309 373.272 -33.0615 407.172Z" fill="#B4B4B4"/>
<path d="M-41.6851 409.349L-43.6232 408.185C-36.6313 391.911 -26.8394 377.477 -14.8533 365.776C-2.86709 354.075 11.0584 345.356 26.0615 340.158C53.4346 329.659 64.4752 310.103 59.8151 280.352C47.4622 273.399 33.3831 271.776 20.0948 275.773L19.9424 275.773L19.8988 275.773C12.2552 275.47 6.8329 273.016 3.45755 268.513C0.0821922 264.01 -0.723547 258.393 0.147513 250.576C-2.48744 231.248 -5.75388 211.743 -9.52121 192.643C-16.2284 163.348 -22.1516 133.369 -27.1166 103.593C-29.7951 72.4508 -21.1934 50.4665 -12.1126 26.9138C-6.69359 13.7607 -2.17198 0.133663 1.41057 -13.8418L3.58821 -13.1587C-0.00619514 0.944402 -4.56471 14.6914 -10.0438 27.951C-19.0158 51.0484 -27.465 72.8809 -24.8736 103.214C-19.9304 132.838 -13.9854 162.766 -7.3218 192.036C-3.51092 211.288 -0.244444 230.919 2.41229 250.374L2.41229 250.728C1.60656 257.761 2.54294 263.2 5.19967 266.868C7.8564 270.537 12.9956 272.94 19.8988 273.244C33.7681 269.136 48.4449 270.931 61.2741 278.303L61.7749 278.582L61.7749 279.214C66.8706 310.331 55.0678 331.632 26.6713 342.46C11.942 347.577 -1.72546 356.155 -13.4839 367.661C-25.2423 379.167 -34.8411 393.356 -41.6851 409.349V409.349Z" fill="#B4B4B4"/>
<path d="M-48.3269 413.421L-50.2868 412.333C-44.1604 396.739 -35.2878 382.81 -24.2415 371.446C-13.1952 360.082 -0.2206 351.534 13.8449 346.355C39.5194 335.325 49.6672 315.997 44.8764 287.258C33.5626 278.54 20.0266 274.568 6.50629 276L6.22318 276C-7.90975 273.167 -14.2903 263.857 -12.7441 248.4C-25.9407 217.005 -29.7951 156.44 -32.343 116.317C-32.5607 112.649 -32.8003 109.158 -33.018 105.894C-35.0215 75.5364 -28.4449 50.2381 -21.4982 23.4218C-18.2535 10.8992 -14.9653 -2.02827 -12.4175 -15.6641L-10.2398 -15.1581C-12.7441 -1.42111 -16.0977 11.5822 -19.3642 24.1555C-26.2673 50.7693 -32.7785 75.8905 -30.7968 105.692C-30.579 108.955 -30.3613 112.447 -30.1217 116.14C-27.5521 156.213 -23.6977 216.752 -10.5229 247.691L-10.3923 248.02L-10.3923 248.4C-11.9166 262.668 -6.34186 270.89 6.61514 273.698C20.7292 272.242 34.8451 276.467 46.5967 285.664L46.9887 285.943L46.9887 286.448C52.1715 316.478 41.2833 337.501 14.6507 348.986C0.860086 354.017 -11.8695 362.35 -22.7169 373.449C-33.5644 384.547 -42.2886 398.164 -48.3269 413.421V413.421Z" fill="#B4B4B4"/>
<path d="M-53.3791 418.987L-55.4043 418.025C-50.4819 403.309 -42.8475 390.022 -33.0365 379.096C-23.2256 368.17 -11.4758 359.871 1.38874 354.779C24.8856 342.94 33.8139 323.789 28.5876 296.29C18.4235 285.387 5.5778 278.452 -8.14936 276.456L-8.36711 276.456C-21.5854 270.941 -27.5522 260.417 -26.115 245.187C-35.6966 217.03 -36.2192 173.062 -36.6548 137.694C-36.7854 127.322 -36.8943 117.456 -37.2209 108.854C-38.4404 76.8773 -34.6295 45.1026 -30.9493 14.3904C-29.6645 3.68923 -28.3361 -7.36614 -27.2255 -18.3203L-25.0479 -18.0167C-26.1585 -7.06255 -27.4869 4.01812 -28.7717 14.8711C-32.3648 45.305 -36.2628 76.9785 -35.0433 108.804C-34.7166 117.481 -34.6078 127.297 -34.4771 137.72C-34.0416 172.986 -33.519 216.878 -24.0026 244.605L-24.0026 244.909L-24.0026 245.212C-25.4181 259.455 -20.1264 268.892 -7.80093 274.078C6.43983 276.166 19.7517 283.416 30.2426 294.797L30.5039 295.075L30.5039 295.455C36.0787 324.118 26.497 344.913 2.06381 357.233C-10.4911 362.215 -21.9577 370.323 -31.5343 380.989C-41.1108 391.656 -48.5662 404.624 -53.3791 418.987V418.987Z" fill="#B4B4B4"/>
<path d="M-57.2552 425.615L-59.4329 424.906C-56.4841 411.943 -50.9066 399.988 -43.1666 390.041C-35.4266 380.094 -25.7492 372.445 -14.9436 367.732C4.91659 356.829 14.4329 338.487 13.3659 313.315C10.4043 297.099 -0.440423 289.206 -11.9166 280.832C-23.8719 272.13 -36.2409 263.124 -40.6616 243.821C-47.0638 215.993 -44.7338 181.031 -42.469 147.232C-41.3802 131.168 -40.2914 115.989 -40.2914 102.327C-40.2914 82.9996 -40.9011 63.4187 -41.4891 44.4955C-42.1641 22.8907 -42.861 0.552323 -42.6432 -21.5078L-40.4656 -21.5078C-40.6833 0.501725 -39.9865 22.8148 -39.3114 44.2678C-38.7235 63.2416 -38.1137 82.8225 -38.1137 102.201C-38.1137 115.963 -39.159 131.193 -40.2914 147.308C-42.469 180.879 -44.8644 215.613 -38.571 243.037C-34.3682 261.353 -22.3476 270.106 -10.7625 278.454C0.822611 286.803 12.3642 295.303 15.5217 312.759C16.7412 339.272 6.81115 358.296 -13.9854 369.832C-24.516 374.425 -33.9429 381.889 -41.4728 391.596C-49.0027 401.304 -54.4153 412.971 -57.2552 425.615Z" fill="#B4B4B4"/>
</g>
</g>
<defs>
<clipPath id="clip0_1277_78">
<rect width="320" height="374" fill="white"/>
</clipPath>
</defs>
</svg>
