<svg width="1290" height="640" viewBox="0 0 1290 640" fill="none" xmlns="http://www.w3.org/2000/svg">
<g clip-path="url(#clip0_1268_170)">
<g opacity="0.05">
<path d="M1160.19 -4.87461L1157.77 0.386661C1103.27 -19.2442 1089.02 -59.2416 1075.1 -97.8245C1061.04 -137.426 1047.75 -174.594 994.903 -193.433C962.406 -205.031 921.832 -209.953 882.53 -214.648C854.419 -217.564 826.519 -221.908 798.966 -227.66C789.427 -229.866 779.888 -232.299 769.84 -234.732C717.819 -247.687 664.017 -261.038 612.505 -251.987C537.845 -238.862 495.999 -189.134 451.673 -136.521C414.597 -92.45 376.249 -46.9086 317.106 -26.0331C224.893 6.43996 112.011 -47.9834 2.81859 -100.597C-58.1056 -129.958 -115.723 -157.735 -165.391 -167.806L-163.992 -173.463C-113.115 -163.167 -55.4982 -135.276 5.87113 -105.575C113.983 -53.5842 225.338 0.160374 314.753 -31.2943C371.988 -51.5476 410.146 -96.4668 446.586 -139.915C489.639 -190.831 534.22 -244.01 611.233 -257.531C664.272 -266.865 718.836 -253.288 771.557 -240.219C781.35 -237.787 791.017 -235.354 800.556 -233.148C827.811 -227.445 855.415 -223.157 883.23 -220.306C922.85 -215.497 963.869 -210.575 997.065 -198.695C1052.71 -178.837 1067.02 -138.557 1081.01 -99.5783C1095 -60.5993 1108.42 -23.4872 1160.19 -4.87461Z" fill="#B4B4B4"/>
<path d="M1184.73 -4.30852L1183.34 1.3488C1136.47 -8.26865 1122.73 -31.2938 1107.02 -57.9398C1101.03 -68.3705 1094.38 -78.4942 1087.12 -88.2632C1061.68 -121.415 1052.33 -124.187 1017.99 -134.483C1012.77 -136.067 1006.92 -137.821 1000.37 -139.858C970.101 -149.419 937.54 -156.83 906.06 -163.506C869.281 -171.027 833.032 -180.472 797.503 -191.792C788.028 -195.017 778.425 -198.468 768.504 -201.975C715.275 -220.984 660.392 -240.671 605.446 -231.789C525.571 -218.834 481.181 -163.449 434.121 -104.782C395.01 -56.186 355.008 -6.00562 292.749 16.6237C201.617 49.7756 95.6036 -9.90919 -7.03898 -67.5573C-64.7198 -99.9172 -118.903 -130.467 -166.472 -142.121L-164.819 -147.778C-116.041 -135.898 -61.2856 -105.178 -3.35045 -72.5922C97.893 -15.6796 202.571 43.2131 290.65 11.1361C351.002 -10.8143 390.685 -60.316 429.097 -108.233C474.758 -165.203 522.009 -224.152 604.428 -237.56C661.028 -246.725 716.928 -226.754 770.984 -207.406C780.778 -203.899 790.444 -200.448 799.92 -197.28C835.295 -186.059 871.398 -176.746 908.032 -169.389C939.829 -162.431 972.39 -155.189 1002.92 -145.628C1009.28 -143.592 1015.25 -141.838 1020.47 -140.254C1054.62 -130.014 1066.07 -126.563 1092.78 -91.8273C1100.21 -81.9124 1106.99 -71.6171 1113.06 -60.9948C1128.2 -34.2923 1140.73 -13.3602 1184.73 -4.30852Z" fill="#B4B4B4"/>
<path d="M1212.72 -7.42133L1212.21 -1.764C1170.81 -4.59266 1132.78 -24.9591 1096.02 -44.59C1067.27 -59.9779 1037.51 -75.9314 1006.1 -83.5688C966.031 -93.4126 916.426 -115.08 863.96 -138.049C772.829 -177.65 669.55 -222.909 596.861 -212.329C511.325 -199.77 461.657 -134.994 413.58 -72.3674C372.497 -18.8491 330.079 36.5361 265.085 60.9757C174.271 94.9196 75.9528 29.521 -19.0583 -33.9541C-72.4147 -69.5952 -122.782 -103.256 -168.634 -116.721L-166.599 -122.095C-119.793 -108.291 -69.0442 -74.4039 -15.2426 -38.4799C78.3694 24.0335 175.161 88.6967 262.605 55.7711C326.2 31.9537 367.791 -22.6961 408.365 -75.5355C457.142 -139.18 507.637 -204.975 595.78 -217.93C670.504 -228.905 774.736 -183.308 866.695 -143.084C918.907 -120.455 968.447 -98.7304 1007.75 -89.0564C1039.99 -81.1362 1070.14 -65.0694 1099.26 -49.4552C1137.23 -29.2585 1172.84 -10.1368 1212.72 -7.42133Z" fill="#B4B4B4"/>
<path d="M1242.8 -6.85464C1171.82 -5.38374 1063.84 -10.3056 994.457 -24.7318C937.603 -36.499 881.64 -71.518 822.369 -108.63C746.055 -156.491 666.815 -205.936 587.067 -199.487C498.415 -192.302 441.498 -116.89 386.551 -43.9666C346.995 8.42018 306.167 62.6172 254.146 89.3763C152.394 141.876 61.2621 70.085 -26.69 0.61312C-73.7504 -36.6121 -122.083 -75.0253 -170.606 -91.5447L-168.38 -96.806C-119.03 -79.834 -69.9347 -41.1379 -22.4927 -3.62987C63.7423 64.258 152.966 134.974 250.966 84.5111C301.843 58.3743 340 7.11889 381.273 -47.0783C437.046 -121.133 494.79 -197.676 586.494 -205.144C668.341 -211.763 748.344 -161.696 825.803 -113.212C884.501 -76.4964 940.274 -41.7603 995.602 -30.2194C1064.54 -15.9064 1171.82 -11.0411 1242.41 -12.512L1242.8 -6.85464Z" fill="#B4B4B4"/>
<path d="M1273.32 -17.8866L1273.32 -12.2293C1231.54 -12.5687 1191.98 0.386587 1153.76 12.8893C1105.37 28.6732 1055.38 45.0229 1000.24 34.8963C934.678 22.7897 872.418 -25.2976 812.321 -71.8008C738.55 -128.827 662.236 -187.776 578.609 -182.458C485.951 -176.518 424.454 -92.6197 364.993 -11.4371C320.985 48.5305 279.457 105.273 226.037 133.277C119.897 189.002 40.0213 111.836 -37.2469 37.1027C-79.9828 -4.13922 -124.118 -46.7954 -172.196 -66.596L-169.525 -71.7442C-120.366 -51.2647 -75.7855 -8.21247 -32.6044 33.5951C46.3808 109.912 121.041 181.987 222.73 128.582C274.878 101.2 316.024 45.0794 359.587 -14.379C419.939 -96.6931 482.262 -181.779 578.1 -187.889C664.399 -193.546 741.667 -133.692 816.391 -75.8741C875.916 -29.8801 937.222 17.7546 1001.45 29.5218C1054.81 39.309 1101.74 23.8645 1151.47 7.74109C1190.27 -5.10104 1230.33 -18.226 1273.32 -17.8866Z" fill="#B4B4B4"/>
<path d="M1303.47 -16.3029C1268.3 -7.0815 1232.75 13.1717 1195.35 34.613C1134.11 69.5186 1070.71 105.612 1005.78 93.2794C935.251 79.8715 871.019 22.1103 808.633 -33.784C734.544 -100.314 657.976 -169.164 570.024 -164.808C516.667 -162.205 462.993 -103.878 427.507 -65.2953L414.788 -51.7176C394.946 -30.7855 375.041 -5.10129 353.864 21.8276C309.347 79.0797 259.043 144.026 198.374 176.385C88.0996 235.335 18.4628 153.134 -48.8208 73.7051C-86.9779 28.4466 -126.852 -18.3395 -174.358 -41.3648L-171.305 -46.3432C-122.591 -22.7522 -82.2719 24.543 -43.7332 70.3107C24.886 151.324 89.8166 227.811 195.13 171.577C254.592 139.783 304.577 75.4024 348.649 18.8292C369.89 -8.49567 389.922 -34.2932 409.891 -55.395L422.61 -68.9159C458.796 -108.517 513.487 -167.749 569.706 -170.748C660.519 -175.217 738.106 -105.462 813.148 -38.027C874.581 17.245 938.176 74.3839 1006.86 87.4523C1069.25 99.3327 1131.51 63.8614 1191.67 29.578C1229.82 7.96706 1265.56 -12.5125 1301.56 -21.9603L1303.47 -16.3029Z" fill="#B4B4B4"/>
<path d="M1330.11 -17.3206C1290.68 -3.12073 1253.16 27.9379 1213.48 61.3161C1156.24 108.951 1097.23 158.226 1030.39 154.04C941.991 148.382 872.164 75.9686 804.626 5.93093C732.445 -69.0286 657.785 -146.477 562.964 -137.199C457.46 -126.903 397.235 -36.4424 338.982 51.0198C288.106 127.846 235.004 207.275 151.186 233.978C68.5119 260.228 40.7209 243.595 -7.29349 176.612C-21.4116 156.868 -33.1131 138.086 -44.433 120.039C-77.3117 67.2564 -105.675 21.6584 -175.375 -15.7365L-172.132 -20.5453C-100.969 17.3588 -72.1605 63.5792 -38.5823 117.097C-27.326 135.201 -15.6881 153.927 -1.63353 173.671C44.9817 238.786 70.4834 253.948 149.278 228.773C230.934 202.749 283.209 124.169 333.704 48.2478C392.72 -40.4025 453.771 -132.108 562.646 -142.687C661.155 -152.304 736.897 -73.6675 810.159 2.31033C876.488 71.4994 945.108 143.064 1030.83 148.439C1094.94 152.456 1153 104.029 1208.9 57.2429C1249.03 23.7515 1287 -7.8729 1327.51 -22.4688L1330.11 -17.3206Z" fill="#B4B4B4"/>
<path d="M1352.37 -13.3038C1278.98 18.4338 1249.6 49.4925 1208.9 92.4316C1196.18 106.066 1181.36 121.567 1163.87 138.482C1132.78 168.636 1085.53 208.407 1034.84 205.917C942.309 201.335 871.21 120.549 802.527 42.4209C730.219 -39.9497 654.796 -125.488 556.287 -116.267C447.03 -105.971 384.58 -10.4185 324.164 82.0222C271.317 162.978 216.625 246.65 130.263 274.371C115.509 290.495 99.3556 299.377 82.3121 300.734C63.8695 302.205 44.155 295.077 23.5501 279.067L22.9778 278.444L-23.7011 213.838C-36.4201 192.34 -46.9769 172.2 -56.8341 152.682C-84.7524 97.8061 -108.791 50.3411 -177.029 10.1741L-173.531 5.422C-103.577 46.5507 -79.3468 94.6381 -51.0469 150.363C-41.1897 169.767 -31.0145 189.964 -18.2319 210.953L28.0654 275.05C47.1439 289.702 65.205 296.435 81.7397 295.134C97.1933 293.889 112.075 285.46 125.875 270.185L126.384 269.562L127.274 269.562C211.919 242.577 266.229 159.527 318.695 79.1935C379.874 -14.4918 443.151 -111.289 555.587 -121.868C657.657 -131.429 733.654 -44.815 807.488 38.9134C875.344 116.023 945.553 195.791 1035.22 200.26C1083.17 202.636 1128.96 163.94 1159.17 134.635C1176.59 117.663 1190.97 102.389 1204.07 88.811C1245.21 45.3062 1274.98 13.8514 1349.57 -18.3954L1352.37 -13.3038Z" fill="#B4B4B4"/>
<path d="M1368.46 -2.72545C1291.57 33.4248 1261.11 69.4622 1219.08 119.247C1205.21 135.653 1189.57 154.209 1170.74 174.292C1146.51 200.203 1095.96 254.174 1038.15 251.571C942.754 247.272 870.765 160.432 801.255 76.1943C728.248 -12.0599 652.697 -103.369 551.644 -93.9779C439.717 -83.5118 375.613 15.8872 313.607 112.062C259.297 196.356 203.079 283.535 114.364 312.161C99.6098 328.737 83.4566 337.846 66.4131 339.26C48.0341 340.731 28.256 333.207 7.84194 316.97L7.14239 316.291L-35.9116 248.969C-47.9311 226.34 -56.9616 204.842 -65.6741 184.249C-89.5223 127.676 -110.191 79.0795 -177.983 36.8759L-174.358 32.237C-104.849 75.459 -83.9259 124.96 -59.8869 182.213C-51.238 202.749 -42.2711 223.964 -30.4424 246.367L12.23 313.066C31.3085 328.002 49.1788 334.904 65.6499 333.603C81.1035 332.358 95.9848 323.759 109.785 308.032L110.294 307.409L111.184 307.126C198.182 279.462 253.955 192.905 307.884 109.12C370.716 11.7575 435.646 -88.8864 550.817 -99.6918C655.495 -109.479 732.127 -16.812 806.216 72.7434C874.835 155.736 946.125 241.501 1038.27 245.631C1092.9 248.064 1142.06 195.62 1165.46 170.389C1184.1 150.418 1199.74 131.919 1213.54 115.569C1254.5 67.0859 1286.87 28.786 1365.09 -8.04318L1368.46 -2.72545Z" fill="#B4B4B4"/>
<path d="M1376.98 16.1704C1297.43 53.4521 1265.31 94.4111 1224.35 146.289C1209.92 164.675 1193.51 185.551 1173.48 207.897C1145.43 239.465 1098.56 292.248 1039.55 289.476C942.246 284.837 870.066 194.489 800.238 107.14C727.104 15.548 651.425 -79.1556 548.846 -69.3684C435.393 -58.5629 370.399 43.0992 307.567 141.48C252.366 227.867 195.321 317.14 105.08 346.275C90.2619 362.851 74.1087 372.016 57.0016 373.374C38.559 374.901 18.8445 367.434 -1.8239 351.197L-2.52345 350.405L-43.4151 281.442C-54.9259 257.512 -63.0024 235.335 -70.8882 213.837C-91.8111 156.698 -109.872 107.31 -179 64.4274L-175.375 59.7883C-104.53 103.746 -86.3419 153.983 -64.9103 212.083C-57.0881 233.468 -49.0115 255.532 -37.7552 279.066L2.75495 347.35C21.8335 362.229 39.8309 369.131 56.3657 367.773C71.8829 366.472 86.7641 357.873 100.564 342.145L101.137 341.466L102.027 341.183C190.488 312.897 247.151 224.416 301.97 138.651C365.565 39.0825 431.45 -63.8808 548.083 -74.9691C654.414 -85.1523 731.174 10.9657 805.389 103.859C874.327 190.133 945.299 279.236 1039.86 283.818C1095.51 286.421 1141.17 235.109 1168.39 204.616C1188.17 182.382 1203.75 162.525 1218.89 143.29C1260.09 90.7905 1292.59 49.3223 1373.55 11.3616L1376.98 16.1704Z" fill="#B4B4B4"/>
<path d="M1378 44.9094C1299.27 82.1912 1266.26 123.32 1224.48 175.367C1209.16 194.432 1193.38 214.12 1173.61 236.07C1143.46 269.505 1097.86 319.968 1040.06 317.479C942.628 313.236 870.256 222.776 800.238 135.314C726.976 43.7215 651.235 -50.9822 548.592 -41.4214C434.82 -30.7856 370.526 71.2726 307.821 170.049C253.256 256.493 196.02 346.105 106.033 375.297C91.2156 391.76 74.9989 400.812 57.8282 402.226C39.322 403.754 19.6711 396.569 -1.12452 380.445L-1.82407 379.653L-42.7794 310.351C-54.2901 286.138 -62.3667 263.678 -70.1889 241.954C-90.7937 184.532 -108.346 134.974 -178.301 92.3745L-174.676 87.6788C-103.258 131.41 -85.0702 181.817 -64.0838 240.427C-56.3251 262.038 -48.3121 284.327 -36.9922 308.314L3.51795 376.938C22.5965 391.647 40.6575 398.379 57.2558 397.021C72.8367 395.72 87.7815 387.177 101.772 371.563L102.345 370.884L103.172 370.884C191.696 342.598 247.978 253.665 302.352 167.673C365.565 67.652 430.941 -35.7074 548.02 -46.626C654.287 -56.5263 731.174 39.535 805.517 132.428C874.581 218.816 946.062 308.145 1040.44 312.218C1095 314.594 1139.33 265.432 1168.71 233.015C1188.42 211.235 1204.19 191.604 1219.58 172.595C1261.81 119.926 1295.2 78.3442 1375.27 40.4401L1378 44.9094Z" fill="#B4B4B4"/>
<path d="M1378 81.5131C1301.69 117.324 1266.64 155.963 1222.13 204.899C1206.8 221.871 1191.03 238.843 1171.95 258.191C1142.51 287.779 1093.09 337.394 1038.4 335.187C942.246 331.397 869.366 243.709 798.966 158.905C725.068 69.9156 648.627 -22.129 547.065 -12.6813C434.057 -2.15863 371.797 99.3902 311.763 197.601C258.916 283.762 204.288 372.978 115.127 402.114C100.309 418.576 84.1563 427.685 66.9856 429.099C48.543 430.627 28.8285 423.442 8.09648 407.318L7.39693 406.583L-35.2754 337.168C-47.2949 313.294 -56.0074 290.947 -64.4656 269.28C-87.0419 211.349 -106.566 161.338 -176.202 118.795L-172.577 114.156C-101.287 157.717 -81.4455 208.577 -58.1061 267.413C-49.7115 288.911 -41.0626 311.144 -29.2975 334.622L13.0569 403.358C32.1355 418.011 50.1965 424.799 66.7312 423.385C83.266 421.971 97.1933 413.541 111.248 397.927L111.82 397.305L112.711 397.022C200.09 368.735 254.273 280.368 306.739 194.829C367.727 95.3736 430.877 -7.53308 547.193 -18.3386C652.315 -28.1257 729.838 65.22 804.817 155.511C874.39 239.239 946.316 325.853 1039.42 329.474C1091.38 331.51 1139.52 283.253 1168.26 254.401C1187.34 235.336 1202.92 218.024 1218.19 201.279C1263.21 151.89 1298.7 112.798 1376.03 76.4215L1378 81.5131Z" fill="#B4B4B4"/>
<path d="M1377.87 125.074C1335.14 143.178 1292.53 182.213 1247.38 223.512C1180.03 285.176 1110.33 348.934 1034.71 345.427C940.847 341.071 867.586 258.304 796.677 178.253C721.698 93.3932 644.049 6.0442 544.331 16.1708C433.103 27.4855 374.532 127.846 317.869 224.926C268.074 310.295 216.562 398.549 129.055 428.024C114.492 444.43 98.4021 453.482 81.3585 454.953C62.916 456.48 43.2014 449.295 22.2786 433.059L21.5791 432.38L-23.8915 362.795C-36.6105 339.204 -46.4042 316.914 -55.6891 295.416C-81.1271 236.863 -103.004 186.286 -173.658 143.913L-170.097 139.274C-97.7891 182.609 -75.5307 233.921 -49.7111 293.38C-40.4262 314.821 -30.6325 336.941 -17.9135 360.136L27.239 429.099C46.3176 443.921 64.5694 450.71 81.1678 449.295C96.6214 447.994 111.375 439.452 124.985 423.894L125.557 423.272L126.384 423.272C212.11 394.985 263.177 307.297 312.591 222.606C369.826 124.169 429.415 22.3938 544.013 10.7963C647.356 0.386805 726.023 89.1502 802.083 174.859C872.037 254.061 944.472 335.64 1035.41 339.883C1108.17 343.277 1176.79 280.424 1243.18 219.665C1288.71 177.97 1331.77 138.595 1375.52 120.096L1377.87 125.074Z" fill="#B4B4B4"/>
<path d="M1377.62 174.01C1335.84 188.323 1292.15 219.268 1245.91 252.534C1175.39 302.94 1102.51 355.044 1030.07 349.613C940.338 342.881 866.695 267.356 795.468 194.32C714.829 111.61 638.706 33.4819 541.087 44.8531C432.34 57.5255 378.602 156.302 326.581 251.855C280.665 336.205 233.16 423.385 147.815 453.199C133.506 469.492 117.671 478.544 100.755 480.015C82.2483 481.655 62.2159 474.357 41.2295 457.894L40.6571 457.272L-8.56554 387.517C-22.3657 364.096 -33.1769 341.976 -43.6065 320.535C-72.5423 261.246 -97.4716 210.104 -169.907 167.787L-166.409 163.035C-92.384 206.144 -67.0731 258.078 -37.8193 318.158C-27.3897 339.487 -16.6422 361.55 -3.0328 384.576L45.9355 453.878C65.4592 468.926 83.7746 475.828 100.373 474.357C115.636 473.056 130.136 464.513 143.554 449.126L144.063 448.447L144.89 448.164C228.454 419.481 275.514 332.981 321.048 249.422C374.087 152.399 428.333 52.3209 540.388 39.2524C641.25 27.4852 722.079 110.422 800.301 190.586C870.638 262.773 943.454 337.676 1030.58 343.956C1100.53 349.217 1172.4 297.849 1241.97 248.121C1288.59 214.799 1332.66 183.344 1375.52 168.918L1377.62 174.01Z" fill="#B4B4B4"/>
<path d="M1377.3 226.849C1335.14 236.863 1290.49 259.039 1243.24 282.517C1170.36 318.724 1095 356.063 1024.54 349.33C940.148 341.184 866.123 273.749 794.515 208.576C711.141 132.372 631.902 60.4109 537.717 73.1965C432.213 87.7924 383.944 184.589 337.329 278.274C295.929 361.72 253.256 447.542 170.583 477.752C156.655 493.988 141.138 502.983 124.412 504.511C105.843 506.208 85.6194 498.853 64.2514 481.882L63.7426 481.316L10.3227 411.335C-4.74931 388.196 -16.8324 366.076 -28.4703 344.805C-61.4126 284.724 -89.7761 232.846 -164.691 190.869L-161.257 186.117C-84.9428 228.943 -56.0706 281.499 -22.7468 342.315C-11.1089 363.53 0.910631 385.537 15.4103 408.336L68.5123 477.865C88.354 493.253 106.669 500.494 123.522 498.74C138.594 497.383 152.839 488.897 165.813 473.565L166.322 472.943L167.148 472.66C248.169 443.581 290.587 358.439 331.542 276.068C378.92 181.025 427.825 82.7574 536.763 67.7089C634.255 54.2444 718.073 130.618 799.157 204.446C869.938 268.94 943.137 335.583 1025.3 343.56C1093.79 350.179 1168.2 313.18 1240.19 277.426C1287.82 253.778 1332.85 231.375 1375.71 221.192L1377.3 226.849Z" fill="#B4B4B4"/>
<path d="M1376.92 282.065C1334.63 287.156 1289.79 299.546 1242.29 312.614C1166.74 333.433 1088.64 354.987 1018.5 346.275C941.292 336.658 867.394 278.387 795.913 222.267C711.459 155.793 624.206 87.1133 533.901 101.992C432.149 118.964 389.794 213.554 348.903 305.09C312.335 387.121 274.496 471.868 193.921 502.304C106.669 535.286 76.2703 500.041 29.973 434.869C13.8198 412.24 0.401247 390.176 -12.5722 368.961C-49.8389 308.032 -82.0181 255.475 -159.731 213.724L-156.424 208.859C-77.4392 251.402 -44.7513 304.637 -7.10298 366.246C5.61605 387.404 19.2891 409.241 35.315 431.871C84.7285 501.456 112.71 526.857 191.378 497.099C270.045 467.342 306.866 383.953 342.925 303.053C384.452 210.047 427.379 113.872 532.693 96.4478C625.987 81.0599 714.448 150.702 799.792 218.024C870.637 273.692 943.835 331.17 1019.13 340.675C1087.88 349.217 1165.4 327.889 1240.19 307.24C1287.89 294.058 1332.97 281.612 1375.84 276.464L1376.92 282.065Z" fill="#B4B4B4"/>
<path d="M1376.47 332.641L1376.47 338.298C1336.09 338.298 1294.5 340.844 1250.36 343.56C1170.11 348.481 1087.05 353.573 1012.2 341.975C943.899 331.453 871.083 283.139 800.683 236.41C709.742 176.103 615.748 113.759 529.895 130.561C431.831 149.74 395.709 242.237 360.732 331.623C329.316 412.126 296.755 495.346 219.106 526.404C135.033 560.065 100.373 522.444 50.7056 458.233C33.3441 435.604 18.5264 413.88 4.21748 392.778C-37.6281 331.057 -73.6866 277.708 -154.389 236.127L-151.209 231.262C-69.1077 273.578 -32.6041 327.436 9.6231 389.667C23.932 410.712 38.6861 432.493 55.984 454.839C105.143 518.484 136.877 552.937 216.498 521.086C291.668 491.046 323.72 408.958 354.754 329.642C390.304 238.729 426.998 144.705 528.559 124.847C617.211 107.479 712.413 170.672 804.499 231.714C874.454 278.048 946.507 325.965 1013.28 336.262C1087.37 347.576 1170.04 342.654 1249.98 337.732C1294.12 335.187 1335.9 332.641 1376.47 332.641Z" fill="#B4B4B4"/>
<path d="M1376.92 388.479L1376.09 394.136C1282.35 383.331 1187.21 367.717 1095.19 352.668C1065.43 347.803 1035.73 342.938 1006.16 338.242C944.726 328.511 876.87 290.551 805.008 250.384C708.279 196.3 608.308 140.349 526.079 159.131C431.831 180.629 401.624 270.976 372.433 358.269C346.041 437.471 318.759 518.937 244.162 550.618C159.072 586.825 120.342 540.435 71.3104 481.712C52.677 459.422 36.5874 437.698 21.0066 416.653C-25.3543 354.139 -65.4192 300.168 -148.983 258.7L-145.931 253.778C-61.0312 295.812 -20.5846 350.405 26.2214 413.484C41.8022 434.473 58.019 456.141 76.3344 478.261C130.39 543.037 164.732 578.056 241.3 545.47C313.354 514.864 340.254 434.416 366.265 356.628C395.964 267.752 426.68 175.594 524.426 153.587C609.262 134.239 710.505 190.812 808.315 245.518C879.668 285.402 947.016 323.08 1007.24 332.641C1036.81 337.337 1066.57 342.202 1096.27 347.067C1188.1 362.116 1283.5 377.674 1376.92 388.479Z" fill="#B4B4B4"/>
<path d="M1377.24 442.506L1375.71 448.163C1315.23 434.981 1257.42 414.615 1201.46 394.928C1137.1 372.298 1070.58 348.877 1000.31 336.657C911.275 321.156 838.459 290.267 761.127 257.455C749.616 252.589 737.978 247.667 726.086 242.689C715.657 238.333 704.464 233.241 692.571 227.867C639.978 203.88 574.475 174.066 522.327 187.643C431.641 211.234 406.966 299.545 383.117 384.971C361.495 462.476 339.173 542.584 267.438 575C185.655 611.999 143.618 564.93 90.4525 505.415C70.738 483.352 53.4402 461.684 36.651 440.752C-14.2251 377.503 -57.7878 322.91 -144.086 281.498L-141.097 276.52C-53.4633 318.554 -7.16604 376.315 41.8658 437.471C58.5914 458.346 75.8257 479.957 95.4766 501.908C146.798 559.443 187.372 604.871 264.576 569.796C333.704 538.567 355.708 459.704 376.949 383.443C401.242 296.49 426.299 206.539 520.547 182.043C575.111 167.843 641.822 198.223 695.497 222.662C707.262 228.037 718.455 233.128 728.821 237.428C740.713 242.406 752.351 247.328 763.862 252.193C844.119 286.137 913.501 315.386 1001.58 330.717C1072.36 343.107 1139.2 366.641 1203.81 389.384C1259.52 409.128 1317.14 429.607 1377.24 442.506Z" fill="#B4B4B4"/>
<path d="M1377.49 493.366L1375.46 498.684C1314.91 480.524 1259.97 451.502 1206.8 423.442C1141.04 388.649 1073.25 352.725 995.348 338.582C894.295 320.026 815.055 293.606 721.888 261.02C711.014 257.229 699.312 252.704 686.911 247.895C634.254 227.472 568.751 202.014 518.893 216.384C431.131 241.672 411.417 328.285 392.338 412.07C374.977 488.161 357.043 566.911 287.979 599.95C209.121 637.684 163.141 589.031 109.912 532.685L107.305 529.856C86.6363 507.962 68.1937 486.408 50.3871 465.589C-4.17758 401.717 -51.3652 346.785 -139.89 305.204L-136.964 300.169C-47.1043 342.089 2.94509 400.416 55.4747 462.194C73.2178 482.957 91.5967 504.455 112.138 526.179L114.809 529.007C168.356 585.581 210.647 630.556 284.926 594.972C351.383 563.177 369.062 485.785 386.106 410.939C405.502 325.57 425.599 237.316 516.921 211.009C569.069 195.961 635.844 221.871 689.455 242.69C701.792 247.499 713.43 251.968 724.178 255.758C816.963 288.231 895.885 314.538 996.492 333.037C1075.22 347.464 1143.72 383.671 1209.92 418.689C1262.96 446.58 1317.58 475.376 1377.49 493.366Z" fill="#B4B4B4"/>
<path d="M1377.68 539.529L1375.33 544.734C1313.13 522.67 1259.2 486.237 1207.06 451.049C1141.62 406.865 1074.02 361.154 991.342 345.766C899.155 329.039 808.144 307.542 718.773 281.385C707.262 277.991 694.797 273.861 681.633 269.449C629.231 252.024 563.982 230.3 516.286 245.009C430.496 271.429 414.533 356.684 399.716 439.168C385.979 514.184 371.734 591.916 304.705 625.407C228.39 663.764 178.85 613.584 126.638 560.461L121.105 554.804C99.6738 533.136 80.3408 511.639 61.7074 490.876C6.25246 429.211 -46.4043 370.941 -136.264 329.586L-133.339 324.551C-41.9527 366.472 10.8314 425.195 66.6679 487.369C85.3013 508.074 104.825 529.516 125.875 551.07L131.408 556.727C184.128 610.246 229.662 656.466 301.652 620.372C366.01 588.126 380.001 511.921 393.483 438.206C408.937 354.082 424.899 267.129 514.314 239.634C564.236 224.247 630.63 246.367 683.986 264.074C697.087 268.487 709.424 272.617 720.935 275.954C810.071 302.062 900.85 323.502 992.804 340.165C1076.69 356.062 1144.92 401.943 1210.87 446.579C1262.7 481.542 1316.31 517.748 1377.68 539.529Z" fill="#B4B4B4"/>
<path d="M1377.75 579.526L1375.27 584.731C1310.33 560.405 1256.66 518.371 1204.77 477.751C1137.8 425.364 1074.52 375.919 988.543 360.022L954.71 353.799C874.135 339.09 798.075 325.173 716.546 304.75C704.145 301.639 690.727 297.735 676.609 293.436C622.298 277.652 560.738 259.492 513.932 273.748C428.651 299.489 416.059 384.349 403.849 466.663C392.847 541 381.464 617.94 316.088 651.77C241.236 690.523 191.123 641.078 138.021 588.748L130.263 581.11C108.322 559.556 88.3534 538.115 69.0205 517.409C11.3397 455.178 -43.2249 396.852 -134.166 355.44L-131.241 350.405C-39.2821 392.382 15.8549 451.331 73.9809 513.788C93.0595 534.494 113.156 555.879 135.032 577.32L142.791 584.957C194.049 635.534 242.508 683.338 312.908 646.905C375.549 614.432 386.742 538.907 397.553 465.871C410.272 382.029 422.991 295.302 512.024 268.487C560.802 253.834 623.443 272.107 678.707 288.174C692.825 292.304 706.117 296.208 718.391 299.489C799.665 319.799 875.662 333.433 956.109 348.425L990.006 354.648C1077.45 370.771 1144.29 423.101 1208.9 473.452C1260.48 513.845 1313.77 555.539 1377.75 579.526Z" fill="#B4B4B4"/>
<path d="M1377.68 612.057L1375.33 617.262C1306.14 592.765 1252.27 547.45 1200.12 503.549C1135.7 449.409 1074.91 398.21 987.844 382.879C972.157 380.088 956.576 377.372 941.101 374.732C864.787 361.381 792.098 348.765 716.038 331.793C702.619 328.795 687.929 324.778 672.284 320.478C618.547 305.826 557.813 289.193 513.297 302.884C427.634 329.247 416.759 413.428 406.202 494.781C396.599 568.609 386.742 644.926 321.43 679.153C246.896 718.132 194.43 667.216 143.618 617.771L134.333 608.719C112.075 587.278 91.7242 565.837 72.0733 545.131C13.057 482.9 -42.398 424.404 -133.276 382.822L-130.35 377.787C-38.5823 419.878 17.5086 478.94 76.9065 541.51C96.5574 562.159 116.844 583.544 138.975 604.872L148.324 613.924C199.645 663.821 248.105 710.89 317.869 674.344C380.446 641.531 390.176 566.855 399.525 494.215C410.336 411.052 421.465 325.117 510.944 297.623C557.495 283.31 619.5 300.169 674.192 315.104C689.71 319.347 704.336 323.307 717.564 326.419C793.497 343.391 865.805 355.95 942.31 369.301C957.784 371.979 973.365 374.694 989.052 377.448C1078.09 393.118 1142.25 447.259 1204.51 499.589C1256.22 542.755 1309.64 588.013 1377.68 612.057Z" fill="#B4B4B4"/>
<path d="M1370.88 638.306L1368.52 643.568C1298.57 619.015 1244.77 573.134 1192.81 528.78C1129.22 474.527 1069.18 423.271 981.866 407.714C952.167 402.452 922.15 397.361 893.151 392.496C835.279 382.708 775.436 372.638 716.038 360.305C702.238 357.477 687.166 353.517 671.204 349.387C618.929 335.809 559.785 320.478 516.159 333.829C431.768 359.627 418.795 442.054 406.203 521.765C394.819 593.953 383.054 668.856 318.632 702.46C244.671 741.269 194.367 692.673 141.074 641.191L132.426 633.271C110.803 612.509 90.9615 591.803 71.7557 571.776C13.0574 510.62 -42.334 452.972 -132.13 411.165L-129.141 406.186C-38.0732 448.164 17.9542 506.377 76.8433 567.929C95.9219 587.899 115.827 608.549 137.386 629.254L145.78 637.344C197.229 687.129 245.816 734.085 315.389 697.538C377.14 665.122 388.714 591.803 399.907 520.973C412.626 439.564 426.044 355.44 514.06 328.624C559.594 314.707 619.819 330.322 673.048 344.125C689.01 348.255 704.019 352.159 717.565 354.987C776.835 367.264 836.551 377.617 894.359 387.121C923.422 391.986 953.439 397.021 983.392 402.339C1072.43 418.236 1136.02 472.433 1197.45 524.877C1248.71 568.665 1302 614.149 1370.88 638.306Z" fill="#B4B4B4"/>
<path d="M1352.12 660.992L1349.76 666.197C1279.81 641.474 1227.02 594.858 1175.89 549.826C1113.38 494.723 1054.3 442.676 966.984 427.401C938.557 422.479 901.736 413.824 862.752 404.772C746.118 377.39 600.93 343.333 522.072 366.755C439.399 391.308 422.8 470.227 406.774 546.601C392.275 615.677 377.266 687.129 313.608 719.545C239.328 757.336 189.215 709.419 136.113 658.729L129.754 652.732C108.895 632.875 89.7525 613.131 71.3099 594.179C14.0743 535.173 -39.9816 479.449 -127.934 439.112L-125.008 434.077C-35.9751 474.923 18.4623 531.043 76.1432 590.445C94.5222 609.454 113.601 629.085 134.396 648.829L140.756 654.882C194.239 705.798 240.473 750.208 310.428 714.623C371.479 683.508 386.233 613.357 400.478 545.526C416.822 467.625 433.739 387.121 519.974 361.38C600.676 337.45 746.881 371.733 864.342 399.284C903.198 408.449 939.893 417.048 968.129 421.914C1057.16 437.471 1119.87 492.574 1180.35 545.866C1231.09 590.445 1283.5 636.665 1352.12 660.992Z" fill="#B4B4B4"/>
<path d="M1323.63 680.736L1321.15 685.941C1252.72 659.974 1200.32 613.414 1149.44 568.438C1083.11 509.432 1020.4 453.708 925.139 441.488C896.266 437.754 858.555 430.173 818.68 422.253C719.79 402.509 596.733 377.9 526.143 395.041C447.475 414.163 422.928 492.743 398.952 568.721C381.082 625.747 362.639 684.696 321.175 717.396C251.602 772.272 201.108 736.348 137.258 679.661C111.184 656.466 88.1628 633.271 65.8409 610.812C11.9122 556.388 -39.0911 504.963 -122.019 466.889L-119.094 461.854C-35.0846 500.437 16.2367 552.371 70.6106 607.078C92.8689 629.424 115.827 652.336 141.774 675.701C205.369 731.878 251.412 764.861 316.978 713.153C357.043 681.585 375.231 623.428 392.847 567.194C417.077 489.688 442.133 409.524 524.298 389.61C596.415 372.073 720.299 396.852 819.889 416.765C859.636 424.686 897.22 432.21 925.902 435.887C1023.2 448.39 1089.6 507.339 1153.76 564.422C1204.39 609.058 1256.34 655.222 1323.63 680.736Z" fill="#B4B4B4"/>
<path d="M1287.69 698.274L1285.15 703.479C1219.27 677.512 1168.71 629.934 1119.8 583.77C1054.49 522.218 992.614 464.117 898.429 454.217C876.87 452.011 850.669 448.56 822.942 444.6C727.549 431.588 608.308 415.295 537.209 431.531C459.686 449.182 429.987 520.634 401.242 589.936C379.429 642.266 356.726 696.351 313.735 726.9C241.809 777.816 191.187 742.684 132.489 691.598C107.56 669.931 85.8738 648.376 64.8238 627.501C13.9477 577.094 -34.0666 529.516 -113.751 494.837L-110.953 489.745C-30.2509 524.764 17.9542 572.738 69.4663 623.541C90.4527 644.36 112.139 665.801 136.877 687.355C193.286 736.461 241.873 770.235 309.729 722.261C351.574 692.73 373.706 639.381 395.201 587.787C424.518 517.296 454.789 444.43 535.555 426.044C607.926 409.581 727.612 426.044 823.832 439.055C851.496 442.789 877.697 446.353 899.129 448.616C995.793 458.743 1060.91 520.125 1124.51 579.866C1172.91 625.521 1223.02 672.873 1287.69 698.274Z" fill="#B4B4B4"/>
<path d="M1246.61 714.341L1243.88 719.376C1179.71 691.712 1131.7 643.851 1085.27 597.518C1026.83 539.191 971.563 484.371 887.49 467.399C813.402 452.634 626.75 453.426 551.326 473.736C475.902 494.045 442.324 555.314 409.827 614.659C380.764 667.612 350.747 722.149 291.413 749.021C232.078 775.893 178.595 742.628 137.894 711.117C107.759 687.328 79.3787 661.837 52.9308 634.8C9.24095 591.691 -28.5346 554.466 -104.912 522.332L-102.241 517.24C-24.6553 549.827 13.5018 587.448 57.7005 631.009C83.9347 657.876 112.103 683.199 142.028 706.817C181.266 737.14 233.414 769.048 288.297 743.929C345.532 718.075 375.295 664.218 403.913 612.114C437.046 551.693 471.323 489.18 549.291 468.248C625.605 447.768 813.91 446.976 888.698 461.799C974.806 478.771 1030.64 534.665 1089.85 593.727C1136.08 639.665 1183.65 687.13 1246.61 714.341Z" fill="#B4B4B4"/>
<path d="M1202.67 729.447L1199.68 734.482C1121.2 697.143 1083.17 663.143 1027.59 601.082L1011.63 583.092C958.844 523.35 923.994 483.919 837.505 475.885C767.55 469.379 634.827 490.425 562.837 507.397C487.095 525.33 449.065 577.151 408.746 631.858C378.793 672.591 347.886 714.681 300.189 740.874C220.695 784.606 167.084 741.723 110.358 696.295L106.097 692.9C84.8559 675.928 67.9396 660.654 51.2141 645.888C8.7961 608.04 -24.7186 578 -95.0548 549.713L-92.4474 544.565C-20.7121 573.305 13.1841 603.515 56.0473 641.815C72.5184 656.524 89.5619 671.742 110.612 688.544L114.936 691.995C172.172 737.876 221.713 777.477 297.2 735.952C343.625 710.438 374.214 668.857 403.722 628.463C442.897 575.115 483.47 519.956 561.565 501.513C634 484.541 767.805 463.213 838.459 469.776C927.492 478.092 963.169 518.315 1016.91 579.188L1032.87 597.122C1087.56 659.013 1125.21 692.617 1202.67 729.447Z" fill="#B4B4B4"/>
<path d="M1158.02 744.438L1154.91 749.36C1077.58 710.664 1042.34 677.342 987.78 612.509C981.421 605.211 975.633 597.857 969.783 590.672C924.566 535.456 885.583 487.765 805.707 485.955C762.081 484.937 703.955 504.794 652.252 522.275C624.652 531.666 598.641 540.491 576.383 545.809C503.566 563.234 459.94 606.286 413.834 651.941C378.348 687.016 341.653 723.28 290.65 746.135C197.992 787.716 117.226 722.601 39.131 659.691C-3.73212 625.125 -44.2423 592.482 -85.6427 577.66L-83.2897 572.399C-40.8081 587.617 0.0835775 620.543 43.3919 655.505C119.706 717.17 199.073 780.928 287.788 741.1C337.71 718.754 374.023 682.83 409.064 648.15C453.581 603.91 500.069 558.199 574.729 540.661C596.67 535.4 622.553 526.631 649.963 517.296C701.983 499.589 761 479.562 805.898 480.58C888.572 482.447 928.764 531.213 974.934 587.617C980.784 594.802 986.699 602.1 992.868 609.398C1046.86 673.269 1081.71 706.194 1158.02 744.438Z" fill="#B4B4B4"/>
<path d="M1115.1 759.883L1111.73 764.691C1029.05 719.093 994.712 679.379 941.292 613.075C936.649 607.418 931.752 601.025 926.601 594.293C893.532 551.184 848.316 492.178 788.218 491.612C750.633 491.273 708.088 517.127 666.942 542.132C637.879 559.783 610.47 576.472 585.35 583.883C527.732 600.855 477.747 634.799 429.478 667.385C377.521 702.574 323.783 738.951 261.078 753.546C172.045 774.139 111.629 728.145 47.398 679.379C9.24092 650.527 -30.1245 620.656 -76.2946 605.325L-74.0687 600.007C-26.8811 615.678 12.993 645.888 51.5317 675.079C114.491 722.827 173.952 767.916 259.488 748.059C320.921 733.746 371.797 699.349 425.599 662.86C474.312 629.877 524.743 595.82 583.314 578.509C607.608 571.324 634.699 554.918 663.317 537.493C705.29 511.979 748.726 485.616 788.282 485.955C851.877 486.577 898.047 546.998 931.816 591.068C936.967 597.8 941.864 604.137 946.443 609.794C999.354 675.475 1033.31 714.85 1115.1 759.883Z" fill="#B4B4B4"/>
<path d="M1075.61 776.345L1073 781.493C1032.42 765.421 995.949 742.178 965.787 713.177C935.624 684.176 912.404 650.023 897.539 612.792C870.32 544.282 817.79 508.131 741.285 505.303C710.187 512.318 692.126 535.4 672.921 559.839C653.715 584.279 634.763 608.549 601.503 620.995L600.486 620.995C534.529 624.592 471.557 646.718 420.639 684.187C364.35 724.067 299.393 753.152 229.853 769.613C155.129 776.458 100.5 736.97 47.6529 698.783C11.976 672.873 -24.8456 646.227 -67.8359 633.271L-65.7373 627.614C-21.6659 641.192 15.5373 668.064 51.5322 694.088C105.779 733.293 156.973 770.348 228.581 763.786C297.121 747.507 361.142 718.809 416.632 679.492C468.486 641.527 532.501 619.113 599.532 615.451C630.821 603.57 649.581 579.64 667.706 556.501C687.675 531.043 706.499 507 740.204 499.589L740.649 499.589L741.095 499.589C820.716 502.474 875.344 539.925 903.517 610.925C918.122 647.424 940.905 680.904 970.486 709.339C1000.07 737.773 1035.83 760.569 1075.61 776.345V776.345Z" fill="#B4B4B4"/>
<path d="M1042.79 794.788L1040.06 799.88C956.937 764.804 899.383 707.043 868.921 628.237C843.992 558.878 792.607 522.218 716.292 519.22C685.131 529.064 677.245 554.069 668.851 580.545C660.074 608.266 650.09 639.664 611.615 656.58L610.343 656.919C543.588 658.725 478.574 676.298 421.974 707.835C360.045 741.456 291.961 765.143 220.823 777.816C149.469 782.455 102.027 751.17 51.7867 718.018C17.8905 695.672 -17.214 672.76 -60.5859 660.879L-58.7417 655.222C-14.2251 667.159 21.1974 690.58 55.7296 713.266C104.952 745.739 151.504 776.459 220.059 771.989C290.25 759.462 357.441 736.123 418.604 703.027C475.915 671.029 541.759 653.164 609.389 651.262C645.066 635.365 653.906 606.739 662.873 579.018C671.839 551.297 680.234 524.368 714.957 513.676L715.529 513.676L716.165 513.676C795.596 516.618 849.015 554.578 875.153 626.539C904.788 703.705 961.261 760.335 1042.79 794.788Z" fill="#B4B4B4"/>
<path d="M1018.43 815.833L1015.51 820.811C928.509 780.248 868.857 716.717 838.332 632.083C812.067 557.463 762.017 528.215 685.703 542.641C668.123 572.205 663.587 606.544 672.984 638.929L672.984 639.381L672.984 639.834C671.458 659.012 664.971 672.759 653.588 680.736C642.204 688.713 627.832 690.58 609.071 687.808C559.508 692.256 510.856 702.686 464.456 718.81C392.434 747.366 317.852 770.51 241.491 787.999C158.817 797.956 109.277 769.387 56.6835 739.12C23.6776 720.111 -10.5366 700.424 -55.0532 688.826L-53.2725 683.169C-7.86558 695.049 26.7302 714.906 60.1812 734.085C111.757 763.786 160.471 791.79 240.283 782.172C316.211 764.766 390.367 741.736 461.975 713.322C509.107 696.929 558.53 686.328 608.88 681.811L609.389 681.811C626.75 684.413 640.233 682.433 649.518 676.154C658.802 669.874 665.035 657.032 666.497 639.721C656.897 605.634 662.074 569.582 680.997 538.737L681.697 537.606L683.096 537.606C762.844 521.992 817.091 553.333 844.373 630.612C874.39 713.549 932.961 775.949 1018.43 815.833Z" fill="#B4B4B4"/>
<path d="M1004.76 840.046L1001.84 845.024C914.583 804.235 855.566 740.251 826.821 654.769C801.383 579.639 751.524 549.995 674.765 564.252C659.83 597.456 659.421 634.434 673.62 667.894L673.62 668.742C674.384 689.222 669.296 703.818 658.421 712.247C647.546 720.677 632.983 722.6 613.396 719.658C563.414 724.647 514.103 733.989 466.173 747.549C391.193 771.731 314.553 791.629 236.722 807.12C156.21 815.493 107.814 789.752 56.6202 762.541C24.3774 745.569 -8.88288 727.748 -52.5092 716.83L-50.7921 711.172C-6.27545 722.487 27.3028 740.251 59.8635 757.506C110.104 784.265 157.609 809.496 235.704 801.35C313.178 785.892 389.475 766.09 464.138 742.061C512.648 728.327 562.554 718.853 613.141 713.775L614.032 713.775C632.029 716.547 645.829 714.51 654.224 707.778C662.618 701.046 667.897 687.581 666.943 669.138C652.169 634.003 652.896 595.195 668.978 560.518L669.614 559.103L671.267 558.764C751.652 543.263 805.835 574.887 832.354 652.902C861.29 737.139 919.098 799.992 1004.76 840.046Z" fill="#B4B4B4"/>
<path d="M1003.3 867.032L1000.37 872.011C913.501 831.448 854.93 767.803 826.312 682.886C800.874 608.549 750.761 578.679 674.065 591.747C659.404 625.649 659.404 663.184 674.065 697.086L674.065 697.935C675.019 718.471 670.059 733.18 659.247 741.779C648.436 750.378 633.809 752.528 614.159 749.813C564.301 755.792 514.993 764.962 466.618 777.251C391.321 798.409 313.989 816.852 236.721 831.561C156.655 839.538 106.542 814.589 53.44 788.339C21.6424 772.612 -10.7911 756.375 -52.1279 745.57L-50.2837 739.912C-8.31092 751.227 24.6314 767.294 56.5562 783.134C108.704 809.045 157.927 833.484 235.704 825.79C312.399 810.968 389.604 792.752 464.646 771.593C513.503 759.202 563.3 749.957 613.65 743.929L614.54 743.929C632.601 746.475 646.338 744.268 654.859 737.366C663.381 730.464 668.405 716.943 667.578 698.387C652.363 662.774 652.772 623.371 668.723 588.013L669.359 586.599L671.013 586.259C751.397 572.003 805.644 603.854 832.29 681.019C860.526 764.691 918.08 827.205 1003.3 867.032Z" fill="#B4B4B4"/>
<path d="M1008.77 889.435L1005.84 894.47C964.932 876.306 928.648 850.867 899.234 819.728C869.82 788.589 847.901 752.412 834.834 713.435C808.442 642.323 759.283 613.64 684.495 625.747C667.015 657.839 662.935 694.415 672.984 728.936L672.984 729.332L672.984 729.446C672.221 749.303 666.052 763.39 654.733 772.158C643.413 780.927 629.294 783.02 609.644 780.758C561.057 787.603 512.025 796.089 464.011 805.876C390.367 823.301 315.007 838.688 240.156 851.587C161.87 858.546 106.606 836.199 47.3987 812.608C14.3344 798.53 -19.9215 786.783 -55.0531 777.476L-53.336 771.819C-17.8834 781.157 16.6739 793 50.0061 807.234C108.069 830.542 162.951 852.492 239.202 845.76C313.672 832.918 388.905 817.474 462.484 800.162C510.88 790.262 560.23 781.776 609.135 774.874L610.025 774.874C627.705 776.967 641.378 774.534 650.599 767.633C659.82 760.731 665.862 747.379 666.625 729.446C656.299 693.414 660.811 655.285 679.344 621.956L680.043 620.655L681.633 620.655C759.855 607.417 813.402 638.08 840.621 711.851C853.485 750.117 875.047 785.623 903.971 816.171C932.895 846.718 968.564 871.655 1008.77 889.435V889.435Z" fill="#B4B4B4"/>
</g>
</g>
<defs>
<clipPath id="clip0_1268_170">
<rect width="1290" height="640" fill="white"/>
</clipPath>
</defs>
</svg>
