<svg width="1225" height="145" viewBox="0 0 1225 145" fill="none" xmlns="http://www.w3.org/2000/svg">
<g opacity="0.6">
<path d="M30.0134 117.573C12.7104 117.573 3.27235 108.135 2.90935 95.793L11.1374 95.793C11.6214 104.263 17.1874 110.676 30.1344 110.676C41.8714 110.676 45.8644 105.231 45.8644 99.181C45.8644 90.106 36.6684 89.138 28.0774 87.081C16.7034 84.177 5.20836 81.394 5.20836 69.415C5.20836 59.372 13.1944 52.838 27.1094 52.838C43.2024 52.838 50.7044 61.429 51.7934 71.593L43.5654 71.593C42.4764 66.148 39.2094 59.735 27.2304 59.735C18.3974 59.735 13.4364 63.123 13.4364 68.931C13.4364 76.675 21.7854 77.764 31.1024 80.063C42.7184 82.846 54.2134 86.113 54.2134 98.939C54.2134 110.192 45.2594 117.573 30.0134 117.573ZM118.305 82.362C118.305 84.056 118.305 85.75 118.184 86.718L69.2996 86.718C69.4206 99.181 76.0756 110.918 90.5956 110.918C103.301 110.918 108.262 102.206 109.472 97.124L117.458 97.124C114.433 108.377 105.963 117.694 90.4746 117.694C71.5986 117.694 61.0716 103.9 61.0716 85.145C61.0716 65.422 72.6876 52.717 90.4746 52.717C108.262 52.717 118.305 65.18 118.305 82.362ZM69.2996 79.821L109.956 79.821C109.956 68.81 102.817 59.493 90.1116 59.493C78.1326 59.493 69.9046 68.326 69.2996 79.821ZM158.611 52.838C169.622 52.838 178.818 59.009 178.818 72.682L178.818 116L170.953 116L170.953 74.376C170.953 66.511 167.323 59.735 156.675 59.735C144.938 59.735 137.194 67.963 137.194 77.038L137.194 116L129.329 116L129.329 54.29L137.194 54.29L137.194 63.123L137.436 63.123C140.945 58.041 147.6 52.838 158.611 52.838ZM237.792 64.696L237.792 29.485L245.657 29.485L245.657 116L237.792 116L237.792 105.957L237.55 105.957C234.041 112.007 227.507 117.573 216.738 117.573C201.734 117.573 189.634 105.473 189.634 85.145C189.634 64.938 201.734 52.838 216.738 52.838C227.507 52.838 233.92 58.162 237.55 64.696L237.792 64.696ZM217.706 110.676C229.564 110.676 237.792 100.754 237.792 85.145C237.792 69.657 229.564 59.735 217.706 59.735C204.88 59.735 197.862 71.351 197.862 85.145C197.862 99.06 204.88 110.676 217.706 110.676Z" fill="url(#paint0_linear_1325_417)"/>
<line x1="253" y1="72" x2="333" y2="72" stroke="#383838" stroke-dasharray="6 6"/>
<path d="M363 42.5C363.586 58.8198 376.68 71.9143 393 72.5C376.68 73.0858 363.586 86.1802 363 102.5C362.414 86.1802 349.32 73.0857 333 72.5C349.32 71.9143 362.414 58.8198 363 42.5Z" fill="#BDB6FF"/>
<line x1="393" y1="72" x2="473" y2="72" stroke="#383838" stroke-dasharray="6 6"/>
<mask id="path-6-inside-1_1325_417" fill="white">
<path d="M506.231 117.936C484.572 117.936 476.102 107.53 475.618 95.43L493.768 95.43C494.373 101.601 498.487 104.626 505.868 104.626C511.555 104.626 514.096 102.811 514.096 99.302C514.096 93.736 507.925 93.131 498.971 91.074C488.081 88.533 476.828 84.177 476.828 71.593C476.828 59.977 486.508 52.112 503.932 52.112C523.776 52.112 531.52 62.155 532.125 73.045L513.975 73.045C513.37 68.084 510.708 65.422 504.295 65.422C498.971 65.422 496.672 67.358 496.672 70.383C496.672 74.497 500.302 74.739 509.619 76.917C521.84 79.821 533.94 83.451 533.94 97.85C533.94 110.797 524.139 117.936 506.231 117.936ZM570.463 116L552.313 116L535.01 54.048L554.37 54.048L563.687 91.8L563.929 91.8L574.335 54.048L591.275 54.048L601.681 91.8L602.044 91.8L611.361 54.048L630.116 54.048L612.813 116L594.663 116L582.684 76.796L582.442 76.796L570.463 116ZM651.096 117.936C638.996 117.936 631.373 110.797 631.373 99.786C631.373 86.96 641.9 81.999 655.089 79.216C661.865 77.764 671.424 76.796 671.424 70.625C671.424 67.237 668.762 65.059 663.196 65.059C656.057 65.059 652.79 67.963 652.185 74.013L633.793 74.013C634.398 62.155 643.11 51.991 664.043 51.991C680.862 51.991 690.179 58.767 690.179 77.764L690.179 101.722C690.179 104.989 690.542 106.441 692.478 106.441C692.962 106.441 693.325 106.441 694.051 106.32L694.051 115.516C690.179 116.242 686.186 116.605 683.403 116.605C675.659 116.605 672.755 113.701 671.787 108.498L671.545 108.498C667.189 113.943 660.05 117.936 651.096 117.936ZM659.203 104.626C666.947 104.626 671.424 98.092 671.424 90.953L671.424 85.75C668.883 86.718 665.979 87.444 660.897 88.654C653.758 90.348 651.217 93.373 651.217 97.729C651.217 102.448 654.242 104.626 659.203 104.626ZM739.723 52.112C756.179 52.112 766.706 64.696 766.706 85.024C766.706 105.352 756.179 117.936 739.723 117.936C730.769 117.936 724.235 113.096 721.815 109.829L721.573 109.829L721.573 137.417L702.213 137.417L702.213 54.048L721.573 54.048L721.573 60.219L721.815 60.219C724.235 56.952 730.769 52.112 739.723 52.112ZM734.399 103.416C742.264 103.416 746.862 97.124 746.862 85.024C746.862 72.924 742.264 66.632 734.399 66.632C726.534 66.632 721.936 72.924 721.936 85.024C721.936 97.124 726.534 103.416 734.399 103.416Z"/>
</mask>
<path d="M475.618 95.43L475.618 93.43L473.537 93.43L473.62 95.5099L475.618 95.43ZM493.768 95.43L495.759 95.2349L495.582 93.43L493.768 93.43L493.768 95.43ZM498.971 91.074L498.517 93.0217L498.524 93.0232L498.971 91.074ZM532.125 73.045L532.125 75.045L534.24 75.045L534.122 72.9341L532.125 73.045ZM513.975 73.045L511.99 73.2871L512.205 75.045L513.975 75.045L513.975 73.045ZM509.619 76.917L510.082 74.9712L510.075 74.9695L509.619 76.917ZM506.231 115.936C495.702 115.936 488.685 113.407 484.273 109.691C479.89 106 477.84 100.941 477.617 95.3501L473.62 95.5099C473.88 102.019 476.308 108.213 481.696 112.75C487.054 117.262 495.102 119.936 506.231 119.936L506.231 115.936ZM475.618 97.43L493.768 97.43L493.768 93.43L475.618 93.43L475.618 97.43ZM491.778 95.6251C492.123 99.1448 493.51 102.007 496.074 103.939C498.577 105.826 501.94 106.626 505.868 106.626L505.868 102.626C502.416 102.626 500.032 101.914 498.481 100.745C496.991 99.6218 496.019 97.8863 495.759 95.2349L491.778 95.6251ZM505.868 106.626C508.856 106.626 511.387 106.162 513.22 104.947C515.21 103.628 516.096 101.618 516.096 99.302L512.096 99.302C512.096 100.495 511.712 101.147 511.01 101.613C510.151 102.182 508.568 102.626 505.868 102.626L505.868 106.626ZM516.096 99.302C516.096 97.5045 515.584 95.9576 514.536 94.6854C513.527 93.4614 512.143 92.6407 510.658 92.0247C507.79 90.8351 503.707 90.1097 499.419 89.1248L498.524 93.0232C503.19 94.0953 506.67 94.7009 509.125 95.7195C510.302 96.2077 511.021 96.7104 511.449 97.2296C511.837 97.7005 512.096 98.3165 512.096 99.302L516.096 99.302ZM499.426 89.1263C494.023 87.8657 488.815 86.2104 484.978 83.4718C481.256 80.8151 478.828 77.1536 478.828 71.593L474.828 71.593C474.828 78.6164 478.027 83.4249 482.654 86.7275C487.166 89.9481 493.03 91.7413 498.517 93.0217L499.426 89.1263ZM478.828 71.593C478.828 66.4054 480.959 62.1353 485.04 59.1016C489.184 56.0208 495.491 54.112 503.932 54.112L503.932 50.112C494.95 50.112 487.705 52.1357 482.653 55.8914C477.538 59.6942 474.828 65.1646 474.828 71.593L478.828 71.593ZM503.932 54.112C513.528 54.112 519.91 56.5376 523.938 60.0097C527.951 63.4691 529.851 68.1579 530.128 73.1559L534.122 72.9341C533.795 67.0421 531.52 61.2645 526.549 56.9799C521.593 52.7079 514.181 50.112 503.932 50.112L503.932 54.112ZM532.125 71.045L513.975 71.045L513.975 75.045L532.125 75.045L532.125 71.045ZM515.961 72.8029C515.622 70.0281 514.665 67.5629 512.594 65.8367C510.549 64.1329 507.743 63.422 504.295 63.422L504.295 67.422C507.261 67.422 508.992 68.0421 510.033 68.9096C511.047 69.7547 511.724 71.1009 511.99 73.2871L515.961 72.8029ZM504.295 63.422C501.445 63.422 499.065 63.9308 497.346 65.1259C495.509 66.4026 494.672 68.2903 494.672 70.383L498.672 70.383C498.672 69.4507 498.985 68.8579 499.629 68.4103C500.39 67.8812 501.822 67.422 504.295 67.422L504.295 63.422ZM494.672 70.383C494.672 71.719 494.974 72.9724 495.797 74.0483C496.589 75.0838 497.703 75.7398 498.895 76.2273C500.086 76.714 501.544 77.1062 503.202 77.5013C504.817 77.8861 506.924 78.3408 509.164 78.8645L510.075 74.9695C507.656 74.4042 505.815 74.0119 504.129 73.6102C502.487 73.2188 501.29 72.885 500.409 72.5247C499.529 72.1652 499.154 71.8532 498.974 71.6182C498.825 71.4236 498.672 71.104 498.672 70.383L494.672 70.383ZM509.157 78.8628C515.307 80.3243 521.037 81.8934 525.245 84.731C529.281 87.4535 531.94 91.3571 531.94 97.85L535.94 97.85C535.94 89.944 532.55 84.833 527.481 81.4147C522.583 78.1116 516.152 76.4137 510.082 74.9712L509.157 78.8628ZM531.94 97.85C531.94 103.753 529.743 108.142 525.627 111.13C521.413 114.188 514.966 115.936 506.231 115.936L506.231 119.936C515.405 119.936 522.812 118.115 527.976 114.367C533.237 110.548 535.94 104.894 535.94 97.85L531.94 97.85ZM570.463 116L570.463 118L571.943 118L572.375 116.584L570.463 116ZM552.313 116L550.386 116.538L550.795 118L552.313 118L552.313 116ZM535.01 54.048L535.01 52.048L532.374 52.048L533.083 54.586L535.01 54.048ZM554.37 54.048L556.311 53.5688L555.936 52.048L554.37 52.048L554.37 54.048ZM563.687 91.8L561.745 92.2792L562.12 93.8L563.687 93.8L563.687 91.8ZM563.929 91.8L563.929 93.8L565.452 93.8L565.857 92.3315L563.929 91.8ZM574.335 54.048L574.335 52.048L572.811 52.048L572.406 53.5166L574.335 54.048ZM591.275 54.048L593.203 53.5166L592.798 52.048L591.275 52.048L591.275 54.048ZM601.681 91.8L599.752 92.3315L600.157 93.8L601.681 93.8L601.681 91.8ZM602.044 91.8L602.044 93.8L603.61 93.8L603.985 92.2792L602.044 91.8ZM611.361 54.048L611.361 52.048L609.794 52.048L609.419 53.5688L611.361 54.048ZM630.116 54.048L632.042 54.586L632.751 52.048L630.116 52.048L630.116 54.048ZM612.813 116L612.813 118L614.331 118L614.739 116.538L612.813 116ZM594.663 116L592.75 116.584L593.182 118L594.663 118L594.663 116ZM582.684 76.796L584.596 76.2116L584.164 74.796L582.684 74.796L582.684 76.796ZM582.442 76.796L582.442 74.796L580.961 74.796L580.529 76.2116L582.442 76.796ZM570.463 114L552.313 114L552.313 118L570.463 118L570.463 114ZM554.239 115.462L536.936 53.51L533.083 54.586L550.386 116.538L554.239 115.462ZM535.01 56.048L554.37 56.048L554.37 52.048L535.01 52.048L535.01 56.048ZM552.428 54.5272L561.745 92.2792L565.628 91.3208L556.311 53.5688L552.428 54.5272ZM563.687 93.8L563.929 93.8L563.929 89.8L563.687 89.8L563.687 93.8ZM565.857 92.3315L576.263 54.5795L572.406 53.5166L562 91.2686L565.857 92.3315ZM574.335 56.048L591.275 56.048L591.275 52.048L574.335 52.048L574.335 56.048ZM589.346 54.5795L599.752 92.3315L603.609 91.2686L593.203 53.5166L589.346 54.5795ZM601.681 93.8L602.044 93.8L602.044 89.8L601.681 89.8L601.681 93.8ZM603.985 92.2792L613.302 54.5272L609.419 53.5688L600.102 91.3208L603.985 92.2792ZM611.361 56.048L630.116 56.048L630.116 52.048L611.361 52.048L611.361 56.048ZM628.189 53.51L610.886 115.462L614.739 116.538L632.042 54.586L628.189 53.51ZM612.813 114L594.663 114L594.663 118L612.813 118L612.813 114ZM596.575 115.416L584.596 76.2116L580.771 77.3805L592.75 116.584L596.575 115.416ZM582.684 74.796L582.442 74.796L582.442 78.796L582.684 78.796L582.684 74.796ZM580.529 76.2116L568.55 115.416L572.375 116.584L584.354 77.3805L580.529 76.2116ZM655.089 79.216L655.502 81.1729L655.508 81.1716L655.089 79.216ZM652.185 74.013L652.185 76.013L653.995 76.013L654.175 74.212L652.185 74.013ZM633.793 74.013L631.795 73.9111L631.688 76.013L633.793 76.013L633.793 74.013ZM694.051 106.32L696.051 106.32L696.051 103.959L693.722 104.347L694.051 106.32ZM694.051 115.516L694.419 117.482L696.051 117.176L696.051 115.516L694.051 115.516ZM671.787 108.498L673.753 108.132L673.449 106.498L671.787 106.498L671.787 108.498ZM671.545 108.498L671.545 106.498L670.584 106.498L669.983 107.249L671.545 108.498ZM671.424 85.75L673.424 85.75L673.424 82.8479L670.712 83.8811L671.424 85.75ZM660.897 88.654L661.359 90.6L661.36 90.5996L660.897 88.654ZM651.096 115.936C645.435 115.936 641.027 114.271 638.055 111.522C635.098 108.788 633.373 104.81 633.373 99.786L629.373 99.786C629.373 105.773 631.459 110.87 635.339 114.459C639.203 118.032 644.657 119.936 651.096 119.936L651.096 115.936ZM633.373 99.786C633.373 94.0377 635.679 90.1725 639.48 87.3383C643.403 84.414 648.98 82.5491 655.502 81.1729L654.676 77.2591C648.009 78.666 641.728 80.673 637.089 84.1315C632.33 87.6801 629.373 92.7083 629.373 99.786L633.373 99.786ZM655.508 81.1716C658.696 80.4884 663.075 79.8272 666.49 78.5664C669.868 77.3194 673.424 75.0716 673.424 70.625L669.424 70.625C669.424 72.3494 668.2 73.6712 665.105 74.8139C662.046 75.9429 658.257 76.4917 654.67 77.2604L655.508 81.1716ZM673.424 70.625C673.424 68.3359 672.486 66.3141 670.556 64.9416C668.723 63.6383 666.194 63.059 663.196 63.059L663.196 67.059C665.764 67.059 667.348 67.5688 668.238 68.2014C669.03 68.765 669.424 69.5262 669.424 70.625L673.424 70.625ZM663.196 63.059C659.396 63.059 656.253 63.826 653.962 65.7287C651.636 67.6608 650.529 70.4762 650.195 73.814L654.175 74.212C654.446 71.4999 655.275 69.8382 656.518 68.8059C657.796 67.7441 659.857 67.059 663.196 67.059L663.196 63.059ZM652.185 72.013L633.793 72.013L633.793 76.013L652.185 76.013L652.185 72.013ZM635.79 74.1149C636.068 68.6648 638.19 63.7144 642.569 60.0972C646.975 56.4571 653.883 53.991 664.043 53.991L664.043 49.991C653.269 49.991 645.355 52.6069 640.021 57.0134C634.659 61.4427 632.122 67.5033 631.795 73.9111L635.79 74.1149ZM664.043 53.991C672.242 53.991 678.172 55.6526 682.065 59.2269C685.923 62.7688 688.179 68.5611 688.179 77.764L692.179 77.764C692.179 67.97 689.776 60.8758 684.771 56.2804C679.801 51.7175 672.662 49.991 664.043 49.991L664.043 53.991ZM688.179 77.764L688.179 101.722L692.179 101.722L692.179 77.764L688.179 77.764ZM688.179 101.722C688.179 103.306 688.246 104.893 688.766 106.099C689.058 106.777 689.527 107.422 690.259 107.87C690.972 108.305 691.752 108.441 692.478 108.441L692.478 104.441C692.235 104.441 692.244 104.395 692.345 104.457C692.464 104.53 692.479 104.608 692.439 104.514C692.385 104.389 692.308 104.124 692.254 103.623C692.201 103.133 692.179 102.512 692.179 101.722L688.179 101.722ZM692.478 108.441C693.011 108.441 693.498 108.44 694.38 108.293L693.722 104.347C693.151 104.442 692.912 104.441 692.478 104.441L692.478 108.441ZM692.051 106.32L692.051 115.516L696.051 115.516L696.051 106.32L692.051 106.32ZM693.682 113.55C689.915 114.257 686.046 114.605 683.403 114.605L683.403 118.605C686.325 118.605 690.443 118.227 694.419 117.482L693.682 113.55ZM683.403 114.605C679.74 114.605 677.584 113.911 676.262 112.909C674.985 111.94 674.185 110.451 673.753 108.132L669.821 108.864C670.357 111.748 671.493 114.313 673.845 116.096C676.154 117.847 679.322 118.605 683.403 118.605L683.403 114.605ZM671.787 106.498L671.545 106.498L671.545 110.498L671.787 110.498L671.787 106.498ZM669.983 107.249C665.997 112.231 659.427 115.936 651.096 115.936L651.096 119.936C660.672 119.936 668.38 115.655 673.107 109.747L669.983 107.249ZM659.203 106.626C668.391 106.626 673.424 98.8227 673.424 90.953L669.424 90.953C669.424 97.3614 665.502 102.626 659.203 102.626L659.203 106.626ZM673.424 90.953L673.424 85.75L669.424 85.75L669.424 90.953L673.424 90.953ZM670.712 83.8811C668.316 84.7938 665.546 85.4912 660.434 86.7084L661.36 90.5996C666.412 89.3969 669.45 88.6422 672.136 87.619L670.712 83.8811ZM660.435 86.7081C656.698 87.5948 653.872 88.8917 651.973 90.772C650.001 92.7243 649.217 95.1157 649.217 97.729L653.217 97.729C653.217 95.9863 653.703 94.6873 654.787 93.6145C655.943 92.4699 657.957 91.4073 661.359 90.6L660.435 86.7081ZM649.217 97.729C649.217 100.542 650.14 102.894 652.077 104.491C653.948 106.032 656.471 106.626 659.203 106.626L659.203 102.626C656.974 102.626 655.504 102.131 654.621 101.404C653.806 100.732 653.217 99.6347 653.217 97.729L649.217 97.729ZM721.815 109.829L723.422 108.639L722.822 107.829L721.815 107.829L721.815 109.829ZM721.573 109.829L721.573 107.829L719.573 107.829L719.573 109.829L721.573 109.829ZM721.573 137.417L721.573 139.417L723.573 139.417L723.573 137.417L721.573 137.417ZM702.213 137.417L700.213 137.417L700.213 139.417L702.213 139.417L702.213 137.417ZM702.213 54.048L702.213 52.048L700.213 52.048L700.213 54.048L702.213 54.048ZM721.573 54.048L723.573 54.048L723.573 52.048L721.573 52.048L721.573 54.048ZM721.573 60.219L719.573 60.219L719.573 62.219L721.573 62.219L721.573 60.219ZM721.815 60.219L721.815 62.219L722.822 62.219L723.422 61.4095L721.815 60.219ZM739.723 54.112C747.398 54.112 753.561 57.0243 757.842 62.2173C762.158 67.4522 764.706 75.186 764.706 85.024L768.706 85.0241C768.706 74.5341 765.99 65.8119 760.928 59.6728C755.832 53.4918 748.504 50.112 739.723 50.112L739.723 54.112ZM764.706 85.024C764.706 94.8621 762.158 102.596 757.842 107.831C753.561 113.024 747.398 115.936 739.723 115.936L739.723 119.936C748.504 119.936 755.832 116.556 760.928 110.375C765.99 104.236 768.706 95.514 768.706 85.0241L764.706 85.024ZM739.723 115.936C731.462 115.936 725.502 111.447 723.422 108.639L720.208 111.019C722.968 114.746 730.075 119.936 739.723 119.936L739.723 115.936ZM721.815 107.829L721.573 107.829L721.573 111.829L721.815 111.829L721.815 107.829ZM719.573 109.829L719.573 137.417L723.573 137.417L723.573 109.829L719.573 109.829ZM721.573 135.417L702.213 135.417L702.213 139.417L721.573 139.417L721.573 135.417ZM704.213 137.417L704.213 54.048L700.213 54.048L700.213 137.417L704.213 137.417ZM702.213 56.048L721.573 56.048L721.573 52.048L702.213 52.048L702.213 56.048ZM719.573 54.048L719.573 60.219L723.573 60.219L723.573 54.048L719.573 54.048ZM721.573 62.219L721.815 62.219L721.815 58.219L721.573 58.219L721.573 62.219ZM723.422 61.4095C725.502 58.6015 731.462 54.112 739.723 54.112L739.723 50.112C730.075 50.112 722.968 55.3026 720.208 59.0286L723.422 61.4095ZM734.399 105.416C738.945 105.416 742.695 103.555 745.225 99.8947C747.681 96.3409 748.862 91.2793 748.862 85.024L744.862 85.024C744.862 90.8688 743.743 95.0032 741.934 97.6204C740.199 100.131 737.717 101.416 734.399 101.416L734.399 105.416ZM748.862 85.024C748.862 78.7688 747.681 73.7072 745.225 70.1534C742.695 66.4934 738.945 64.632 734.399 64.632L734.399 68.632C737.717 68.632 740.199 69.9167 741.934 72.4277C743.743 75.0449 744.862 79.1793 744.862 85.024L748.862 85.024ZM734.399 64.632C729.852 64.632 726.102 66.4934 723.573 70.1534C721.116 73.7072 719.936 78.7688 719.936 85.024L723.936 85.024C723.936 79.1793 725.054 75.0449 726.863 72.4277C728.599 69.9167 731.08 68.632 734.399 68.632L734.399 64.632ZM719.936 85.024C719.936 91.2793 721.116 96.3409 723.573 99.8947C726.102 103.555 729.852 105.416 734.399 105.416L734.399 101.416C731.08 101.416 728.599 100.131 726.863 97.6204C725.054 95.0032 723.936 90.8688 723.936 85.024L719.936 85.024Z" fill="#BDB6FF" mask="url(#path-6-inside-1_1325_417)"/>
<line x1="770" y1="72" x2="850" y2="72" stroke="#383838" stroke-dasharray="6 6"/>
<path d="M880 42.5C880.586 58.8198 893.68 71.9143 910 72.5C893.68 73.0858 880.586 86.1802 880 102.5C879.414 86.1802 866.32 73.0857 850 72.5C866.32 71.9143 879.414 58.8198 880 42.5Z" fill="#BDB6FF"/>
<line x1="910" y1="72" x2="990" y2="72" stroke="#383838" stroke-dasharray="6 6"/>
<path d="M1026.59 52.717C1041.71 52.717 1053.81 64.817 1053.81 85.145C1053.81 105.352 1041.71 117.452 1026.59 117.452C1015.82 117.452 1009.41 112.128 1005.78 105.473L1005.53 105.473L1005.53 116L997.67 116L997.67 29.485L1005.53 29.485L1005.53 64.212L1005.78 64.212C1009.41 58.283 1015.82 52.717 1026.59 52.717ZM1025.74 110.555C1038.57 110.555 1045.59 98.939 1045.59 85.145C1045.59 71.23 1038.57 59.493 1025.74 59.493C1013.88 59.493 1005.53 69.536 1005.53 85.145C1005.53 100.633 1013.88 110.555 1025.74 110.555ZM1106.16 93.252L1106.16 54.29L1114.03 54.29L1114.03 116L1106.16 116L1106.16 107.288L1105.92 107.288C1102.41 112.37 1095.76 117.452 1084.75 117.452C1073.74 117.452 1064.54 111.281 1064.54 97.608L1064.54 54.29L1072.4 54.29L1072.4 95.914C1072.4 103.779 1076.03 110.555 1086.68 110.555C1098.42 110.555 1106.16 102.327 1106.16 93.252ZM1134.04 137.659C1132.1 137.659 1130.65 137.538 1128.11 137.175L1128.11 130.399C1129.93 130.641 1130.89 130.762 1132.83 130.762C1138.64 130.762 1143.36 127.011 1146.75 115.637L1121.82 54.29L1130.53 54.29L1150.62 105.715L1150.86 105.715L1169.98 54.29L1178.45 54.29L1153.76 117.815C1147.71 133.182 1142.27 137.659 1134.04 137.659Z" fill="url(#paint1_linear_1325_417)"/>
</g>
<defs>
<linearGradient id="paint0_linear_1325_417" x1="-1.27637e-05" y1="73" x2="253" y2="73" gradientUnits="userSpaceOnUse">
<stop stop-color="#BDB6FF"/>
<stop offset="1" stop-color="#7B70DF"/>
</linearGradient>
<linearGradient id="paint1_linear_1325_417" x1="990" y1="73" x2="1180" y2="73" gradientUnits="userSpaceOnUse">
<stop stop-color="#BDB6FF"/>
<stop offset="1" stop-color="#7B70DF"/>
</linearGradient>
</defs>
</svg>
