<svg width="32" height="32" viewBox="0 0 32 32" fill="none" xmlns="http://www.w3.org/2000/svg">
<path d="M3.4375 7.56655L15.0439 0.865585C15.3772 0.673135 15.7939 0.913697 15.7939 1.2986V9.94155C15.7939 10.1202 15.6986 10.2852 15.5439 10.3746L11.4225 12.754C11.2678 12.8434 11.0772 12.8434 10.9225 12.754L3.4375 8.43257C3.10417 8.24012 3.10417 7.759 3.4375 7.56655Z" fill="#A399FF"/>
<path d="M2.4375 22.7005V9.2986C2.4375 8.9137 2.85417 8.67313 3.1875 8.86558L10.6725 13.1871C10.8272 13.2764 10.9225 13.4414 10.9225 13.6201V18.379C10.9225 18.5577 10.8272 18.7227 10.6725 18.8121L3.1875 23.1335C2.85417 23.326 2.4375 23.0854 2.4375 22.7005Z" fill="#A399FF"/>
<path d="M15.0439 31.1335L3.4375 24.4326C3.10417 24.2401 3.10417 23.759 3.4375 23.5666L10.9225 19.2451C11.0772 19.1558 11.2678 19.1558 11.4225 19.2451L15.5439 21.6246C15.6986 21.7139 15.7939 21.8789 15.7939 22.0576V30.7005C15.7939 31.0854 15.3772 31.326 15.0439 31.1335Z" fill="#A399FF"/>
<path d="M28.6503 24.4326L17.0439 31.1335C16.7106 31.326 16.2939 31.0854 16.2939 30.7005V22.0576C16.2939 21.8789 16.3892 21.7139 16.5439 21.6246L20.6653 19.2451C20.82 19.1558 21.0106 19.1558 21.1653 19.2451L28.6503 23.5666C28.9836 23.759 28.9836 24.2401 28.6503 24.4326Z" fill="#A399FF"/>
<path d="M21.4153 18.8121L28.9003 23.1335C29.2336 23.326 29.6503 23.0854 29.6503 22.7005V9.2986C29.6503 8.9137 29.2336 8.67313 28.9003 8.86558L21.4153 13.1871C21.2606 13.2764 21.1653 13.4414 21.1653 13.6201V18.379C21.1653 18.5577 21.2606 18.7227 21.4153 18.8121Z" fill="#A399FF"/>
<path d="M16.5439 10.3746L20.6653 12.754C20.82 12.8434 21.0106 12.8434 21.1653 12.754L28.6503 8.43257C28.9836 8.24012 28.9836 7.759 28.6503 7.56655L17.0439 0.865585C16.7106 0.673135 16.2939 0.913697 16.2939 1.2986V9.94155C16.2939 10.1202 16.3892 10.2852 16.5439 10.3746Z" fill="#A399FF"/>
</svg>
